<svg width="15" viewBox="0 0 9 12" class="mr-2" fill="#e3e3e3"><g fill="#e3e3e3" fill-rule="evenodd"><g fill="#e3e3e3"><g><g><g><path d="M2.858 5.15v4.415c0 .197-.11.371-.273.436-.231.092-.51.14-.808.14-.855 0-1.775-.396-1.775-1.266v-5.65c-.02-.389.1-1.074.676-1.445C.945 1.607 2.348.589 3.052.074c.125-.092.286-.098.417-.018.132.081.214.237.214.406v.669c0 .255-.183.462-.41.462-.175 0-.325-.125-.383-.302-.636.462-1.574 1.14-1.806 1.29-.21.136-.255.385-.264.52 0 .151.029.27.081.335.145.18.63.068 1.157-.29C2.566 2.802 5.067.92 5.092.902c.126-.095.287-.104.42-.023.133.08.216.237.216.408v.052c0 .155-.068.299-.182.385 0 0-1.736 1.31-1.89 1.42-.589.428-.798.953-.798 2.005zM9 2.92v5.998c0 .158-.072.306-.191.39 0 0-2.385 2.092-2.869 2.425-.254.175-.578.267-.936.267-.85 0-1.73-.52-1.73-1.389V4.878l.001-.006c.008-.338.078-.82.635-1.285.334-.278 2.321-1.809 2.406-1.873.125-.097.288-.107.421-.027.134.08.218.237.218.408v.67c0 .254-.183.461-.409.461-.169 0-.314-.115-.376-.28-.635.49-1.566 1.212-1.775 1.385-.263.22-.298.365-.303.551.001.138.034.243.101.313.209.216.77.125 1.324-.25.41-.278 2.176-1.819 2.822-2.389.124-.108.29-.128.431-.05.14.077.23.237.23.414zm-.818 2.059L6.137 6.77v.924l2.045-1.792v-.924z" transform="translate(-890.000000, -316.000000) translate(774.000000, 311.000000) translate(116.000000, 4.000000) translate(0.000000, 1.000000)"></path></g></g></g></g></g></svg>