<svg width="30" height="30" viewBox="0 0 50 50"><g fill="none" fill-rule="evenodd"><circle class="fill-current transition-all" cx="25" cy="25" r="25"></circle><g class="achievement-badge-icon"><path d="M39.59 27.276a7.757 7.757 0 01-2.465-5.651c0-1.1.237-2.182.69-3.18a14.104 14.104 0 011.893 7.055c0 .625-.046 1.21-.118 1.776z" fill="#F2F2F2" fill-rule="nonzero"></path><g transform="translate(11.271 12.543)" fill="#FFF" fill-rule="nonzero"><circle cx="14.229" cy="6.499" r="6.458"></circle><path d="M1.913 5.901c.453.999.69 2.081.69 3.181a7.759 7.759 0 01-2.437 5.623 11.347 11.347 0 01-.146-1.748c0-2.569.696-4.974 1.893-7.056z"></path></g><path d="M25.5 39.708c-7.562 0-8.536-1.228-8.952-6.432 1.86-2.013 5.257-3.255 8.952-3.255 3.695 0 7.093 1.242 8.952 3.255-.416 5.204-1.39 6.432-8.952 6.432zm3.552-2.583c.503 0 .969-.313.969-2.583s-.466-2.584-.969-2.584c-.503 0-.969.313-.969 2.584 0 2.27.466 2.583.97 2.583zm-7.104-5.167c-.503 0-.969.313-.969 2.584 0 2.27.466 2.583.969 2.583.503 0 .969-.313.969-2.583s-.466-2.584-.97-2.584z" fill="#FFF" fill-rule="nonzero"></path><path d="M35.708 33.673c.018-.191.038-.372.053-.572a.65.65 0 00-.152-.468C33.554 30.225 29.68 28.73 25.5 28.73s-8.054 1.496-10.109 3.904a.65.65 0 00-.152.468c.003.046.008.085.012.13-1.734-1.157-2.89-2.692-3.483-4.571 2.13-1.712 3.399-4.299 3.399-7.035 0-1.55-.42-3.061-1.183-4.415a14.184 14.184 0 0110.724-5.878c-3.903.398-6.958 3.703-6.958 7.71 0 4.273 3.476 7.75 7.75 7.75s7.75-3.477 7.75-7.75c0-4.007-3.055-7.312-6.958-7.71a14.183 14.183 0 0110.724 5.878 8.992 8.992 0 00-1.183 4.415c0 2.773 1.299 5.387 3.477 7.097-.567 2.14-1.757 3.782-3.602 4.95z" fill="#FFF" fill-rule="nonzero"></path><path d="M39.59 27.276a7.757 7.757 0 01-2.465-5.651c0-1.1.237-2.182.69-3.18a14.104 14.104 0 011.893 7.055c0 .625-.046 1.21-.118 1.776z" fill="#FFF" fill-rule="nonzero"></path><path d="M11.438 27.248a7.82 7.82 0 00.649-.704c-.26-.093-.509-.197-.762-.298.026.341.062.676.113 1.002z" fill="#000" fill-rule="nonzero" opacity=".1"></path></g></g></svg>