<svg width="30" height="30" viewBox="0 0 50 50"><g fill="none" fill-rule="evenodd"><circle class="fill-current transition-all" cx="25" cy="25" r="25"></circle><g fill="#FFF" fill-rule="nonzero" class="achievement-badge-icon"><path d="M32.021 29.95c.274.423.795 1.448 1.564 3.074l-.778-2.41-.368-.862.265-.127a.926.926 0 00.439-1.239l-.844-1.746a.941.941 0 00-1.247-.435l-.528.252-4.128-4.085 1.446 2.855c.92.24 1.575.764 1.962 1.573l-2.327 1.11c-.432.206-.708.64-.708 1.116v4.613c0 .093-.029.183-.083.259l-.825 1.148a.449.449 0 01-.729 0l-.825-1.148a.442.442 0 01-.084-.259v-4.613c0-.476-.275-.91-.707-1.117l-3.575-1.704a.94.94 0 00-1.247.435l-.844 1.746a.926.926 0 00.438 1.24l3.544 1.689c.459.218.738.691.705 1.196l-.472 7.322a1.237 1.237 0 01-.549.949c-.32.214-.724.269-1.09.147L14 35.232a6.912 6.912 0 001.501-2.18c1.336-3.005.841-5.887 1.056-7.63.751-6.103 4.002-8.88 8.94-8.88 4.937 0 8.188 2.777 8.94 8.88.219 1.785-.214 5.11 1.182 8.217.363.81.9 1.513 1.611 2.109l-6.663 5.181c-.367.122-.77.067-1.09-.147a1.237 1.237 0 01-.549-.949l-.472-7.322a1.238 1.238 0 01.705-1.197l2.86-1.363z"></path><path d="M35.11 10.863c-.294-.173-1.711 1.64-2.017 1.48-.366-.19.377-2.349 0-2.518a23.13 23.13 0 00-4.852-1.561c-.41-.082-.377 2.607-.79 2.554-.337-.043-.31-2.747-.648-2.771a18.21 18.21 0 00-4.395.217.209.209 0 00-.175.218l.098 1.637a.037.037 0 01-.072.013l-.502-1.582a.21.21 0 00-.23-.144c-.595.082-.991.144-1.587.408a.209.209 0 00-.121.224l.452 2.758a.105.105 0 01-.055.11.107.107 0 01-.123-.016l-2.23-2.059a.211.211 0 00-.236-.035 17.846 17.846 0 00-4.407 3.022.546.546 0 00-.013.785l3.783 3.757a.552.552 0 00.759.016c4.376-3.97 11.12-3.97 15.495 0 .217.198.551.19.76-.016l3.782-3.757a.545.545 0 00-.013-.785c-.78-.727-1.687-1.38-2.662-1.955z"></path></g></g></svg>