<svg xmlns="http://www.w3.org/2000/svg" viewBox="0 0 72 72" width="72" height="72" preserveAspectRatio="xMidYMid meet" style="width: 100%; height: 100%; transform: translate3d(0px, 0px, 0px); content-visibility: visible;"><defs><clipPath id="__lottie_element_65"><rect width="72" height="72" x="0" y="0"></rect></clipPath></defs><g clip-path="url(#__lottie_element_65)"><g transform="matrix(0.8944764733314514,0,0,0.8944764733314514,5.140562057495117,5.140562057495117)" opacity="1" style="display: block;"><g opacity="1" transform="matrix(1,0,0,1,34.25,34.25)"><path fill="rgb(227,37,38)" fill-opacity="1" d=" M0,-34 C18.777999877929688,-34 34,-18.777999877929688 34,0 C34,18.777999877929688 18.777999877929688,34 0,34 C-18.777999877929688,34 -34,18.777999877929688 -34,0 C-34,-18.777999877929688 -18.777999877929688,-34 0,-34z"></path></g></g><g transform="matrix(0.8944764733314514,0,0,0.8944764733314514,23.92456817626953,36)" opacity="1" style="display: block;"><g opacity="1" transform="matrix(1,0,0,1,13.496000289916992,4.86899995803833)"><path fill="rgb(255,255,255)" fill-opacity="1" d=" M12.229999542236328,4.176000118255615 C12.982999801635742,3.7320001125335693 13.246000289916992,2.746000051498413 12.736000061035156,2.0290000438690186 C11.440999984741211,0.20800000429153442 9.781000137329102,-1.3220000267028809 7.85699987411499,-2.4539999961853027 C5.478000164031982,-3.8529999256134033 2.7799999713897705,-4.59499979019165 0.03099999949336052,-4.60699987411499 C-2.7179999351501465,-4.61899995803833 -5.422999858856201,-3.9000000953674316 -7.814000129699707,-2.5209999084472656 C-9.746999740600586,-1.406999945640564 -11.418999671936035,0.10899999737739563 -12.729000091552734,1.9190000295639038 C-13.244999885559082,2.63100004196167 -12.991000175476074,3.619999885559082 -12.241999626159668,4.070000171661377 C-11.493000030517578,4.520999908447266 -10.534000396728516,4.261000156402588 -10.00100040435791,3.562000036239624 C-8.982999801635742,2.2269999980926514 -7.711999893188477,1.1050000190734863 -6.257999897003174,0.26600000262260437 C-4.34499979019165,-0.8370000123977661 -2.181999921798706,-1.4129999876022339 0.017999999225139618,-1.4040000438690186 C2.2170000076293945,-1.3940000534057617 4.375,-0.7990000247955322 6.2789998054504395,0.3199999928474426 C7.72599983215332,1.1720000505447388 8.986000061035156,2.303999900817871 9.993000030517578,3.6480000019073486 C10.520000457763672,4.3520002365112305 11.47700023651123,4.619999885559082 12.229999542236328,4.176000118255615z"></path></g></g><g transform="matrix(0.6324903964996338,0.6324903964996338,-0.6324903964996338,0.6324903964996338,29.841798782348633,28.649459838867188)" opacity="1" style="display: block;"><g opacity="1" transform="matrix(1,0,0,1,11.173999786376953,1.4789999723434448)"><path fill="rgb(255,255,255)" fill-opacity="1" d=" M-11.38800048828125,1.7579998970031738 C-11.38800048828125,0.31643709540367126 -12.55843734741211,-0.8540000915527344 -14,-0.8540000915527344 C-14,-0.8540000915527344 -14,-0.8540000915527344 -14,-0.8540000915527344 C-15.44156265258789,-0.8540000915527344 -16.61199951171875,0.31643709540367126 -16.61199951171875,1.7579998970031738 C-16.61199951171875,1.7579998970031738 -16.61199951171875,2.242000102996826 -16.61199951171875,2.242000102996826 C-16.61199951171875,3.683562994003296 -15.44156265258789,4.854000091552734 -14,4.854000091552734 C-14,4.854000091552734 -14,4.854000091552734 -14,4.854000091552734 C-12.55843734741211,4.854000091552734 -11.38800048828125,3.683562994003296 -11.38800048828125,2.242000102996826 C-11.38800048828125,2.242000102996826 -11.38800048828125,1.7579998970031738 -11.38800048828125,1.7579998970031738z"></path></g></g><g transform="matrix(-0.6324903964996338,0.6324903964996338,-0.6324903964996338,-0.6324903964996338,45.81035232543945,33.08517074584961)" opacity="1" style="display: block;"><g opacity="1" transform="matrix(1,0,0,1,11.173999786376953,1.7289999723434448)"><path fill="rgb(255,255,255)" fill-opacity="1" d=" M-11.38800048828125,1.7579998970031738 C-11.38800048828125,0.31643709540367126 -12.55843734741211,-0.8540000915527344 -14,-0.8540000915527344 C-14,-0.8540000915527344 -14,-0.8540000915527344 -14,-0.8540000915527344 C-15.44156265258789,-0.8540000915527344 -16.61199951171875,0.31643709540367126 -16.61199951171875,1.7579998970031738 C-16.61199951171875,1.7579998970031738 -16.61199951171875,2.242000102996826 -16.61199951171875,2.242000102996826 C-16.61199951171875,3.683562994003296 -15.44156265258789,4.854000091552734 -14,4.854000091552734 C-14,4.854000091552734 -14,4.854000091552734 -14,4.854000091552734 C-12.55843734741211,4.854000091552734 -11.38800048828125,3.683562994003296 -11.38800048828125,2.242000102996826 C-11.38800048828125,2.242000102996826 -11.38800048828125,1.7579998970031738 -11.38800048828125,1.7579998970031738z"></path></g></g></g></svg>
