<svg width="30" height="30" viewBox="0 0 50 50"><g fill="none" fill-rule="evenodd"><circle fill="none" class="fill-current transition-all" cx="25" cy="25" r="25"></circle><path class="achievement-badge-icon" d="M32.086 11.901a1.813 1.813 0 00-1.823 1.803v6.31c0-.996-.816-1.803-1.823-1.803a1.813 1.813 0 00-1.823 1.803c0-.996-.816-1.803-1.823-1.803a1.813 1.813 0 00-1.823 1.803v-7.211c0-.996-.816-1.803-1.823-1.803a1.813 1.813 0 00-1.823 1.803v12.619s-3.346-3.606-5.47-3.606c-1.56 0-1.822.669-1.822 1.803 0 .89 1.247 1.215 3.174 4.114 1.114 1.676.759 2.49 2.504 4.114.307.286.814.671 1.438 1.046.033.03.08.06.145.088.077.033.13.074.202.108.113.063.224.124.342.184 1.235.836 1.31 3.2 1.31 3.866 0 1.35.431 1.803 1.787 1.803h7.328c1.299 0 1.823-.537 1.823-1.803v-2.704c0-1.457 1.823-5.59 1.823-9.915V13.704c0-.996-.816-1.803-1.823-1.803z" fill="#FFF"></path></g></svg>