<svg width="30" height="30" viewBox="0 0 50 50"><g fill="none" fill-rule="evenodd"><circle class="fill-current transition-all" cx="25" cy="25" r="25"></circle><path d="M27.124 13.605l12.924 6.432a1.714 1.714 0 010 3.069l-5.076 2.526V31c0 3.314-4.24 6-9.472 6-5.231 0-9.472-2.686-9.472-6v-5.37l-2.584-1.285v5.178c.514.298.862.844.862 1.477 0 .947-.772 1.714-1.723 1.714-.95 0-1.722-.767-1.722-1.714 0-.633.348-1.18.861-1.476v-6.035l-.77-.383a1.714 1.714 0 010-3.069l12.924-6.432-.14 2.945-10.09 5.021 9.623 4.79-.134 2.808-4.524-2.252V31c0 1.586 3.009 3.429 6.889 3.429 3.88 0 6.889-1.843 6.889-3.429v-4.083l-4.524 2.252-.134-2.808 9.623-4.79-10.09-5.021-.14-2.945z" fill="#FFF" class="achievement-badge-icon" fill-rule="nonzero"></path></g></svg>