<svg width="500" height="371" xmlns="http://www.w3.org/2000/svg" xmlns:xlink="http://www.w3.org/1999/xlink"><defs><linearGradient x1="55.1%" y1="43.504%" x2="129.096%" y2="47.902%" id="g"><stop stop-color="#2B587F" offset="0%"/><stop stop-color="#1B293F" offset="100%"/></linearGradient><linearGradient x1="50%" y1="46.637%" x2="32.771%" y2="60.706%" id="h"><stop stop-color="#2B587F" offset="0%"/><stop stop-color="#1B293F" offset="100%"/></linearGradient><linearGradient x1="38.884%" y1="56.78%" x2="123.114%" y2="36.489%" id="k"><stop stop-color="#32466C" offset="0%"/><stop stop-color="#10192A" offset="100%"/></linearGradient><linearGradient x1="28.29%" y1="10.417%" x2="62.639%" y2="64.66%" id="m"><stop stop-color="#25C2F2" stop-opacity=".476" offset="0%"/><stop stop-color="#293F64" offset="100%"/></linearGradient><linearGradient x1="53.199%" y1="43.607%" x2="50%" y2="57.555%" id="n"><stop stop-color="#101A2A" offset="0%"/><stop stop-color="#213350" stop-opacity="0" offset="100%"/></linearGradient><linearGradient x1="-40.15%" y1="-47.999%" x2="59.987%" y2="100%" id="p"><stop stop-color="#5B79A2" offset="0%"/><stop stop-color="#243655" offset="100%"/></linearGradient><linearGradient x1="32.873%" y1="-28.733%" x2="59.971%" y2="79.159%" id="q"><stop stop-color="#25C2F2" stop-opacity=".476" offset="0%"/><stop stop-color="#293F64" offset="100%"/></linearGradient><linearGradient x1="0%" y1="50%" x2="100%" y2="50%" id="s"><stop stop-color="#5B79A2" offset="0%"/><stop stop-color="#2E4469" offset="100%"/></linearGradient><linearGradient x1="0%" y1="50%" x2="100%" y2="50%" id="v"><stop stop-color="#5B79A2" offset="0%"/><stop stop-color="#2E4469" offset="100%"/></linearGradient><linearGradient x1="16.586%" y1="50%" x2="60.659%" y2="92.56%" id="y"><stop stop-color="#5B79A2" offset="0%"/><stop stop-color="#2F4367" offset="100%"/></linearGradient><linearGradient x1="35.492%" y1="-28.733%" x2="58.447%" y2="79.159%" id="z"><stop stop-color="#25C2F2" stop-opacity=".476" offset="0%"/><stop stop-color="#293F64" offset="100%"/></linearGradient><linearGradient x1="36.959%" y1="50%" x2="72.43%" y2="27.803%" id="B"><stop stop-color="#090F19" offset="0%"/><stop stop-color="#213350" stop-opacity="0" offset="100%"/></linearGradient><linearGradient x1="98.741%" y1="48.741%" x2="1.259%" y2="48.741%" id="C"><stop stop-color="#21C8F6" offset="0%"/><stop stop-color="#637BFF" offset="100%"/></linearGradient><linearGradient x1="98.741%" y1="48.741%" x2="1.259%" y2="48.741%" id="D"><stop stop-color="#21C8F6" offset="0%"/><stop stop-color="#637BFF" offset="100%"/></linearGradient><linearGradient x1="50%" y1="100%" x2="50%" y2="50%" id="I"><stop stop-color="#5B79A2" offset="0%"/><stop stop-color="#2E4469" offset="100%"/><stop stop-color="#2E4469" offset="100%"/><stop stop-color="#2E4469" offset="100%"/></linearGradient><linearGradient x1="46.088%" y1="2.256%" x2="55.408%" y2="100%" id="M"><stop stop-color="#374F73" offset="0%"/><stop stop-color="#253652" offset="100%"/></linearGradient><linearGradient x1="50%" y1="149.484%" x2="50%" y2="0%" id="N"><stop stop-color="#5B79A2" offset="0%"/><stop stop-color="#2E4469" offset="100%"/></linearGradient><linearGradient x1="50%" y1="100%" x2="50%" y2="69.152%" id="P"><stop stop-color="#5B79A2" offset="0%"/><stop stop-color="#2E4469" offset="100%"/></linearGradient><linearGradient x1="50%" y1="66.196%" x2="28.893%" y2="13.209%" id="Q"><stop stop-color="#267195" offset="0%"/><stop stop-color="#00C3FF" offset="100%"/></linearGradient><linearGradient x1="10.01%" y1="35.988%" x2="94.296%" y2="65.599%" id="R"><stop stop-color="#5B79A2" offset="0%"/><stop stop-color="#2E4469" offset="100%"/></linearGradient><linearGradient x1="40.357%" y1="51.699%" x2="16.862%" y2="41.515%" id="Z"><stop stop-color="#21C8F6" stop-opacity=".299" offset="0%"/><stop stop-color="#637BFF" offset="100%"/></linearGradient><linearGradient x1="46.338%" y1="81.515%" x2="39.281%" y2="6.036%" id="aj"><stop stop-color="#76E1FF" offset="0%"/><stop stop-color="#637BFF" stop-opacity="0" offset="100%"/></linearGradient><linearGradient x1="39.281%" y1="6.036%" x2="46.338%" y2="81.515%" id="ak"><stop stop-color="#76E1FF" offset="0%"/><stop stop-color="#637BFF" stop-opacity="0" offset="100%"/></linearGradient><linearGradient x1="45.341%" y1="6.036%" x2="48.408%" y2="81.515%" id="al"><stop stop-color="#76E1FF" offset="0%"/><stop stop-color="#637BFF" stop-opacity="0" offset="100%"/></linearGradient><linearGradient x1="0%" y1="50%" x2="100%" y2="50%" id="am"><stop stop-color="#5B79A2" offset="0%"/><stop stop-color="#2E4469" offset="100%"/></linearGradient><linearGradient x1="85.355%" y1="72.293%" x2="14.645%" y2="27.707%" id="ao"><stop stop-color="#2F4568" offset="0%"/><stop stop-color="#18222F" offset="100%"/></linearGradient><linearGradient x1="50%" y1="-48.381%" x2="50%" y2="62.836%" id="an"><stop stop-color="#76E1FF" offset="0%"/><stop stop-color="#637BFF" stop-opacity="0" offset="100%"/></linearGradient><linearGradient x1="45.461%" y1="168.048%" x2="3.524%" y2="5.569%" id="aq"><stop stop-color="#C4D6EB" stop-opacity=".676" offset="0%"/><stop stop-color="#91ACD2" stop-opacity=".3" offset="100%"/></linearGradient><linearGradient x1="39.283%" y1="81.515%" x2="18.637%" y2="6.036%" id="ar"><stop stop-color="#76E1FF" offset="0%"/><stop stop-color="#637BFF" stop-opacity="0" offset="100%"/></linearGradient><linearGradient x1="0%" y1="50%" x2="100%" y2="50%" id="as"><stop stop-color="#5B79A2" offset="0%"/><stop stop-color="#2E4469" offset="100%"/></linearGradient><linearGradient x1="73.378%" y1="0%" x2="24.335%" y2="100%" id="ax"><stop stop-color="#476698" offset="0%"/><stop stop-color="#253652" offset="100%"/></linearGradient><linearGradient x1="50%" y1="149.484%" x2="50%" y2="0%" id="ay"><stop stop-color="#5B79A2" offset="0%"/><stop stop-color="#2E4469" offset="100%"/></linearGradient><linearGradient x1="-78.101%" y1="-15.867%" x2="42.462%" y2="50%" id="az"><stop stop-color="#2B577E" offset="0%"/><stop stop-color="#253652" offset="100%"/></linearGradient><linearGradient x1="55.1%" y1="30.858%" x2="50%" y2="63.304%" id="aA"><stop stop-color="#2B587F" offset="0%"/><stop stop-color="#1B293F" offset="100%"/></linearGradient><linearGradient x1="30.414%" y1="31.624%" x2="50%" y2="68.376%" id="aB"><stop stop-color="#5B79A2" offset="0%"/><stop stop-color="#2E4469" offset="100%"/></linearGradient><linearGradient x1="46.014%" y1="2.256%" x2="55.51%" y2="100%" id="aF"><stop stop-color="#374F73" offset="0%"/><stop stop-color="#253652" offset="100%"/></linearGradient><linearGradient x1="98.741%" y1="48.741%" x2="1.259%" y2="48.741%" id="aI"><stop stop-color="#21C8F6" offset="0%"/><stop stop-color="#637BFF" offset="100%"/></linearGradient><linearGradient x1="34.594%" y1="40.953%" x2="60.398%" y2="55.694%" id="aJ"><stop stop-color="#5B79A2" offset="0%"/><stop stop-color="#2E4469" offset="100%"/></linearGradient><linearGradient x1="31.057%" y1="-144.062%" x2="31.057%" y2="100%" id="aK"><stop stop-color="#6F90BC" offset="0%"/><stop stop-color="#2E4469" offset="100%"/></linearGradient><linearGradient x1="75.874%" y1="34.347%" x2="92.229%" y2="96.254%" id="aM"><stop stop-color="#5B79A2" offset="0%"/><stop stop-color="#2E4469" offset="100%"/></linearGradient><linearGradient x1="38.152%" y1="78.776%" x2="41.989%" y2="102.32%" id="aP"><stop stop-color="#55739C" offset="0%"/><stop stop-color="#4179D5" offset="100%"/></linearGradient><linearGradient x1="1.259%" y1="48.741%" x2="98.741%" y2="48.741%" id="aR"><stop stop-color="#21C8F6" offset="0%"/><stop stop-color="#637BFF" offset="100%"/></linearGradient><linearGradient x1="50%" y1="108%" x2="50%" y2="-31.193%" id="aV"><stop stop-color="#25C2F2" stop-opacity=".22" offset="0%"/><stop stop-color="#293F64" offset="100%"/></linearGradient><linearGradient x1="154.902%" y1="138.188%" x2="24.379%" y2="14.184%" id="bb"><stop stop-color="#76E1FF" offset="0%"/><stop stop-color="#637BFF" stop-opacity="0" offset="100%"/></linearGradient><linearGradient x1="13.96%" y1=".616%" x2="105.629%" y2="98.781%" id="bc"><stop stop-color="#587CB9" offset="0%"/><stop stop-color="#2E4469" stop-opacity="0" offset="100%"/></linearGradient><linearGradient x1="98.741%" y1="48.741%" x2="1.259%" y2="48.741%" id="bi"><stop stop-color="#21C8F6" offset="0%"/><stop stop-color="#637BFF" offset="100%"/></linearGradient><linearGradient x1="98.741%" y1="48.741%" x2="1.259%" y2="48.741%" id="bj"><stop stop-color="#21C8F6" offset="0%"/><stop stop-color="#637BFF" offset="100%"/></linearGradient><linearGradient x1="6.143%" y1="92.938%" x2="94.175%" y2="92.938%" id="bp"><stop stop-color="#1B283E" offset="0%"/><stop stop-color="#20466B" offset="35.097%"/><stop stop-color="#1B283E" offset="100%"/></linearGradient><linearGradient x1="11.961%" y1="41.802%" x2="92.09%" y2="56.661%" id="bt"><stop stop-color="#2D456A" offset="0%"/><stop stop-color="#273E5E" offset="100%"/></linearGradient><linearGradient x1="50%" y1="-53.416%" x2="50%" y2="120.174%" id="bv"><stop stop-color="#76E1FF" offset="0%"/><stop stop-color="#637BFF" stop-opacity="0" offset="100%"/></linearGradient><linearGradient x1="-3.354%" y1="42.584%" x2="78.41%" y2="64.539%" id="bz"><stop stop-color="#32C5FF" stop-opacity="0" offset="0%"/><stop stop-color="#61E4FF" offset="100%"/></linearGradient><linearGradient x1="11.869%" y1="53.32%" x2="90.436%" y2="47.845%" id="bC"><stop stop-color="#32C5FF" stop-opacity="0" offset="0%"/><stop stop-color="#61E4FF" offset="100%"/></linearGradient><linearGradient x1="0%" y1="50.817%" x2="90.436%" y2="49.47%" id="bF"><stop stop-color="#61E4FF" offset="0%"/><stop stop-color="#32C5FF" stop-opacity="0" offset="100%"/></linearGradient><linearGradient x1="5.642%" y1="100%" x2="85.873%" y2="17.544%" id="bJ"><stop stop-color="#61E4FF" offset="0%"/><stop stop-color="#32C5FF" stop-opacity="0" offset="100%"/></linearGradient><filter x="-12%" y="-75%" width="124%" height="250%" filterUnits="objectBoundingBox" id="d"><feGaussianBlur stdDeviation="4.5" in="SourceGraphic"/></filter><filter x="-42.2%" y="-122.3%" width="184.4%" height="344.6%" filterUnits="objectBoundingBox" id="f"><feOffset dy="3" in="SourceAlpha" result="shadowOffsetOuter1"/><feGaussianBlur stdDeviation="9" in="shadowOffsetOuter1" result="shadowBlurOuter1"/><feColorMatrix values="0 0 0 0 0.196078431 0 0 0 0 0.77254902 0 0 0 0 1 0 0 0 1 0" in="shadowBlurOuter1" result="shadowMatrixOuter1"/><feMerge><feMergeNode in="shadowMatrixOuter1"/><feMergeNode in="SourceGraphic"/></feMerge></filter><filter x="-140.5%" y="-140%" width="381%" height="380%" filterUnits="objectBoundingBox" id="i"><feMorphology radius="1.2" operator="dilate" in="SourceAlpha" result="shadowSpreadOuter1"/><feOffset in="shadowSpreadOuter1" result="shadowOffsetOuter1"/><feMorphology radius="1.2" in="SourceAlpha" result="shadowInner"/><feOffset in="shadowInner" result="shadowInner"/><feComposite in="shadowOffsetOuter1" in2="shadowInner" operator="out" result="shadowOffsetOuter1"/><feGaussianBlur stdDeviation="8" in="shadowOffsetOuter1" result="shadowBlurOuter1"/><feColorMatrix values="0 0 0 0 0.152877287 0 0 0 0 0.760326257 0 0 0 0 1 0 0 0 1 0" in="shadowBlurOuter1"/></filter><filter x="-13.7%" y="-75.7%" width="127.4%" height="251.4%" filterUnits="objectBoundingBox" id="E"><feGaussianBlur stdDeviation="4.838" in="SourceGraphic"/></filter><filter x="-19.2%" y="-149.3%" width="138.5%" height="398.7%" filterUnits="objectBoundingBox" id="F"><feGaussianBlur stdDeviation="4.838" in="SourceGraphic"/></filter><filter x="0%" y="0%" width="100%" height="100%" filterUnits="objectBoundingBox" id="L"><feGaussianBlur in="SourceGraphic"/></filter><filter x="0%" y="0%" width="100%" height="100%" filterUnits="objectBoundingBox" id="O"><feGaussianBlur in="SourceGraphic"/></filter><filter x="-221.9%" y="-190.6%" width="543.8%" height="543.8%" filterUnits="objectBoundingBox" id="W"><feOffset dy="5" in="SourceAlpha" result="shadowOffsetOuter1"/><feGaussianBlur stdDeviation="11" in="shadowOffsetOuter1" result="shadowBlurOuter1"/><feColorMatrix values="0 0 0 0 0.137254902 0 0 0 0 0.788235294 0 0 0 0 0.968627451 0 0 0 1 0" in="shadowBlurOuter1"/></filter><filter x="-59.8%" y="-993.2%" width="219.7%" height="2411.9%" filterUnits="objectBoundingBox" id="aa"><feOffset dy="5" in="SourceAlpha" result="shadowOffsetOuter1"/><feGaussianBlur stdDeviation="11" in="shadowOffsetOuter1" result="shadowBlurOuter1"/><feColorMatrix values="0 0 0 0 0.137254902 0 0 0 0 0.788235294 0 0 0 0 0.968627451 0 0 0 1 0" in="shadowBlurOuter1"/></filter><filter x="-81.6%" y="-830.3%" width="263.2%" height="1760.7%" filterUnits="objectBoundingBox" id="ad"><feOffset in="SourceAlpha" result="shadowOffsetOuter1"/><feGaussianBlur stdDeviation="8.5" in="shadowOffsetOuter1" result="shadowBlurOuter1"/><feColorMatrix values="0 0 0 0 0.180392157 0 0 0 0 0.811764706 0 0 0 0 0.976470588 0 0 0 1 0" in="shadowBlurOuter1"/></filter><filter x="-212.2%" y="-830.3%" width="524.3%" height="1760.7%" filterUnits="objectBoundingBox" id="ag"><feOffset in="SourceAlpha" result="shadowOffsetOuter1"/><feGaussianBlur stdDeviation="8.5" in="shadowOffsetOuter1" result="shadowBlurOuter1"/><feColorMatrix values="0 0 0 0 0.180392157 0 0 0 0 0.811764706 0 0 0 0 0.976470588 0 0 0 1 0" in="shadowBlurOuter1"/></filter><filter x="0%" y="0%" width="100%" height="100%" filterUnits="objectBoundingBox" id="aE"><feGaussianBlur in="SourceGraphic"/></filter><filter x="-23.4%" y="-418.7%" width="146.8%" height="1021.2%" filterUnits="objectBoundingBox" id="aG"><feOffset dy="2" in="SourceAlpha" result="shadowOffsetOuter1"/><feGaussianBlur stdDeviation="7" in="shadowOffsetOuter1" result="shadowBlurOuter1"/><feColorMatrix values="0 0 0 0 0.0115609217 0 0 0 0 0.467910214 0 0 0 0 1 0 0 0 1 0" in="shadowBlurOuter1"/></filter><filter x="-40%" y="-40%" width="180%" height="180%" filterUnits="objectBoundingBox" id="aN"><feGaussianBlur stdDeviation="5.143" in="SourceGraphic"/></filter><filter x="-185.3%" y="-292.9%" width="470.6%" height="800%" filterUnits="objectBoundingBox" id="aX"><feOffset dy="4" in="SourceAlpha" result="shadowOffsetOuter1"/><feGaussianBlur stdDeviation="7.5" in="shadowOffsetOuter1" result="shadowBlurOuter1"/><feColorMatrix values="0 0 0 0 0.137254902 0 0 0 0 0.788235294 0 0 0 0 0.968627451 0 0 0 1 0" in="shadowBlurOuter1"/></filter><filter x="-48%" y="-190.6%" width="195.9%" height="543.8%" filterUnits="objectBoundingBox" id="be"><feOffset dy="5" in="SourceAlpha" result="shadowOffsetOuter1"/><feGaussianBlur stdDeviation="11" in="shadowOffsetOuter1" result="shadowBlurOuter1"/><feColorMatrix values="0 0 0 0 0.137254902 0 0 0 0 0.788235294 0 0 0 0 0.968627451 0 0 0 1 0" in="shadowBlurOuter1"/></filter><filter x="-7.7%" y="-85.5%" width="115.3%" height="271%" filterUnits="objectBoundingBox" id="bo"><feGaussianBlur stdDeviation="9.528" in="SourceGraphic"/></filter><filter x="-22.5%" y="-1203.8%" width="144.8%" height="2539%" filterUnits="objectBoundingBox" id="bq"><feMorphology radius="1.2" operator="dilate" in="SourceAlpha" result="shadowSpreadOuter1"/><feOffset in="shadowSpreadOuter1" result="shadowOffsetOuter1"/><feMorphology radius="1.2" in="SourceAlpha" result="shadowInner"/><feOffset in="shadowInner" result="shadowInner"/><feComposite in="shadowOffsetOuter1" in2="shadowInner" operator="out" result="shadowOffsetOuter1"/><feGaussianBlur stdDeviation="8" in="shadowOffsetOuter1" result="shadowBlurOuter1"/><feColorMatrix values="0 0 0 0 0.152877287 0 0 0 0 0.760326257 0 0 0 0 1 0 0 0 1 0" in="shadowBlurOuter1"/></filter><filter x="-21.1%" y="-37.7%" width="142.1%" height="175.4%" filterUnits="objectBoundingBox" id="bx"><feMorphology radius=".857" operator="dilate" in="SourceAlpha" result="shadowSpreadOuter1"/><feOffset in="shadowSpreadOuter1" result="shadowOffsetOuter1"/><feMorphology radius="1" in="SourceAlpha" result="shadowInner"/><feOffset in="shadowInner" result="shadowInner"/><feComposite in="shadowOffsetOuter1" in2="shadowInner" operator="out" result="shadowOffsetOuter1"/><feGaussianBlur stdDeviation="8" in="shadowOffsetOuter1" result="shadowBlurOuter1"/><feColorMatrix values="0 0 0 0 0.152877287 0 0 0 0 0.760326257 0 0 0 0 1 0 0 0 1 0" in="shadowBlurOuter1"/></filter><filter x="-13%" y="-50.6%" width="126.1%" height="201.2%" filterUnits="objectBoundingBox" id="bA"><feMorphology radius=".857" operator="dilate" in="SourceAlpha" result="shadowSpreadOuter1"/><feOffset in="shadowSpreadOuter1" result="shadowOffsetOuter1"/><feMorphology radius="1" in="SourceAlpha" result="shadowInner"/><feOffset in="shadowInner" result="shadowInner"/><feComposite in="shadowOffsetOuter1" in2="shadowInner" operator="out" result="shadowOffsetOuter1"/><feGaussianBlur stdDeviation="8" in="shadowOffsetOuter1" result="shadowBlurOuter1"/><feColorMatrix values="0 0 0 0 0.152877287 0 0 0 0 0.760326257 0 0 0 0 1 0 0 0 1 0" in="shadowBlurOuter1"/></filter><filter x="-18.6%" y="-145.7%" width="137.2%" height="391.4%" filterUnits="objectBoundingBox" id="bD"><feMorphology radius=".857" operator="dilate" in="SourceAlpha" result="shadowSpreadOuter1"/><feOffset in="shadowSpreadOuter1" result="shadowOffsetOuter1"/><feMorphology radius="1" in="SourceAlpha" result="shadowInner"/><feOffset in="shadowInner" result="shadowInner"/><feComposite in="shadowOffsetOuter1" in2="shadowInner" operator="out" result="shadowOffsetOuter1"/><feGaussianBlur stdDeviation="8" in="shadowOffsetOuter1" result="shadowBlurOuter1"/><feColorMatrix values="0 0 0 0 0.152877287 0 0 0 0 0.760326257 0 0 0 0 1 0 0 0 1 0" in="shadowBlurOuter1"/></filter><filter x="-45.9%" y="-43.3%" width="191.8%" height="186.5%" filterUnits="objectBoundingBox" id="bH"><feMorphology radius=".857" operator="dilate" in="SourceAlpha" result="shadowSpreadOuter1"/><feOffset in="shadowSpreadOuter1" result="shadowOffsetOuter1"/><feMorphology radius="1" in="SourceAlpha" result="shadowInner"/><feOffset in="shadowInner" result="shadowInner"/><feComposite in="shadowOffsetOuter1" in2="shadowInner" operator="out" result="shadowOffsetOuter1"/><feGaussianBlur stdDeviation="8" in="shadowOffsetOuter1" result="shadowBlurOuter1"/><feColorMatrix values="0 0 0 0 0.152877287 0 0 0 0 0.760326257 0 0 0 0 1 0 0 0 1 0" in="shadowBlurOuter1"/></filter><filter x="-42.5%" y="-136.4%" width="184.9%" height="372.7%" filterUnits="objectBoundingBox" id="bK"><feGaussianBlur stdDeviation="25.716" in="SourceGraphic"/></filter><filter x="-66.6%" y="-66.6%" width="233.1%" height="233.1%" filterUnits="objectBoundingBox" id="bL"><feGaussianBlur stdDeviation="33.431" in="SourceGraphic"/></filter><filter x="-30.4%" y="-23.1%" width="160.9%" height="145.7%" filterUnits="objectBoundingBox" id="bM"><feMorphology radius="1.2" operator="dilate" in="SourceAlpha" result="shadowSpreadOuter1"/><feOffset in="shadowSpreadOuter1" result="shadowOffsetOuter1"/><feMorphology radius="1.2" in="SourceAlpha" result="shadowInner"/><feOffset in="shadowInner" result="shadowInner"/><feComposite in="shadowOffsetOuter1" in2="shadowInner" operator="out" result="shadowOffsetOuter1"/><feGaussianBlur stdDeviation="8" in="shadowOffsetOuter1" result="shadowBlurOuter1"/><feColorMatrix values="0 0 0 0 0.152877287 0 0 0 0 0.760326257 0 0 0 0 1 0 0 0 1 0" in="shadowBlurOuter1"/></filter><filter x="-30%" y="-36.2%" width="160%" height="172.3%" filterUnits="objectBoundingBox" id="bO"><feMorphology radius="1.2" operator="dilate" in="SourceAlpha" result="shadowSpreadOuter1"/><feOffset in="shadowSpreadOuter1" result="shadowOffsetOuter1"/><feMorphology radius="1.2" in="SourceAlpha" result="shadowInner"/><feOffset in="shadowInner" result="shadowInner"/><feComposite in="shadowOffsetOuter1" in2="shadowInner" operator="out" result="shadowOffsetOuter1"/><feGaussianBlur stdDeviation="8" in="shadowOffsetOuter1" result="shadowBlurOuter1"/><feColorMatrix values="0 0 0 0 0.152877287 0 0 0 0 0.760326257 0 0 0 0 1 0 0 0 1 0" in="shadowBlurOuter1"/></filter><filter x="-23.4%" y="-57.5%" width="147.8%" height="214.6%" filterUnits="objectBoundingBox" id="bQ"><feMorphology radius="1.2" operator="dilate" in="SourceAlpha" result="shadowSpreadOuter1"/><feOffset in="shadowSpreadOuter1" result="shadowOffsetOuter1"/><feMorphology radius="1.2" in="SourceAlpha" result="shadowInner"/><feOffset in="shadowInner" result="shadowInner"/><feComposite in="shadowOffsetOuter1" in2="shadowInner" operator="out" result="shadowOffsetOuter1"/><feGaussianBlur stdDeviation="8" in="shadowOffsetOuter1" result="shadowBlurOuter1"/><feColorMatrix values="0 0 0 0 0.152877287 0 0 0 0 0.760326257 0 0 0 0 1 0 0 0 1 0" in="shadowBlurOuter1"/></filter><filter x="-27.1%" y="-63.2%" width="154.7%" height="225.3%" filterUnits="objectBoundingBox" id="bS"><feMorphology radius="1.2" operator="dilate" in="SourceAlpha" result="shadowSpreadOuter1"/><feOffset in="shadowSpreadOuter1" result="shadowOffsetOuter1"/><feMorphology radius="1.2" in="SourceAlpha" result="shadowInner"/><feOffset in="shadowInner" result="shadowInner"/><feComposite in="shadowOffsetOuter1" in2="shadowInner" operator="out" result="shadowOffsetOuter1"/><feGaussianBlur stdDeviation="8" in="shadowOffsetOuter1" result="shadowBlurOuter1"/><feColorMatrix values="0 0 0 0 0.152877287 0 0 0 0 0.760326257 0 0 0 0 1 0 0 0 1 0" in="shadowBlurOuter1"/></filter><filter x="-66.5%" y="-36.4%" width="191.5%" height="149.4%" filterUnits="objectBoundingBox" id="bU"><feMorphology radius="1.2" operator="dilate" in="SourceAlpha" result="shadowSpreadOuter1"/><feOffset in="shadowSpreadOuter1" result="shadowOffsetOuter1"/><feGaussianBlur stdDeviation="8" in="shadowOffsetOuter1" result="shadowBlurOuter1"/><feComposite in="shadowBlurOuter1" in2="SourceAlpha" operator="out" result="shadowBlurOuter1"/><feColorMatrix values="0 0 0 0 0.152877287 0 0 0 0 0.760326257 0 0 0 0 1 0 0 0 1 0" in="shadowBlurOuter1"/></filter><filter x="-207%" y="-498.5%" width="514.1%" height="1097%" filterUnits="objectBoundingBox" id="bW"><feMorphology radius=".96" operator="dilate" in="SourceAlpha" result="shadowSpreadOuter1"/><feOffset in="shadowSpreadOuter1" result="shadowOffsetOuter1"/><feMorphology radius="1" in="SourceAlpha" result="shadowInner"/><feOffset in="shadowInner" result="shadowInner"/><feComposite in="shadowOffsetOuter1" in2="shadowInner" operator="out" result="shadowOffsetOuter1"/><feGaussianBlur stdDeviation="6.5" in="shadowOffsetOuter1" result="shadowBlurOuter1"/><feColorMatrix values="0 0 0 0 0.152877287 0 0 0 0 0.760326257 0 0 0 0 1 0 0 0 1 0" in="shadowBlurOuter1"/></filter><filter x="-125.2%" y="-498.5%" width="350.3%" height="1097%" filterUnits="objectBoundingBox" id="bY"><feMorphology radius=".96" operator="dilate" in="SourceAlpha" result="shadowSpreadOuter1"/><feOffset in="shadowSpreadOuter1" result="shadowOffsetOuter1"/><feMorphology radius="1" in="SourceAlpha" result="shadowInner"/><feOffset in="shadowInner" result="shadowInner"/><feComposite in="shadowOffsetOuter1" in2="shadowInner" operator="out" result="shadowOffsetOuter1"/><feGaussianBlur stdDeviation="6.5" in="shadowOffsetOuter1" result="shadowBlurOuter1"/><feColorMatrix values="0 0 0 0 0.152877287 0 0 0 0 0.760326257 0 0 0 0 1 0 0 0 1 0" in="shadowBlurOuter1"/></filter><filter x="-74.4%" y="-433.8%" width="248.8%" height="967.6%" filterUnits="objectBoundingBox" id="ca"><feMorphology radius=".96" operator="dilate" in="SourceAlpha" result="shadowSpreadOuter1"/><feOffset in="shadowSpreadOuter1" result="shadowOffsetOuter1"/><feMorphology radius="1" in="SourceAlpha" result="shadowInner"/><feOffset in="shadowInner" result="shadowInner"/><feComposite in="shadowOffsetOuter1" in2="shadowInner" operator="out" result="shadowOffsetOuter1"/><feGaussianBlur stdDeviation="6.5" in="shadowOffsetOuter1" result="shadowBlurOuter1"/><feColorMatrix values="0 0 0 0 0.152877287 0 0 0 0 0.760326257 0 0 0 0 1 0 0 0 1 0" in="shadowBlurOuter1"/></filter><filter x="-74.4%" y="-433.8%" width="248.8%" height="967.6%" filterUnits="objectBoundingBox" id="cc"><feMorphology radius=".96" operator="dilate" in="SourceAlpha" result="shadowSpreadOuter1"/><feOffset in="shadowSpreadOuter1" result="shadowOffsetOuter1"/><feMorphology radius="1" in="SourceAlpha" result="shadowInner"/><feOffset in="shadowInner" result="shadowInner"/><feComposite in="shadowOffsetOuter1" in2="shadowInner" operator="out" result="shadowOffsetOuter1"/><feGaussianBlur stdDeviation="6.5" in="shadowOffsetOuter1" result="shadowBlurOuter1"/><feColorMatrix values="0 0 0 0 0.152877287 0 0 0 0 0.760326257 0 0 0 0 1 0 0 0 1 0" in="shadowBlurOuter1"/></filter><filter x="-131%" y="-476.2%" width="362.1%" height="1052.4%" filterUnits="objectBoundingBox" id="ce"><feMorphology radius=".96" operator="dilate" in="SourceAlpha" result="shadowSpreadOuter1"/><feOffset in="shadowSpreadOuter1" result="shadowOffsetOuter1"/><feMorphology radius="1" in="SourceAlpha" result="shadowInner"/><feOffset in="shadowInner" result="shadowInner"/><feComposite in="shadowOffsetOuter1" in2="shadowInner" operator="out" result="shadowOffsetOuter1"/><feGaussianBlur stdDeviation="6.5" in="shadowOffsetOuter1" result="shadowBlurOuter1"/><feColorMatrix values="0 0 0 0 0.152877287 0 0 0 0 0.760326257 0 0 0 0 1 0 0 0 1 0" in="shadowBlurOuter1"/></filter><filter x="-347%" y="-476.2%" width="793.9%" height="1052.4%" filterUnits="objectBoundingBox" id="cg"><feMorphology radius=".96" operator="dilate" in="SourceAlpha" result="shadowSpreadOuter1"/><feOffset in="shadowSpreadOuter1" result="shadowOffsetOuter1"/><feMorphology radius="1" in="SourceAlpha" result="shadowInner"/><feOffset in="shadowInner" result="shadowInner"/><feComposite in="shadowOffsetOuter1" in2="shadowInner" operator="out" result="shadowOffsetOuter1"/><feGaussianBlur stdDeviation="6.5" in="shadowOffsetOuter1" result="shadowBlurOuter1"/><feColorMatrix values="0 0 0 0 0.152877287 0 0 0 0 0.760326257 0 0 0 0 1 0 0 0 1 0" in="shadowBlurOuter1"/></filter><radialGradient cx="52.436%" cy="42.955%" fx="52.436%" fy="42.955%" r="316.478%" gradientTransform="matrix(-.16 0 0 -.32285 .608 .568)" id="c"><stop offset="0%"/><stop stop-opacity=".329" offset="100%"/></radialGradient><radialGradient cx="50%" cy="70.769%" fx="50%" fy="70.769%" r="110.199%" gradientTransform="matrix(.22679 -.93923 .6205 .34328 -.053 .934)" id="e"><stop stop-color="#25C2F2" stop-opacity=".626" offset="0%"/><stop stop-color="#293F64" offset="100%"/></radialGradient><radialGradient cx="-13.828%" cy="-9.043%" fx="-13.828%" fy="-9.043%" r="124.253%" gradientTransform="matrix(.42657 .79878 -.56637 .60162 -.13 .075)" id="l"><stop stop-color="#FAC446" offset="0%"/><stop stop-color="#233452" stop-opacity="0" offset="100%"/></radialGradient><radialGradient cx="50%" cy="0%" fx="50%" fy="0%" r="69.799%" gradientTransform="matrix(0 1 -.63271 0 .5 -.5)" id="o"><stop stop-color="#283F62" offset="0%"/><stop stop-color="#101A2A" offset="100%"/></radialGradient><radialGradient cx="50%" cy="0%" fx="50%" fy="0%" r="70.094%" gradientTransform="matrix(0 .99579 -1 0 .5 -.498)" id="r"><stop stop-color="#283F62" offset="0%"/><stop stop-color="#101A2A" offset="100%"/></radialGradient><radialGradient cx="-6.685%" cy="70.19%" fx="-6.685%" fy="70.19%" r="96.162%" gradientTransform="matrix(.13067 -.84624 .99143 .11153 -.754 .567)" id="t"><stop stop-color="#25C2F2" stop-opacity=".626" offset="0%"/><stop stop-color="#293F64" offset="100%"/></radialGradient><radialGradient cx="50%" cy="0%" fx="50%" fy="0%" r="88.772%" gradientTransform="matrix(0 .78627 -1 0 .5 -.393)" id="u"><stop stop-color="#283F62" offset="0%"/><stop stop-color="#101A2A" offset="100%"/></radialGradient><radialGradient cx="-6.685%" cy="70.19%" fx="-6.685%" fy="70.19%" r="96.16%" gradientTransform="matrix(.13067 -.84626 .99143 .11154 -.754 .567)" id="w"><stop stop-color="#25C2F2" stop-opacity=".626" offset="0%"/><stop stop-color="#293F64" offset="100%"/></radialGradient><radialGradient cx="50%" cy="0%" fx="50%" fy="0%" r="88.769%" gradientTransform="matrix(0 .7863 -1 0 .5 -.393)" id="x"><stop stop-color="#283F62" offset="0%"/><stop stop-color="#101A2A" offset="100%"/></radialGradient><radialGradient cx="-6.685%" cy="70.19%" fx="-6.685%" fy="70.19%" r="100.336%" gradientTransform="scale(1 .81748) rotate(-82.806 .022 .78)" id="A"><stop stop-color="#25C2F2" stop-opacity=".626" offset="0%"/><stop stop-color="#293F64" offset="100%"/></radialGradient><radialGradient cx="42.558%" cy="20.967%" fx="42.558%" fy="20.967%" r="61.194%" gradientTransform="matrix(.05982 .99708 -.78108 .07637 .564 -.23)" id="G"><stop stop-color="#5B79A2" offset="0%"/><stop stop-color="#2E4469" offset="100%"/><stop stop-color="#2E4469" offset="100%"/><stop stop-color="#253858" offset="100%"/></radialGradient><radialGradient cx="7.73%" cy="3.866%" fx="7.73%" fy="3.866%" r="110.036%" gradientTransform="scale(.78337 1) rotate(75.229 .088 .053)" id="H"><stop stop-color="#25C2F2" stop-opacity=".626" offset="0%"/><stop stop-color="#293F64" offset="100%"/></radialGradient><radialGradient cx="7.73%" cy="3.866%" fx="7.73%" fy="3.866%" r="132.433%" gradientTransform="matrix(.16595 .80342 -.22392 .59541 .073 -.046)" id="J"><stop stop-color="#25C2F2" stop-opacity=".626" offset="0%"/><stop stop-color="#293F64" offset="100%"/></radialGradient><radialGradient cx="52.436%" cy="42.955%" fx="52.436%" fy="42.955%" r="36.744%" gradientTransform="matrix(-.98285 0 0 -.21136 1.04 .52)" id="K"><stop stop-color="#172743" offset="0%"/><stop stop-opacity="0" offset="100%"/></radialGradient><radialGradient cx="7.73%" cy="3.866%" fx="7.73%" fy="3.866%" r="107.142%" gradientTransform="matrix(.2767 .89725 -.56229 .44152 .078 -.047)" id="S"><stop stop-color="#22CBFF" stop-opacity=".194" offset="0%"/><stop stop-color="#293F64" stop-opacity=".378" offset="100%"/></radialGradient><radialGradient cx="22.124%" cy="112.647%" fx="22.124%" fy="112.647%" r="117.183%" gradientTransform="matrix(.30582 -.87284 .547 .488 -.463 .77)" id="T"><stop stop-color="#25C2F2" stop-opacity=".626" offset="0%"/><stop stop-color="#293F64" offset="100%"/></radialGradient><radialGradient cx="50%" cy="50%" fx="50%" fy="50%" r="68.4%" id="Y"><stop stop-color="#21C8F6" offset="0%"/><stop stop-color="#4BDEFF" offset="100%"/></radialGradient><radialGradient cx="50%" cy="50%" fx="50%" fy="50%" r="1321.379%" gradientTransform="matrix(.05176 0 0 1 .474 0)" id="ac"><stop stop-color="#21C8F6" offset="0%"/><stop stop-color="#4BDEFF" offset="100%"/></radialGradient><radialGradient cx="50%" cy="50%" fx="50%" fy="50%" r="696.046%" gradientTransform="matrix(.09827 0 0 1 .45 0)" id="af"><stop stop-color="#21C8F6" offset="0%"/><stop stop-color="#4BDEFF" offset="100%"/></radialGradient><radialGradient cx="50%" cy="50%" fx="50%" fy="50%" r="267.71%" gradientTransform="matrix(.2555 0 0 1 .372 0)" id="ai"><stop stop-color="#21C8F6" offset="0%"/><stop stop-color="#4BDEFF" offset="100%"/></radialGradient><radialGradient cx="37.435%" cy="76.012%" fx="37.435%" fy="76.012%" r="68.095%" gradientTransform="matrix(.27978 -.93587 .74314 .35234 -.295 .843)" id="ap"><stop stop-color="#25C2F2" stop-opacity=".626" offset="0%"/><stop stop-color="#293F64" offset="100%"/></radialGradient><radialGradient cx="7.73%" cy="3.866%" fx="7.73%" fy="3.866%" r="112.406%" gradientTransform="matrix(.19552 .94656 -.57384 .32251 .084 -.046)" id="aC"><stop stop-color="#25C2F2" stop-opacity=".626" offset="0%"/><stop stop-color="#293F64" offset="100%"/></radialGradient><radialGradient cx="52.436%" cy="42.955%" fx="52.436%" fy="42.955%" r="36.114%" gradientTransform="matrix(-1 0 0 -.21136 1.049 .52)" id="aD"><stop stop-color="#172743" offset="0%"/><stop stop-opacity="0" offset="100%"/></radialGradient><radialGradient cx="7.73%" cy="3.866%" fx="7.73%" fy="3.866%" r="138.874%" gradientTransform="scale(.24625 1) rotate(50.01 .196 .292)" id="aL"><stop stop-color="#25C2F2" stop-opacity=".626" offset="0%"/><stop stop-color="#293F64" offset="100%"/></radialGradient><radialGradient cx="50%" cy="50%" fx="50%" fy="50%" r="68.353%" id="aO"><stop stop-color="#21C8F6" offset="0%"/><stop stop-color="#4BDEFF" offset="100%"/></radialGradient><radialGradient cx="50%" cy="83.576%" fx="50%" fy="83.576%" r="115.619%" gradientTransform="matrix(.24142 -.90253 .97042 .22453 -.432 1.1)" id="aQ"><stop stop-color="#25C2F2" stop-opacity=".626" offset="0%"/><stop stop-color="#293F64" offset="100%"/></radialGradient><radialGradient cx="43.496%" cy="117.006%" fx="43.496%" fy="117.006%" r="68.68%" gradientTransform="matrix(.0947 -.97562 .73984 .38561 -.472 1.143)" id="aS"><stop stop-color="#25C2F2" offset="0%"/><stop stop-color="#293F64" offset="100%"/></radialGradient><radialGradient cx="50%" cy="50%" fx="50%" fy="50%" r="129.2%" gradientTransform="matrix(.52941 0 0 1 .235 0)" id="aZ"><stop stop-color="#21C8F6" offset="0%"/><stop stop-color="#4BDEFF" offset="100%"/></radialGradient><radialGradient cx="50%" cy="50%" fx="50%" fy="50%" r="316.35%" gradientTransform="matrix(.21622 0 0 1 .392 0)" id="bg"><stop stop-color="#21C8F6" offset="0%"/><stop stop-color="#4BDEFF" offset="100%"/></radialGradient><radialGradient cx="52.101%" cy="30.594%" fx="52.101%" fy="30.594%" r="544.263%" gradientTransform="matrix(-.08965 0 0 -.25522 .568 .384)" id="bn"><stop offset="0%"/><stop stop-opacity=".002" offset="100%"/></radialGradient><radialGradient cx="25.115%" cy="73.739%" fx="25.115%" fy="73.739%" r="74.979%" gradientTransform="matrix(1 0 0 .56892 0 .318)" id="bs"><stop stop-color="#1E4364" offset="0%"/><stop stop-color="#1B283E" offset="100%"/></radialGradient><radialGradient cx="50%" cy="0%" fx="50%" fy="0%" r="100%" gradientTransform="matrix(0 1 -.38746 0 .5 -.5)" id="bu"><stop stop-color="#22CBFF" stop-opacity=".194" offset="0%"/><stop stop-color="#293F64" stop-opacity=".378" offset="100%"/></radialGradient><radialGradient cx="50%" cy="-42.341%" fx="50%" fy="-42.341%" r="116.813%" gradientTransform="matrix(0 1 -.37638 0 .34 -.923)" id="bw"><stop stop-color="#00C3FF" stop-opacity="0" offset="0%"/><stop stop-color="#1D3153" stop-opacity=".677" offset="100%"/></radialGradient><radialGradient cx="50%" cy="50%" fx="50%" fy="50%" r="50%" gradientTransform="matrix(0 1 -.81696 0 .908 0)" id="bG"><stop stop-color="#80E4FF" offset="0%"/><stop stop-color="#637BFF" stop-opacity="0" offset="100%"/></radialGradient><path id="a" d="M0 0h500v371H0z"/><path d="M44.384 56.378c24.513 0 44.385-.525 44.385-20.397S68.897 0 44.384 0C19.872 0 0 16.11 0 35.981c0 19.872 19.872 20.397 44.384 20.397z" id="U"/><path d="M1.654 0H57.91a1.536 1.536 0 010 3.071H1.654a1.536 1.536 0 110-3.071z" id="ab"/><path d="M1.654 0h28.18a1.536 1.536 0 010 3.071H1.654a1.536 1.536 0 110-3.071z" id="ae"/><path d="M1.536 11.257h8.948a1.536 1.536 0 110 3.07H1.536a1.536 1.536 0 110-3.07z" id="ah"/><path d="M56.532 51.411s-1.547-2.36-3.102-3.015c-.467-.197-.935-.24-1.362-.019-.572.297-.701 1.007-.607 1.846.21 1.87 1.53 4.382 1.53 4.382a8.72 8.72 0 01.825-.674c2.365-1.707 5.471-2.298 6.597-2.464.273-.04.43-.056.43-.056s-.152-.47-.482-1.065a6.209 6.209 0 00-.747-1.077c-.37-.423-.83-.81-1.388-1.051a1.155 1.155 0 00-.456-.106c-1.365 0-1.238 3.3-1.238 3.3" id="at"/><path d="M79.97 49.257c-.574.201-1.058.555-1.455.951a6.76 6.76 0 00-1.366 2.05s.155.027.426.086c1.038.229 3.777.949 5.965 2.565.44.325.857.687 1.234 1.087 0 0 1.57-2.555 1.84-4.424.09-.631.034-1.184-.282-1.534-.57-.633-1.508-.37-2.145-.015-1.41.783-2.737 2.539-2.737 2.539s.353-3.38-1.08-3.38c-.121 0-.254.023-.4.075" id="av"/><path d="M51.048 95.621h89.193a2.388 2.388 0 010 4.777H51.048a2.388 2.388 0 110-4.777z" id="aH"/><path d="M11.795 0h62.457c6.514 0 11.794 5.28 11.794 11.795v50.092c0 4.86-2.981 9.223-7.51 10.989-7.44 2.9-18.784 4.35-34.035 4.35-16.17 0-28.485-1.63-36.947-4.89A11.795 11.795 0 010 61.33V11.795C0 5.28 5.28 0 11.795 0z" id="aT"/><path d="M11.795 0h62.457c6.514 0 11.794 5.28 11.794 11.795v50.092c0 4.86-2.981 9.223-7.51 10.989-7.44 2.9-18.784 4.35-34.035 4.35-16.17 0-28.485-1.63-36.947-4.89A11.795 11.795 0 010 61.33V11.795C0 5.28 5.28 0 11.795 0z" id="aU"/><path d="M53.257 68.484c-2.36-.004-4.607-1.231-6.164-3.368-.666-.914-.587-2.3.175-3.094.761-.795 1.918-.698 2.584.216.86 1.18 2.099 1.858 3.4 1.86 1.302.002 2.54-.672 3.396-1.85.664-.911 1.821-1.005 2.585-.208.763.797.845 2.182.18 3.094-1.55 2.133-3.794 3.354-6.156 3.35z" id="aY"/><path d="M11.795 0h62.457c6.514 0 11.794 5.28 11.794 11.795v50.092c0 4.86-2.981 9.223-7.51 10.989-7.44 2.9-18.784 4.35-34.035 4.35-16.17 0-28.485-1.63-36.947-4.89A11.795 11.795 0 010 61.33V11.795C0 5.28 5.28 0 11.795 0z" id="ba"/><path d="M36.498 40.671h58a8 8 0 010 16H36.5a8 8 0 110-16z" id="bf"/><path d="M43 163.5l111.777-.372" id="br"/><path id="by" d="M218.127 74.578h-66.89V40.954H100.08V8.67"/><path id="bB" d="M218.127 74.578v18.996h-36.12v10.15H55.14v19.992H27.42"/><path id="bE" d="M218.127 74.578h26.4l12.514-17.062h94.55"/><path id="bI" d="M218.127 74.578V48.39h6.755V27.717h47.373V17.11"/><path d="M47.661 0L0 40.673l34.322 67.63a.857.857 0 001.305.277L82.795 70.2 47.66 0z" id="bN"/><path id="bP" d="M47.661 0H93.13l38.54 65.437-48.874 4.234z"/><path d="M36.088 108.97l50.807-5 45.002-37.511a.429.429 0 00-.306-.757l-48.703 3.545-47.422 38.202a.857.857 0 00.622 1.52z" id="bR"/><path id="bT" d="M0 40.673l50.233-1.714L93.093.007"/><path d="M50.233 37.816l36.106 65.907" id="bV"/><path d="M.094 3.657h5.66c1.166 0 2.112.919 2.112 2.052 0 1.134-.946 2.052-2.112 2.052H.094c-1.166 0-2.11-.918-2.11-2.052 0-1.133.944-2.052 2.11-2.052z" id="bX"/><path d="M-3.138 18.99H8.987c1.166 0 2.11.918 2.11 2.051 0 1.134-.944 2.053-2.11 2.053H-3.138c-1.166 0-2.111-.92-2.111-2.053s.945-2.052 2.11-2.052z" id="bZ"/><path d="M1.21 6.592l23.302.467c1.162.024 2.113.988 2.136 2.167.023 1.155-.882 2.088-2.021 2.082h-.032l-23.303-.467C.131 10.817-.82 9.853-.844 8.674-.866 7.52.04 6.586 1.178 6.592h.031z" id="cb"/><path d="M1.292 19.16l23.303-.468c1.14-.023 2.059.895 2.054 2.05v.032c-.024 1.179-.975 2.143-2.137 2.167l-23.303.467c-1.14.023-2.059-.895-2.053-2.05v-.032c.023-1.179.975-2.143 2.136-2.167z" id="cd"/><path d="M9.4 12.868h11.44c1.153 0 2.088.962 2.088 2.148 0 1.187-.935 2.149-2.089 2.149H9.401c-1.154 0-2.089-.962-2.089-2.149 0-1.186.935-2.148 2.089-2.148z" id="cf"/><path d="M2.088 12.868h1.72c1.154 0 2.089.962 2.089 2.148 0 1.187-.935 2.149-2.088 2.149h-1.72C.934 17.165 0 16.203 0 15.016c0-1.186.935-2.148 2.088-2.148z" id="ch"/><ellipse id="j" cx="32.815" cy="78.1" rx="8.967" ry="9"/><ellipse id="bh" cx="24.666" cy="24.559" rx="24.666" ry="24.559"/><ellipse id="bl" cx="24.666" cy="24.559" rx="24.666" ry="24.559"/><circle id="X" cx="26.957" cy="25.264" r="8"/></defs><g fill="none" fill-rule="evenodd"><mask id="b" fill="#fff"><use xlink:href="#a"/></mask><use fill-opacity="0" fill="#D8D8D8" xlink:href="#a"/><g mask="url(#b)"><g transform="translate(0 -7)"><g transform="rotate(-41 250.073 93.499)"><ellipse fill="url(#c)" opacity=".254" filter="url(#d)" cx="65.25" cy="121.912" rx="56.25" ry="9"/><rect fill="url(#e)" opacity=".705" x="9" width="118.5" height="78.286" rx="10.5"/><path d="M18 3.433h99a6 6 0 016 6v59.842a6 6 0 01-6 6H18a6 6 0 01-6-6V9.433a6 6 0 016-6z" fill="#162743" opacity=".636"/><g filter="url(#f)" transform="translate(21 12.044)" fill="#30C4FF"><path opacity=".326" d="M0 0h34.5v4.516H0zm0 9.033h19.5v4.516H0z"/><path d="M22.5 9.033H51v4.516H22.5z"/><path opacity=".326" d="M64.5 9.033H75v4.516H64.5zm13.5 0h18v4.516H78z"/><path d="M54 9.033h7.5v4.516H54z"/><path opacity=".326" d="M0 28.604h9v4.516H0z"/><path d="M12 28.604h49.5v4.516H12z"/><path opacity=".326" d="M64.5 28.604H96v4.516H64.5zM0 19.571h19.5v4.516H0zm46.5 0H96v4.516H46.5z"/><path d="M22.5 19.571h21v4.516h-21z"/><path opacity=".326" d="M37.5 0H51v4.516H37.5z"/><path d="M54 0h19.5v4.516H54z"/><path opacity=".326" d="M88.5 0H96v4.516h-7.5z"/><path d="M76.5 0H84v4.516h-7.5z"/></g><path d="M24 82.802h88.074c9.941 0 18 8.06 18 18v4.89c0 9.941-8.059 18-18 18H24c-9.941 0-18-8.059-18-18v-4.89c0-9.94 8.059-18 18-18z" fill="url(#g)"/><rect fill="#22385D" x="6" y="76.78" width="124.074" height="27.88" rx="4.5"/><rect fill="url(#h)" y="55.555" width="137.037" height="45.165" rx="10.5"/><ellipse fill="#0C1321" fill-rule="nonzero" opacity=".6" cx="32.815" cy="78.1" rx="14.815" ry="14.869"/><use fill="#000" filter="url(#i)" xlink:href="#j"/><use stroke="#32C5FF" stroke-width="2.4" xlink:href="#j"/><ellipse fill="#0C1321" fill-rule="nonzero" opacity=".6" cx="66.75" cy="80.544" rx="8.25" ry="8.28"/><ellipse fill="#0C1321" fill-rule="nonzero" opacity=".6" cx="90.75" cy="80.544" rx="8.25" ry="8.28"/><ellipse fill="#0C1321" fill-rule="nonzero" opacity=".6" cx="114.75" cy="80.544" rx="8.25" ry="8.28"/></g><path d="M121.057 87.539l-2.89 2.436a44.375 44.375 0 00-46.552 1.767v-4.207c-9.581 9.591-33.531 28.768-28.74 47.944 2.433 9.746 9.816 12.06 16.49 10.722a104.513 104.513 0 008.234 14.732h57.48a126.223 126.223 0 007.981-14.782c6.74 1.448 14.28-.802 16.746-10.672 4.786-19.176-19.172-38.353-28.749-47.94z" fill="url(#k)" fill-rule="nonzero" transform="rotate(13 2.386 860.923)"/><path d="M121.057 87.539l-2.89 2.436a44.375 44.375 0 00-46.552 1.767v-4.207c-9.581 9.591-33.531 28.768-28.74 47.944 2.433 9.746 9.816 12.06 16.49 10.722a104.513 104.513 0 008.234 14.732h57.48a126.223 126.223 0 007.981-14.782c6.74 1.448 14.28-.802 16.746-10.672 4.786-19.176-19.172-38.353-28.749-47.94z" fill="url(#l)" fill-rule="nonzero" transform="rotate(13 2.386 860.923)"/><path d="M121.057 87.539l-2.89 2.436a44.375 44.375 0 00-46.552 1.767v-4.207c-9.581 9.591-33.531 28.768-28.74 47.944 2.433 9.746 9.816 12.06 16.49 10.722a104.513 104.513 0 008.234 14.732h57.48a126.223 126.223 0 007.981-14.782c6.74 1.448 14.28-.802 16.746-10.672 4.786-19.176-19.172-38.353-28.749-47.94z" fill="url(#m)" opacity=".705" transform="rotate(13 2.386 860.923)"/><path fill="url(#n)" transform="scale(-1 1) rotate(-13 89.495 1667.35)" d="M53.127 96.05l9.07-6.201 51.251 9.549 23.448 14.546-16.504 18.307-48.67 1.671-24.856-31.39z"/><path d="M133.734 84.344a35.709 35.709 0 01-4.188 5.119 827.336 827.336 0 01-11.264 13.81l-.633.755c-.317.379-.636.757-.954 1.135l-.637.754-.319.376c-3.944 4.64-3.833 8.78.479 10.219 4.545 1.516 9.255-3.996 9.255-3.996l11.423-9.984s-6.644 29.161-30.586 29.161c-9.958 0-22.438-6.634-28.74-14.382-6.784-8.359-8.42-19.046-8.81-23.568a36.544 36.544 0 01-6.701-6.284c9.204 5.595 20.866 8.938 33.552 8.938 14.876 0 28.344-4.597 38.092-12.03z" fill="url(#o)" opacity=".204" transform="rotate(13 2.386 860.923)"/><path d="M108.18 141.757c0 10.59 7.624 19.176 17.033 19.176 9.41 0 17.033-8.585 17.033-19.176 0-10.591-7.626-19.177-17.033-19.177s-17.033 8.588-17.033 19.177z" fill="url(#p)" fill-rule="nonzero" transform="rotate(13 2.386 860.923)"/><path d="M108.18 141.757c0 10.59 7.624 19.176 17.033 19.176 9.41 0 17.033-8.585 17.033-19.176 0-10.591-7.626-19.177-17.033-19.177s-17.033 8.588-17.033 19.177z" fill="url(#q)" opacity=".705" transform="rotate(13 2.386 860.923)"/><path d="M118.026 147.084a7.484 7.484 0 004.583 6.933 7.429 7.429 0 008.13-1.606 7.507 7.507 0 001.627-8.158 7.452 7.452 0 00-6.888-4.626 7.422 7.422 0 00-5.264 2.178 7.486 7.486 0 00-2.188 5.28z" fill="url(#r)" opacity=".3" transform="rotate(13 2.386 860.923)"/><path d="M50.432 141.757c0 10.59 7.624 19.176 17.033 19.176 9.41 0 17.033-8.585 17.033-19.176 0-10.591-7.626-19.177-17.033-19.177s-17.033 8.588-17.033 19.177z" fill="url(#p)" fill-rule="nonzero" transform="rotate(13 2.386 860.923)"/><path d="M50.432 141.757c0 10.59 7.624 19.176 17.033 19.176 9.41 0 17.033-8.585 17.033-19.176 0-10.591-7.626-19.177-17.033-19.177s-17.033 8.588-17.033 19.177z" fill="url(#q)" opacity=".705" transform="rotate(13 2.386 860.923)"/><path d="M60.278 147.084a7.484 7.484 0 004.582 6.933 7.429 7.429 0 008.13-1.606 7.507 7.507 0 001.627-8.158 7.452 7.452 0 00-6.887-4.626 7.422 7.422 0 00-5.264 2.178 7.486 7.486 0 00-2.188 5.28z" fill="url(#r)" opacity=".3" transform="rotate(13 2.386 860.923)"/><g transform="rotate(2 -1402.534 5372.44)"><path d="M87.33 45.544c0 25.154 17.979 45.546 43.112 45.546 25.133 0 29.399-18.337 33.53-43.147C168.764 19.177 157.97 0 132.837 0c-25.09-.042-45.463 20.349-45.506 45.544z" fill="url(#s)" fill-rule="nonzero"/><path d="M87.33 45.544c0 25.154 17.979 45.546 43.112 45.546 25.133 0 29.399-18.337 33.53-43.147C168.764 19.177 157.97 0 132.837 0c-25.09-.042-45.463 20.349-45.506 45.544z" fill="url(#s)" fill-rule="nonzero"/><path d="M87.33 45.544c0 25.154 17.979 45.546 43.112 45.546 25.133 0 29.399-18.337 33.53-43.147C168.764 19.177 157.97 0 132.837 0c-25.09-.042-45.463 20.349-45.506 45.544z" fill="url(#t)" opacity=".705"/><path d="M130.442 76.706c8.368 0 10.714-2.678 12.402-5.423 3.392-5.51 5.221-15.304 6.955-25.707 1.963-11.791.694-21.382-3.481-26.315-4.13-4.879-11.167-4.879-13.48-4.879-17.158-.007-31.085 13.932-31.136 31.162a32.726 32.726 0 008.297 22.427 27.135 27.135 0 0020.443 8.735z" fill="url(#u)"/><path d="M77.751 45.544c0 25.154-17.978 45.544-43.111 45.544-25.133 0-29.399-18.335-33.531-43.145C-3.681 19.177 7.112 0 32.244 0A45.333 45.333 0 0164.39 13.307a45.72 45.72 0 0113.361 32.237z" fill="url(#v)" fill-rule="nonzero"/><path d="M77.751 45.544c0 25.154-17.978 45.544-43.111 45.544-25.133 0-29.399-18.335-33.531-43.145C-3.681 19.177 7.112 0 32.244 0A45.333 45.333 0 0164.39 13.307a45.72 45.72 0 0113.361 32.237z" fill="url(#w)" opacity=".705"/><path d="M34.64 76.706c-8.368 0-10.714-2.678-12.402-5.423-3.392-5.51-5.222-15.304-6.955-25.707-1.964-11.789-.705-21.376 3.485-26.315 4.126-4.879 11.173-4.879 13.476-4.879C49.4 14.375 63.329 28.314 63.38 45.544a32.726 32.726 0 01-8.3 22.427 27.135 27.135 0 01-20.44 8.735z" fill="url(#x)"/><path d="M34.64 76.706c-8.368 0-10.714-2.678-12.402-5.423-3.392-5.51-5.222-15.304-6.955-25.707-1.964-11.789-.705-21.376 3.485-26.315 4.126-4.879 11.173-4.879 13.476-4.879C49.4 14.375 63.329 28.314 63.38 45.544a32.726 32.726 0 01-8.3 22.427 27.135 27.135 0 01-20.44 8.735z" fill="url(#x)"/><path d="M102.02 95.086c-4.31-1.439-4.423-5.578-.478-10.219 5.84-6.884 11.787-14.298 13.806-16.83a35.823 35.823 0 0010.304-24.879c.002-21.192-19.3-38.363-43.11-38.363S39.43 21.965 39.43 43.148c.174 11.577 5.785 22.392 15.134 29.169.389 4.522 2.025 15.209 8.808 23.568 6.303 7.748 18.783 14.382 28.74 14.382 23.943 0 28.741-14.382 28.741-14.382l-9.577-4.795s-4.71 5.512-9.255 3.996z" fill="url(#y)" fill-rule="nonzero"/><path d="M102.02 95.086c-4.31-1.439-4.423-5.578-.478-10.219 5.84-6.884 11.787-14.298 13.806-16.83a35.823 35.823 0 0010.304-24.879c.002-21.192-19.3-38.363-43.11-38.363S39.43 21.965 39.43 43.148c.174 11.577 5.785 22.392 15.134 29.169.389 4.522 2.025 15.209 8.808 23.568 6.303 7.748 18.783 14.382 28.74 14.382 23.943 0 28.741-14.382 28.741-14.382l-9.577-4.795s-4.71 5.512-9.255 3.996z" fill="url(#z)" opacity=".705"/><path d="M102.02 95.086c-4.31-1.439-4.423-5.578-.478-10.219 5.84-6.884 11.787-14.298 13.806-16.83a35.823 35.823 0 0010.304-24.879c.002-21.192-19.3-38.363-43.11-38.363S39.43 21.965 39.43 43.148c.174 11.577 5.785 22.392 15.134 29.169.389 4.522 2.025 15.209 8.808 23.568 6.303 7.748 18.783 14.382 28.74 14.382 23.943 0 28.741-14.382 28.741-14.382l-9.577-4.795s-4.71 5.512-9.255 3.996z" fill="url(#A)" opacity=".705"/><path d="M113.268 19.37l17.96 2.113c-3.279 9.395-4.361 16.042-3.248 19.94 1.114 3.897.044 3.303-3.21-1.783l-11.502-20.27z" fill="url(#B)" transform="rotate(-180 122.247 31.665)"/><ellipse fill="#10192A" fill-rule="nonzero" cx="62.928" cy="55.227" rx="3.593" ry="3.596"/><ellipse fill="#10192A" fill-rule="nonzero" cx="101.895" cy="56.324" rx="3.593" ry="3.596"/></g><g transform="rotate(3 -1265.664 4057.942)"><circle fill="url(#C)" opacity=".398" transform="rotate(45 84.71 30.62)" cx="84.711" cy="30.62" r="20.994"/><path d="M85.672 36.373c6.938 0 13.087-3.386 16.9-8.603.04.525.06 1.055.06 1.59 0 11.62-9.38 21.038-20.95 21.038-11.57 0-20.95-9.419-20.95-21.038 0-4.652 1.504-8.952 4.05-12.435.81 10.877 9.853 19.448 20.89 19.448z" fill="url(#D)" opacity=".309" transform="rotate(45 81.682 33.662)"/><circle fill="url(#C)" opacity=".398" transform="rotate(45 29.69 29.69)" cx="29.69" cy="29.69" r="20.994"/><path d="M30.651 35.442c6.937 0 13.087-3.386 16.9-8.602.04.524.06 1.055.06 1.59 0 11.619-9.38 21.038-20.95 21.038-11.57 0-20.95-9.42-20.95-21.038 0-4.653 1.504-8.952 4.05-12.436.81 10.877 9.853 19.448 20.89 19.448z" fill="url(#D)" opacity=".309" transform="rotate(45 26.66 32.731)"/><path d="M84.678 53.196c-8.891.013-16.972-5.278-20.674-13.539l-.017-.022-.052-.091c-.965-1.663-1.937-5.047-2.718-7.768-.328-1.35-.76-2.67-1.293-3.95-.74-1.222-2.604-1.33-2.62-1.331-.016-.001-1.88.108-2.62 1.33-.533 1.28-.965 2.6-1.293 3.95-.782 2.72-1.753 6.105-2.719 7.769l-.053.091-.017.022c-3.448 7.657-10.679 12.81-18.902 13.468-8.224.659-16.152-3.279-20.726-10.293l-.007.007a15.775 15.775 0 01-1.757-3.226 22.952 22.952 0 01-1.328-3.78c-.387-1.326-.718-2.637-1.014-3.792a16.376 16.376 0 00-1.32-4.12c-.794-.952-2.888-1.055-3.751-1.055-.27 0-.443.01-.462.011v-5.891c1-.058 1.991-.21 2.964-.451a9.312 9.312 0 004.787-2.59 49.653 49.653 0 016.691-5.825l.028-.022c.473-.383.92-.743 1.42-1.084l-.034-.023A22.074 22.074 0 0129.86 7.114a22.467 22.467 0 018.89 1.819 22.555 22.555 0 017.258 4.954c1.627 1.55 3.098 3.245 4.517 4.88l.005.005c.311.359.633.734.952 1.094a3.797 3.797 0 002.935 1.615 7.93 7.93 0 001.277-.14 7.799 7.799 0 013.216 0 7.93 7.93 0 001.277.14c.753 0 1.69-.191 2.936-1.615.322-.367.647-.743.962-1.106l.005-.005c1.418-1.634 2.884-3.325 4.511-4.863 7.674-7.798 19.656-9.009 28.677-2.9l.031.022c.476.323.96.686 1.48 1.106a50.094 50.094 0 016.61 5.825 8.819 8.819 0 004.746 2.59c.958.24 1.935.392 2.92.451v5.891c-.006 0-.18-.01-.449-.01-.837 0-2.873.102-3.663 1.055-.586 1.24-1 2.559-1.23 3.916-.3 1.214-.64 2.59-1.049 3.994a23.057 23.057 0 01-1.305 3.779 15.503 15.503 0 01-1.744 3.227v-.007c-4.213 6.486-11.33 10.379-18.947 10.365zm0-42.947c-7.861-.012-14.97 4.773-18.061 12.158-3.107 7.468-1.442 16.116 4.201 21.824 4.618 4.695 11.212 6.748 17.607 5.48 6.395-1.268 11.76-5.692 14.323-11.81 3.107-7.468 1.442-16.116-4.202-21.825-3.683-3.743-8.67-5.84-13.864-5.83l-.004.003zm-54.75 0c-7.862-.014-14.973 4.772-18.065 12.158-3.107 7.467-1.444 16.115 4.199 21.824 4.617 4.696 11.212 6.748 17.607 5.48 6.395-1.268 11.76-5.691 14.323-11.81 3.106-7.466 1.442-16.112-4.199-21.82-3.683-3.744-8.67-5.841-13.864-5.832z" stroke="#152238" stroke-width="2" fill="#152238"/></g><g transform="rotate(19 -131.431 1237.933)"><ellipse fill="#000" opacity=".457" filter="url(#E)" cx="56.043" cy="129.146" rx="52.887" ry="9.586"/><ellipse fill="#000" opacity=".759" filter="url(#F)" cx="57.475" cy="134.14" rx="37.703" ry="4.86"/><path d="M23.961 66.993h67.146c6.484 0 11.74 5.257 11.74 11.741v30.264c0 16.033-12.997 29.03-29.03 29.03H41.2c-16.033 0-29.03-12.997-29.03-29.03V78.785c0-6.512 5.279-11.792 11.791-11.792z" fill="url(#G)" fill-rule="nonzero"/><path d="M23.961 66.993h67.146c6.484 0 11.74 5.257 11.74 11.741v30.264c0 16.033-12.997 29.03-29.03 29.03H41.2c-16.033 0-29.03-12.997-29.03-29.03V78.785c0-6.512 5.279-11.792 11.791-11.792z" fill="url(#H)" opacity=".705"/><path d="M57.508 89.427c25.04 0 45.34-.235 45.34-9.144 0-8.908-20.3-16.13-45.34-16.13-25.04 0-45.339 7.222-45.339 16.13 0 8.909 20.3 9.144 45.34 9.144z" fill="url(#I)" fill-rule="nonzero"/><path d="M57.508 89.427c25.04 0 45.34-.235 45.34-9.144 0-8.908-20.3-16.13-45.34-16.13-25.04 0-45.339 7.222-45.339 16.13 0 8.909 20.3 9.144 45.34 9.144z" fill="url(#J)" opacity=".705"/><path d="M57.508 83.594c12.916 0 23.386-.18 23.386-7.033 0-6.852-10.47-12.407-23.386-12.407-12.915 0-23.385 5.555-23.385 12.407 0 6.853 10.47 7.033 23.385 7.033z" fill="#16243A" fill-rule="nonzero"/><g transform="scale(-1 1) rotate(-4 1213.216 344.008)"><ellipse fill="url(#K)" opacity=".899" filter="url(#L)" transform="rotate(-81 7.452 7.546)" cx="7.452" cy="7.546" rx="6.611" ry="6.497"/><path d="M5.734 3.767c-9.8.642-3.804 9.979-4.978 18.49-1.041 7.544 4.516 15.43 10.306 12.971" stroke="url(#M)" stroke-width="2.963" transform="scale(-1 1) rotate(-8 23.957 133.151)"/><g transform="scale(-1 1) rotate(82 -5.373 -2.612)"><rect fill="#1B283E" x="1.74" y="1.653" width="4.639" height="4.96" rx="2.319"/><rect fill="url(#N)" width="8.118" height="3.307" rx="1.653"/></g></g><g transform="rotate(-4 1270.708 -1302.341)"><ellipse fill="url(#K)" opacity=".899" filter="url(#O)" transform="rotate(-81 7.452 7.546)" cx="7.452" cy="7.546" rx="6.611" ry="6.497"/><path d="M5.734 3.767c-9.8.642-3.804 9.979-4.978 18.49-1.041 7.544 4.516 15.43 10.306 12.971" stroke="url(#M)" stroke-width="2.963" transform="scale(-1 1) rotate(-8 23.957 133.151)"/><g transform="scale(-1 1) rotate(82 -5.373 -2.612)"><rect fill="#1B283E" x="1.74" y="1.653" width="4.639" height="4.96" rx="2.319"/><rect fill="url(#N)" width="8.118" height="3.307" rx="1.653"/></g></g><path d="M49.582 48.601h16.542a7.823 7.823 0 017.823 7.824v19.233a4.47 4.47 0 01-4.47 4.47H46.23a4.47 4.47 0 01-4.47-4.47V56.425a7.823 7.823 0 017.822-7.824z" fill="url(#P)"/><path d="M49.582 48.601h16.542a7.823 7.823 0 017.823 7.824v19.233a4.47 4.47 0 01-4.47 4.47H46.23a4.47 4.47 0 01-4.47-4.47V56.425a7.823 7.823 0 017.822-7.824z" fill="url(#Q)" opacity=".447"/><path d="M55.839 69.986c30.838 0 55.838-.65 55.838-25.32 0-24.668-25-44.666-55.838-44.666C24.999 0 0 19.998 0 44.667c0 24.668 25 25.319 55.839 25.319z" fill="url(#R)" fill-rule="nonzero" transform="translate(1.67)"/><path d="M55.839 69.986c30.838 0 55.838-.65 55.838-25.32 0-24.668-25-44.666-55.838-44.666C24.999 0 0 19.998 0 44.667c0 24.668 25 25.319 55.839 25.319z" fill="url(#S)" opacity=".705" transform="translate(1.67)"/><path d="M55.839 69.986c30.838 0 55.838-.65 55.838-25.32 0-24.668-25-44.666-55.838-44.666C24.999 0 0 19.998 0 44.667c0 24.668 25 25.319 55.839 25.319z" fill="url(#T)" opacity=".705" transform="translate(1.67)"/><g transform="translate(13.124 6.804)"><mask id="V" fill="#fff"><use xlink:href="#U"/></mask><use fill="#192841" fill-rule="nonzero" opacity=".736" xlink:href="#U"/><g fill-rule="nonzero" mask="url(#V)"><use fill="#000" filter="url(#W)" xlink:href="#X"/><use fill="url(#Y)" xlink:href="#X"/></g><path d="M44.384 0c17.119 0 31.973 7.856 39.378 19.363-6.61-3.167-14.318-4.984-22.55-4.984-24.513 0-44.384 16.11-44.384 35.982 0 1.574.124 3.027.366 4.368C6.733 52.56 0 47.549 0 35.98 0 16.11 19.872 0 44.384 0z" fill="url(#Z)" fill-rule="nonzero" opacity=".195" mask="url(#V)"/></g><g fill-rule="nonzero"><g transform="translate(27.442 104.007)"><use fill="#000" filter="url(#aa)" xlink:href="#ab"/><use fill="url(#ac)" xlink:href="#ab"/></g><g transform="translate(27.442 104.007)"><use fill="#000" filter="url(#ad)" xlink:href="#ae"/><use fill="url(#af)" xlink:href="#ae"/></g><path d="M28.999 109.628h56.256a1.536 1.536 0 110 3.071H29a1.536 1.536 0 010-3.07zm-.022 5.636h56.257a1.536 1.536 0 110 3.07H28.977a1.536 1.536 0 110-3.07z" fill="#16243A"/><g transform="translate(27.442 104.007)"><use fill="#000" filter="url(#ag)" xlink:href="#ah"/><use fill="url(#ai)" xlink:href="#ah"/></g><path d="M28.977 120.983h56.257a1.536 1.536 0 110 3.07H28.977a1.536 1.536 0 010-3.07z" fill="#16243A"/></g></g><g fill-rule="nonzero" stroke-width=".685"><path d="M76.033 3.351c0-.35-.13-.66-.39-.928L73.692.404c-.26-.27-.56-.404-.898-.404-.338 0-.637.135-.897.404L53.714 19.218a1.297 1.297 0 000 1.857l18.183 18.813c.26.27.559.404.897.404.339 0 .638-.135.898-.404l1.95-2.017a1.298 1.298 0 000-1.857L60.31 20.146 75.643 4.28c.26-.269.39-.579.39-.929z" stroke="url(#aj)" transform="rotate(-161 228.26 44.48)"/><path d="M22.71 3.351c0-.35-.13-.66-.39-.928L20.367.404c-.26-.27-.56-.404-.898-.404-.338 0-.637.135-.897.404L.39 19.218a1.297 1.297 0 000 1.857l18.183 18.813c.26.27.559.404.897.404.339 0 .638-.135.898-.404l1.951-2.017a1.298 1.298 0 000-1.857L6.985 20.146 22.319 4.28c.26-.269.39-.579.39-.929z" stroke="url(#ak)" transform="rotate(19 -80.738 997.665)"/><path d="M41.854 6.123l-1.753-.474a.81.81 0 00-.663.065.88.88 0 00-.435.53L28.658 41.417a.796.796 0 00.075.67c.123.21.307.351.552.425l1.753.474a.808.808 0 00.664-.065.881.881 0 00.434-.529L42.481 7.218a.797.797 0 00-.074-.67.925.925 0 00-.553-.425z" stroke="url(#al)" opacity=".238" transform="rotate(27 1.544 716.541)"/></g><g transform="rotate(19 -120.411 901.36)"><path d="M51.463 9.632c7.993-6.007 24.541-5.415 32.08 0 3.46 2.486 5.989 9.664 5.989 9.664s16.69 3.42 22.54 8.21c0 .833-5.355.942-6.752.956l.5.37c1.158.523 3.402 1.552 5.896 2.792l.626.313c3.887 1.956 8.197 4.35 9.89 6.107 0 .826-4.116.703-5.253.653.178.183.35.365.521.546.011.01.024.018.037.028l.378.27c3.269 2.349 12.252 9.214 16.736 16.706l.308.32-7.62-2.186-.009.412c.507 1.392 2.052 5.707 3.354 10.207l.189.658c.093.33.184.659.273.987l.176.656c.201.764.39 1.519.558 2.252-.67 1.388-3.655-.017-5.25-.897a212.17 212.17 0 01-.229 2.716c1.102 4.936 3.004 14.542 3.221 22.877-.923.639-5.234-4.79-5.234-4.79s.23 3.339.409 6.592l.032.59c.098 1.86.175 3.622.175 4.633-.262-.135-.904-1.006-1.557-1.965l-.28-.414a88.62 88.62 0 01-1.11-1.71 72.252 72.252 0 01-.64 2.148c-.16 20.582-109.543 15.703-109.392-5.264-.228-.937-.444-1.888-.65-2.846-.976 1.903-2.255 4.391-3.37 6.539-2.361-8.818-.557-21.767.412-27.324-.044-.509-.085-1.011-.125-1.508-.14.243-.299.505-.47.77l-.15.229c-.025.038-.05.076-.077.113l-.158.226c-1.068 1.491-2.436 2.678-3.126.35 0-7.665 3.228-18.19 3.228-18.19S2.463 58.802 0 56.887c3.135-6.504 11.645-13.007 16.052-16.07a85.57 85.57 0 011.425-1.552c-1.872.314-5.072.595-4.853-1.22 4.158-3.552 12.592-7.306 15.883-8.698.246-.188.496-.376.746-.563h-9.548c4.618-5.429 25.768-9.487 25.768-9.487s2.582-7.102 5.99-9.664z" fill="url(#am)"/><path d="M67.202 5.86c6.118 0 12.245 1.463 16.04 4.19 3.306 2.374 5.712 9.156 5.803 9.41 1.71.617 16.102 3.678 22.088 7.975a3.278 3.278 0 01-.875.223c-1.67.236-4.077.28-4.943.29l-1.542.015 1.243.913.496.368c1.25.578 3.489 1.604 5.974 2.84l.625.312c3.514 1.769 7.388 3.893 9.29 5.568a1.88 1.88 0 01-.586.151c-1.278.159-3.117.099-3.814.068l-1.295-.057.904.93c.177.18.347.36.516.54 3.548 2.56 11.782 8.835 16.403 15.834l-6.905-1.762c.08.326.152.612.218.85.212.766.61 1.98 1.1 3.47.664 2.024 1.497 4.559 2.248 7.154l.188.656c.092.328.183.655.272.98l.175.654c.18.684.35 1.36.504 2.021-.452.196-.748.18-1.071.125-1.101-.188-2.474-.873-3.379-1.372a23.086 23.086 0 01-.699-.402 234.62 234.62 0 01-.291 3.521c1.09 4.996 2.943 14.336 3.207 22.54-1.146-.198-4.305-4.726-4.305-4.726s-.482-.69-1.056-1.599c.086 1.173.14 1.954.14 1.954s.23 3.336.408 6.585l.032.59c.062 1.161.115 2.285.146 3.209-.184-.262-.383-.557-.587-.855a94.376 94.376 0 01-2.005-3.108 72.7 72.7 0 01-.942 3.264c-.04 2.315-1.389 4.153-3.683 5.718-2.62 1.787-6.467 3.214-11.151 4.311-10.51 2.462-25.2 3.247-39.843 2.542-14.523-.699-29-2.862-39.304-6.321-4.586-1.54-8.34-3.332-10.883-5.373-2.242-1.8-3.54-3.787-3.523-5.983a223.697 223.697 0 01-.662-2.958c-.102-.476-.2-.95-.296-1.424a2327.33 2327.33 0 01-2.447 4.764L8.5 95.686l-.317.612c-1.847-8.673-.173-20.534.74-25.772-.037-.64-.079-1.142-.119-1.637l-.132-1.645-.826 1.429c-.135.233-.287.486-.452.742-.695.985-1.342 1.802-1.917 1.952-.421-.219-.542-.47-.652-.826.021-7.595 3.206-17.962 3.206-17.962s.508-1.653 1.388-4.041c-.943 1.884-2.282 3.57-2.282 3.57s-2.183 2.75-4.35 4.03c-.523.31-1.044.535-1.528.583-.2.02-.395.008-.576-.05 3.26-6.282 11.406-12.474 15.663-15.433.542-.584 1.012-1.098 1.505-1.622.39-.415.776-.815 1.157-1.204-.561.152-1.134.263-1.617.345-1.044.175-2.529.354-3.524.104-.263-.067-.493-.157-.632-.32 4.077-3.73 12.256-7.36 15.472-8.722.549-.232 1.245-.521 2.049-.845l-9.88-.631C26.648 23.376 45.57 19.8 45.57 19.8c.387-.33 2.88-7.26 6.202-9.758C55.589 7.175 61.4 5.86 67.202 5.86z" stroke="url(#an)" stroke-width="1.029" fill="url(#ao)"/><path d="M51.463 9.632c7.993-6.007 24.541-5.415 32.08 0 3.46 2.486 5.989 9.664 5.989 9.664s16.69 3.42 22.54 8.21c0 .833-5.355.942-6.752.956l.5.37c1.158.523 3.402 1.552 5.896 2.792l.626.313c3.887 1.956 8.197 4.35 9.89 6.107 0 .826-4.116.703-5.253.653.178.183.35.365.521.546.011.01.024.018.037.028l.378.27c3.269 2.349 12.252 9.214 16.736 16.706l.308.32-7.62-2.186-.009.412c.507 1.392 2.052 5.707 3.354 10.207l.189.658c.093.33.184.659.273.987l.176.656c.201.764.39 1.519.558 2.252-.67 1.388-3.655-.017-5.25-.897a212.17 212.17 0 01-.229 2.716c1.102 4.936 3.004 14.542 3.221 22.877-.923.639-5.234-4.79-5.234-4.79s.23 3.339.409 6.592l.032.59c.098 1.86.175 3.622.175 4.633-.262-.135-.904-1.006-1.557-1.965l-.28-.414a88.62 88.62 0 01-1.11-1.71 72.252 72.252 0 01-.64 2.148c-.16 20.582-109.543 15.703-109.392-5.264-.228-.937-.444-1.888-.65-2.846-.976 1.903-2.255 4.391-3.37 6.539-2.361-8.818-.557-21.767.412-27.324-.044-.509-.085-1.011-.125-1.508-.14.243-.299.505-.47.77l-.15.229c-.025.038-.05.076-.077.113l-.158.226c-1.068 1.491-2.436 2.678-3.126.35 0-7.665 3.228-18.19 3.228-18.19S2.463 58.802 0 56.887c3.135-6.504 11.645-13.007 16.052-16.07a85.57 85.57 0 011.425-1.552c-1.872.314-5.072.595-4.853-1.22 4.158-3.552 12.592-7.306 15.883-8.698.246-.188.496-.376.746-.563h-9.548c4.618-5.429 25.768-9.487 25.768-9.487s2.582-7.102 5.99-9.664z" fill="url(#ap)" opacity=".705"/><path d="M79.93 31.355c0 7.278-5.688 13.178-12.705 13.178-7.018 0-12.706-5.9-12.706-13.178 0-7.279 5.688-13.18 12.706-13.18 7.017 0 12.706 5.901 12.706 13.18" stroke="url(#aq)" stroke-width=".612" fill="#24385A"/><path d="M79.93 31.355c0 7.278-5.688 13.178-12.705 13.178-7.018 0-12.706-5.9-12.706-13.178 0-7.279 5.688-13.18 12.706-13.18 7.017 0 12.706 5.901 12.706 13.18" stroke="url(#ar)" stroke-width=".622" fill-opacity=".152" fill="#000"/><path d="M64.964 24.832s-.519.06-1.262.295c-1.626.513-4.33 1.863-5.043 5.252-.034.496-.037 1 .013 1.494.157 1.567.949 2.912 2.1 3.963 1.542 1.408 3.73 2.291 5.905 2.48 3.36.289 6.69-1.08 7.571-4.737.091-.375.162-.736.224-1.089.197-2.066-.136-3.717-.879-4.965a5.463 5.463 0 00-.819-1.058c-1.25-1.258-3.097-1.876-5.298-1.876-.795 0-1.636.08-2.512.24" fill="#76E2FF"/><path d="M62.55 27.104s-1.153.132-1.92 1.002c-.413.469-.714 1.152-.66 2.146.035.67.361 1.244.846 1.688.412.375.94.658 1.503.826 1.17.348 2.497.204 3.28-.613.275-.286.482-.655.593-1.114a5.567 5.567 0 00.172-1.446c-.021-.8-.274-1.41-.698-1.837-.458-.46-1.117-.707-1.901-.744a5.572 5.572 0 00-1.215.091" fill="url(#as)"/><path d="M65.926 30.104c0 .529-.414.958-.924.958s-.924-.429-.924-.958c0-.53.414-.958.924-.958s.924.429.924.958" fill="#ECECEC"/><path d="M80.518 70.562c-2.214.93-4.725.773-6.888-.431-.925-.515-1.308-1.725-.856-2.702.452-.977 1.568-1.351 2.494-.837 1.194.665 2.579.752 3.8.24 1.22-.513 2.158-1.575 2.573-2.916.321-1.038 1.375-1.575 2.353-1.198.978.376 1.511 1.523 1.19 2.561-.751 2.428-2.452 4.353-4.666 5.283z" fill="#1C2737" fill-rule="nonzero"/><mask id="au" fill="#fff"><use xlink:href="#at"/></mask><path d="M56.532 51.411s-1.547-2.36-3.102-3.015c-.467-.197-.935-.24-1.362-.019-.572.297-.701 1.007-.607 1.846.21 1.87 1.53 4.382 1.53 4.382a8.72 8.72 0 01.825-.674c2.365-1.707 5.471-2.298 6.597-2.464.273-.04.43-.056.43-.056s-.152-.47-.482-1.065a6.209 6.209 0 00-.747-1.077c-.37-.423-.83-.81-1.388-1.051a1.155 1.155 0 00-.456-.106c-1.365 0-1.238 3.3-1.238 3.3" mask="url(#au)"/><mask id="aw" fill="#fff"><use xlink:href="#av"/></mask><path d="M79.97 49.257c-.574.201-1.058.555-1.455.951a6.76 6.76 0 00-1.366 2.05s.155.027.426.086c1.038.229 3.777.949 5.965 2.565.44.325.857.687 1.234 1.087 0 0 1.57-2.555 1.84-4.424.09-.631.034-1.184-.282-1.534-.57-.633-1.508-.37-2.145-.015-1.41.783-2.737 2.539-2.737 2.539s.353-3.38-1.08-3.38c-.121 0-.254.023-.4.075" mask="url(#aw)"/></g><path d="M23.383 6.43C7.862 7.427-1.923 7.427.32 40.625" stroke="url(#ax)" stroke-width="4.629" transform="scale(1 -1) rotate(-74 -64.592 -133.399)"/><g transform="scale(1 -1) rotate(16 711.456 225.297)"><rect fill="#1B283E" x="2.755" y="2.572" width="7.348" height="7.715" rx="3.674"/><rect fill="url(#ay)" width="12.858" height="5.143" rx="2.572"/></g><path d="M35.984 12c-33.655-4.528-49.2 20.87-22.275 34.51" stroke="url(#az)" stroke-width="6.018" transform="rotate(169 230.78 165.377)"/><g transform="rotate(-101 343.072 -37.47)"><rect fill="#1B283E" x="7.194" y="3.355" width="9.612" height="10.065" rx="4.806"/><rect fill="url(#aA)" width="24" height="8" rx="4"/></g><path d="M101.676 155.596l142-19.957c8.595-1.208 16.541 4.78 17.75 13.375.114.82.165 1.648.15 2.477l-1.332 72.175c-.285 15.446-11.753 28.394-27.05 30.544l-88.758 12.474c-15.298 2.15-29.89-7.136-34.422-21.905L88.84 175.767c-2.546-8.297 2.117-17.087 10.414-19.633a15.715 15.715 0 012.422-.538z" fill="#1B283E"/><path d="M19.603 30.652h153.2c8.68 0 15.715 7.035 15.715 15.715 0 .914-.08 1.826-.238 2.727l-11.726 66.544c-2.647 15.022-15.7 25.975-30.953 25.975H46.806c-15.254 0-28.306-10.953-30.953-25.975L4.127 49.094C2.62 40.546 8.329 32.396 16.877 30.89c.9-.159 1.812-.238 2.726-.238z" fill="url(#aB)" transform="rotate(-8 902.89 -454.926)"/><path d="M19.603 30.652h153.2c8.68 0 15.715 7.035 15.715 15.715 0 .914-.08 1.826-.238 2.727l-11.726 66.544c-2.647 15.022-15.7 25.975-30.953 25.975H46.806c-15.254 0-28.306-10.953-30.953-25.975L4.127 49.094C2.62 40.546 8.329 32.396 16.877 30.89c.9-.159 1.812-.238 2.726-.238z" fill="url(#aB)" transform="rotate(-8 902.89 -454.926)"/><path d="M19.603 30.652h153.2c8.68 0 15.715 7.035 15.715 15.715 0 .914-.08 1.826-.238 2.727l-11.726 66.544c-2.647 15.022-15.7 25.975-30.953 25.975H46.806c-15.254 0-28.306-10.953-30.953-25.975L4.127 49.094C2.62 40.546 8.329 32.396 16.877 30.89c.9-.159 1.812-.238 2.726-.238z" fill="url(#aC)" opacity=".705" transform="rotate(-8 902.89 -454.926)"/><g transform="rotate(-7 1377.802 -1973.583)"><circle fill="url(#aD)" opacity=".899" filter="url(#aE)" transform="rotate(-81 12.001 12.001)" cx="12.001" cy="12.001" r="10.287"/><path d="M9.43 6C-6.093 7 3.404 21.522 1.543 34.76-.105 46.493 7.671 53.797 17.03 53.692" stroke="url(#aF)" stroke-width="4.629" transform="scale(-1 1) rotate(-8 38.149 214.441)"/><g transform="scale(-1 1) rotate(82 -8.66 -4.247)"><rect fill="#1B283E" x="2.755" y="2.572" width="7.348" height="7.715" rx="3.674"/><rect fill="url(#ay)" width="12.858" height="5.143" rx="2.572"/></g></g><path d="M134.536 200.175l88.325-12.413a2.388 2.388 0 01.664 4.73l-44.865 6.305-43.46 6.108a2.388 2.388 0 01-.664-4.73z" fill="#1B283E"/><g transform="rotate(-8 902.91 -453.439)"><use fill="#000" filter="url(#aG)" xlink:href="#aH"/><use fill="url(#aI)" xlink:href="#aH"/></g><path d="M138.208 217.32l88.325-12.414a2.388 2.388 0 01.665 4.73l-44.866 6.306-43.459 6.107a2.388 2.388 0 01-.665-4.73zm1.217 8.659l88.325-12.414a2.388 2.388 0 11.665 4.73l-44.866 6.306-43.459 6.108a2.388 2.388 0 11-.665-4.73z" fill="#1B283E"/><path d="M45.206 31.889h102.866c8.68 0 15.715 7.035 15.715 15.714 0 1.61-.247 3.21-.733 4.743l-1.528 4.828a31.43 31.43 0 01-29.964 21.945H61.717a31.43 31.43 0 01-29.964-21.945l-1.529-4.828c-2.62-8.274 1.965-17.105 10.24-19.725a15.715 15.715 0 014.742-.732z" fill="url(#aJ)" transform="rotate(-8 902.71 -458.754)"/><path d="M20.356 31.894h151.889c8.679 0 15.714 7.036 15.714 15.715 0 2.152-.441 4.28-1.298 6.255l-2.75 6.34a31.43 31.43 0 01-28.834 18.921H37.523A31.43 31.43 0 018.69 60.203l-2.75-6.34c-3.454-7.962.2-17.216 8.163-20.67a15.715 15.715 0 016.254-1.299z" fill="url(#aK)" transform="rotate(-8 902.667 -458.75)"/><path d="M20.356 31.894h151.889c8.679 0 15.714 7.036 15.714 15.715 0 2.152-.441 4.28-1.298 6.255l-2.75 6.34a31.43 31.43 0 01-28.834 18.921H37.523A31.43 31.43 0 018.69 60.203l-2.75-6.34c-3.454-7.962.2-17.216 8.163-20.67a15.715 15.715 0 016.254-1.299z" fill="url(#aL)" opacity=".705" transform="rotate(-8 902.667 -458.75)"/><path d="M264.894 142.219c.3 2.13.158 4.3-.415 6.374l-1.841 6.66a31.43 31.43 0 01-25.92 22.751l-116.41 16.36A31.43 31.43 0 0189.12 179.64l-3.606-5.895a15.656 15.656 0 01-2.053-11.02 13.575 13.575 0 002.468 8.84l1.847 2.61a31.43 31.43 0 0030.032 12.972l119.321-16.77a31.43 31.43 0 0025.294-20.747l1.055-3.019a13.63 13.63 0 00.632-6.394 13.677 13.677 0 00-.702-2.807 15.699 15.699 0 011.485 4.809z" fill="#1B283E" opacity=".504"/><path d="M153.067 148.373l42.29-5.943c3.764-.53 7.593.324 10.777 2.402l7.767 5.07a5.693 5.693 0 01-2.32 10.405l-69.183 9.723a5.693 5.693 0 01-5.098-9.362l6.07-7.015a15.715 15.715 0 019.697-5.28z" fill="#1B283E"/><g transform="rotate(-8 869.932 -976.342)"><path d="M12.379.016h26.537c6.75 0 12.223 5.472 12.223 12.222v29.83a6.984 6.984 0 01-6.985 6.984H7.14a6.984 6.984 0 01-6.984-6.985V12.238C.156 5.488 5.628.016 12.379.016z" fill="url(#aM)"/><circle fill="#1B283E" cx="24.698" cy="25.583" r="18.002"/></g><g transform="rotate(-7 1029.23 -1175.018)"><circle fill="#328AF1" opacity=".842" filter="url(#aN)" cx="19.287" cy="19.287" r="19.287"/><circle fill="url(#aO)" transform="scale(1 -1) rotate(4 594.75 0)" cx="19.699" cy="20.081" r="10.287"/><g style="mix-blend-mode:soft-light" fill="#FFF"><path d="M16.1 17.764l1.634 1.634a.935.935 0 01-1.322 1.323l-1.634-1.635a.935.935 0 011.322-1.322zm3.62 3.62l3.568 3.568a.935.935 0 11-1.322 1.323l-3.568-3.569a.935.935 0 011.322-1.322z"/><path d="M15.177 17.526l10.074-2.831a.893.893 0 011.107.64.938.938 0 01-.655 1.134L15.63 19.3a.893.893 0 01-1.107-.64.938.938 0 01.655-1.134z"/><path d="M21.757 25.428l2.831-10.074a.938.938 0 011.135-.655.893.893 0 01.64 1.107L23.532 25.88a.938.938 0 01-1.135.656.893.893 0 01-.64-1.108zm-.201-4.631l-3.746 3.745a.909.909 0 11-1.285-1.285l3.745-3.746a.909.909 0 011.286 1.286zm-5.487 5.487l-.615.614a.909.909 0 11-1.285-1.285l.614-.615a.909.909 0 011.286 1.286z"/></g><path d="M11.704 20.945a8.559 8.559 0 004.128 6.463 8.572 8.572 0 0110.68-13.191 8.572 8.572 0 00-14.808 6.727z" fill-opacity=".547" fill="#FFF" style="mix-blend-mode:lighten" opacity=".58"/></g><g transform="rotate(-16 193.087 -266.908)"><path d="M37.745 0h55.546c13.958 0 25.274 11.316 25.274 25.274v58.472c0 16.75-13.58 30.329-30.33 30.329H42.8c-16.75 0-30.329-13.58-30.329-30.33v-58.47C12.471 11.314 23.787 0 37.745 0z" fill="url(#aP)"/><path d="M37.745 0h55.546c13.958 0 25.274 11.316 25.274 25.274v58.472c0 16.75-13.58 30.329-30.33 30.329H42.8c-16.75 0-30.329-13.58-30.329-30.33v-58.47C12.471 11.314 23.787 0 37.745 0z" fill="url(#aQ)" opacity=".705"/><ellipse fill="url(#aR)" cx="34.555" cy="9.759" rx="3.341" ry="3.395"/><path d="M14.554 70.928c0 16.75 13.578 30.329 30.329 30.329h41.386c16.75 0 30.329-13.58 30.329-30.33v13.71c0 16.75-13.579 30.329-30.33 30.329H44.884c-16.75 0-30.33-13.58-30.33-30.33z" fill="url(#aS)" opacity=".405"/><g transform="translate(22.884 16.973)"><use fill="#1B283E" xlink:href="#aT"/><mask id="aW" fill="#fff"><use xlink:href="#aU"/></mask><use fill="url(#aV)" opacity=".705" xlink:href="#aU"/><g fill-rule="nonzero" mask="url(#aW)" transform="rotate(-16 53.252 64.984)"><use fill="#000" filter="url(#aX)" xlink:href="#aY"/><use fill="url(#aZ)" xlink:href="#aY"/></g><mask id="bd" fill="#fff"><use xlink:href="#ba"/></mask><path stroke="url(#bb)" stroke-width="1.8" d="M74.252.9a10.86 10.86 0 017.703 3.191 10.86 10.86 0 013.191 7.704v50.092c0 2.245-.688 4.374-1.9 6.147a10.883 10.883 0 01-5.037 4.003c-7.368 2.873-18.607 4.29-33.708 4.29-16.025 0-28.235-1.6-36.624-4.831a10.882 10.882 0 01-5.065-4.001A10.882 10.882 0 01.9 61.33V11.795A10.86 10.86 0 014.091 4.09 10.86 10.86 0 0111.795.9z"/><ellipse fill="url(#bc)" mask="url(#bd)" cx="24.224" cy="14.427" rx="47.612" ry="48.373"/></g><g fill-rule="nonzero"><use fill="#000" filter="url(#be)" xlink:href="#bf"/><use fill="url(#bg)" xlink:href="#bf"/></g><path d="M76.88 12.05h-2.685c-.735 0-1.33-.607-1.33-1.357s.595-1.358 1.33-1.358h2.685c.735 0 1.33.608 1.33 1.358 0 .75-.595 1.358-1.33 1.358zm5.012-3.733h-2.685c-.735 0-1.33-.608-1.33-1.358 0-.75.595-1.358 1.33-1.358h2.685c.734 0 1.33.608 1.33 1.358 0 .75-.596 1.358-1.33 1.358zm13.696 3.733H80.887c-.74 0-1.34-.607-1.34-1.357s.6-1.358 1.34-1.358H95.58c.74 0 1.34.608 1.34 1.358 0 .75-.6 1.358-1.34 1.358h.007zm4.952-3.733H85.952c-.769 0-1.392-.608-1.392-1.358 0-.75.623-1.358 1.392-1.358h14.59c.769 0 1.392.608 1.392 1.358 0 .75-.623 1.358-1.392 1.358z" fill="#243552"/><g transform="rotate(-1 1524.333 -501.674)"><mask id="bk" fill="#fff"><use xlink:href="#bh"/></mask><use fill="url(#bi)" opacity=".398" xlink:href="#bh"/><path fill="url(#bj)" opacity=".309" mask="url(#bk)" d="M23.471 2.631L4.787 38.233l14.817 9.37L38.489 7.627z"/></g><g transform="rotate(-1 1492.38 -4163.204)"><mask id="bm" fill="#fff"><use xlink:href="#bl"/></mask><use fill="url(#bi)" opacity=".398" xlink:href="#bl"/><path fill="url(#bj)" opacity=".309" mask="url(#bm)" d="M23.342 2.631L4.657 38.233l14.818 9.37L38.359 7.627z"/></g><path d="M97.851 72.763c-12.603.22-22.996-9.747-23.215-22.261-.218-12.515 9.821-22.838 22.424-23.058 12.603-.22 22.996 9.746 23.215 22.26.218 12.516-9.821 22.84-22.424 23.06zm-63.72 1.113c-12.603.22-22.996-9.747-23.214-22.262-.219-12.515 9.82-22.838 22.423-23.058 12.604-.22 22.996 9.747 23.215 22.261.218 12.515-9.82 22.839-22.424 23.059zm87.2-38.092c-1.945-2.151-5.614-4.917-7.81-6.497a26.357 26.357 0 00-1.743-1.23l-.038-.027v.003a26.422 26.422 0 00-14.742-4.159 26.429 26.429 0 00-18.575 8.042c-2.278 2.19-4.233 4.576-6.257 6.917-2.563 2.966-4.134 1.56-6.749 1.606-2.614.045-4.136 1.505-6.8-1.37-2.105-2.268-4.142-4.586-6.495-6.694-4.866-4.682-11.614-7.515-18.925-7.387-5.427.095-10.764 1.816-14.669 4.672v-.003l.042.027c-.587.406-1.113.838-1.662 1.29-2.14 1.655-5.803 4.55-7.671 6.766C6.46 41.034.276 41.36.276 41.36l.117 6.706s3.7-.281 4.923 1.104c.722.817 1.555 4.8 2.874 8.958.406 1.483.972 2.91 1.62 4.274.608 1.357 1.312 2.612 2.109 3.638l.008-.007A26.444 26.444 0 0034.19 77.445a26.43 26.43 0 0023.795-15.833l.02-.026.06-.102c1.84-3.229 3.596-12.014 4.435-13.421.846-1.422 3.023-1.568 3.023-1.568s2.18.07 3.076 1.461c.887 1.377 2.948 10.096 4.9 13.258l.063.1.02.026a26.427 26.427 0 0024.331 14.992 26.435 26.435 0 0021.848-12.182l.002.007c.76-1.054 1.406-2.332 1.966-3.709a25.891 25.891 0 001.443-4.328c1.172-4.202 1.803-8.21 2.495-9.052 1.174-1.427 4.763-1.273 4.763-1.273l-.117-6.706s-6.094-.11-8.983-3.305z" stroke="#1B283E" stroke-width="1.746" fill="#1B283E"/></g><ellipse fill="url(#bn)" opacity=".668" filter="url(#bo)" cx="247.701" cy="340.866" rx="186.445" ry="16.716"/><g transform="translate(57.194 181.852)"><path d="M47.79 9h298.627c6.987 0 13.34 3.987 14.192 8.905l33.538 126.94c.851 4.918-7.465 29.3-23.36 29.3H23.418c-15.868 0-24.211-24.382-23.36-29.3l33.538-126.94C34.448 12.987 40.802 9 47.789 9z" fill="url(#bp)"/><path stroke="#1E1C1C" stroke-width="4" stroke-linecap="round" stroke-linejoin="round" d="M43 163.5h308.369"/><g stroke-linecap="round" stroke-linejoin="round"><use fill="#000" filter="url(#bq)" xlink:href="#br"/><use stroke="#32C5FF" stroke-width="2.4" xlink:href="#br"/></g><path d="M23.895 139.103l-.476 35.426c-15.868 0-24.211-17.193-23.36-24.28l11.888-15.388c.852-7.087 4.96 4.242 11.948 4.242z" fill="url(#bs)"/><path d="M393.989 139.103l-.475 35.426c-15.868 0-24.212-17.193-23.36-24.28l11.888-15.388c.851-7.087 4.96 4.242 11.947 4.242z" fill="url(#bs)" transform="matrix(-1 0 0 1 764.083 0)"/><path d="M39.718 0h314.77c7.364 0 14.062 3.987 14.96 8.905L394.06 143.79c.897 4.918-5.32 8.905-13.886 8.905H14.03c-8.566 0-14.783-3.987-13.886-8.905L24.76 8.905C25.656 3.987 32.354 0 39.719 0z" fill="url(#bt)"/><path d="M39.718 0h314.77c7.364 0 14.062 3.987 14.96 8.905L394.06 143.79c.897 4.918-5.32 8.905-13.886 8.905H14.03c-8.566 0-14.783-3.987-13.886-8.905L24.76 8.905C25.656 3.987 32.354 0 39.719 0z" fill="url(#bu)" opacity=".705"/><path d="M39.718 0h314.77c7.364 0 14.062 3.987 14.96 8.905L394.06 143.79c.897 4.918-5.32 8.905-13.886 8.905H14.03c-8.566 0-14.783-3.987-13.886-8.905L24.76 8.905C25.656 3.987 32.354 0 39.719 0z" fill="url(#bv)" fill-rule="nonzero"/><path d="M46.202 2.994h301.802c7.346 0 13.977 3.937 14.81 8.793l21.152 123.133c.834 4.856-5.32 8.793-13.748 8.793H23.988c-8.427 0-14.582-3.937-13.748-8.793L31.39 11.787c.834-4.856 7.465-8.793 14.811-8.793z" fill="url(#bw)" opacity=".705"/><g style="mix-blend-mode:overlay"><use fill="#000" filter="url(#bx)" xlink:href="#by"/><use stroke="url(#bz)" stroke-width="1.714" xlink:href="#by"/></g><g style="mix-blend-mode:overlay"><use fill="#000" filter="url(#bA)" xlink:href="#bB"/><use stroke="url(#bC)" stroke-width="1.714" xlink:href="#bB"/></g><g style="mix-blend-mode:overlay"><use fill="#000" filter="url(#bD)" xlink:href="#bE"/><use stroke="url(#bF)" stroke-width="1.714" xlink:href="#bE"/></g><ellipse fill="url(#bG)" cx="218.796" cy="74.578" rx="15.001" ry="8.572"/><g style="mix-blend-mode:overlay"><use fill="#000" filter="url(#bH)" xlink:href="#bI"/><use stroke="url(#bJ)" stroke-width="1.714" xlink:href="#bI"/></g></g><ellipse fill="#0091FF" opacity=".699" filter="url(#bK)" cx="254.987" cy="245.286" rx="90.865" ry="28.288"/><circle fill="#0091FF" opacity=".548" style="mix-blend-mode:overlay" filter="url(#bL)" cx="255.416" cy="194.282" r="75.349"/><g stroke-linejoin="round" transform="translate(188.982 152.707)"><use fill="#000" filter="url(#bM)" xlink:href="#bN"/><use stroke="#32C5FF" stroke-width="2.4" xlink:href="#bN"/></g><g stroke-linejoin="round" transform="translate(188.982 152.707)"><use fill="#000" filter="url(#bO)" xlink:href="#bP"/><use stroke="#32C5FF" stroke-width="2.4" xlink:href="#bP"/></g><g transform="translate(188.982 152.707)"><use fill="#000" filter="url(#bQ)" xlink:href="#bR"/><use stroke="#32C5FF" stroke-width="2.4" xlink:href="#bR"/></g><g transform="translate(188.982 152.707)"><use fill="#000" filter="url(#bS)" xlink:href="#bT"/><use stroke="#32C5FF" stroke-width="2.4" xlink:href="#bT"/></g><g transform="translate(188.982 152.707)"><use fill="#000" filter="url(#bU)" xlink:href="#bV"/><use stroke="#32C5FF" stroke-width="2.4" fill-opacity="0" fill="#D8D8D8" xlink:href="#bV"/></g><g><g transform="rotate(-28 692.357 -409.576)"><use fill="#000" filter="url(#bW)" xlink:href="#bX"/><use stroke="#32C5FF" stroke-width="1.92" xlink:href="#bX"/></g><g transform="rotate(-28 653.944 -432.657)"><use fill="#000" filter="url(#bY)" xlink:href="#bZ"/><use stroke="#32C5FF" stroke-width="1.92" xlink:href="#bZ"/></g><g transform="rotate(-88 280.223 3.074)"><use fill="#000" filter="url(#ca)" xlink:href="#cb"/><use stroke="#32C5FF" stroke-width="1.92" xlink:href="#cb"/></g><g transform="rotate(-148 185.117 103.54)"><use fill="#000" filter="url(#cc)" xlink:href="#cd"/><use stroke="#32C5FF" stroke-width="1.92" xlink:href="#cd"/></g><g transform="rotate(62 -66.544 371.788)"><use fill="#000" filter="url(#ce)" xlink:href="#cf"/><use stroke="#32C5FF" stroke-width="1.92" xlink:href="#cf"/></g><g transform="rotate(62 -78.715 392.045)"><use fill="#000" filter="url(#cg)" xlink:href="#ch"/><use stroke="#32C5FF" stroke-width="1.92" xlink:href="#ch"/></g></g></g></g></g></svg>