<svg width="30" height="30" viewBox="0 0 50 50"><g fill="none" fill-rule="evenodd"><circle class="fill-current transition-all" cx="25" cy="25" r="25"></circle><g class="achievement-badge-icon" fill="#FFF" fill-rule="nonzero"><path d="M38.871 21.879c-.308-.987-1.11-1.692-2.096-1.841l-6.873-1.04-3.074-6.49C26.388 11.578 25.495 11 24.5 11c-.995 0-1.887.578-2.328 1.508l-3.074 6.49-6.873 1.04c-.985.149-1.788.854-2.096 1.84a2.767 2.767 0 00.657 2.773l4.974 5.051-1.174 7.133a2.742 2.742 0 001.032 2.646c.455.344.988.519 1.524.519.412 0 .827-.104 1.21-.314L24.5 36.32l6.148 3.367a2.494 2.494 0 002.734-.205 2.742 2.742 0 001.033-2.646l-1.174-7.133 4.973-5.05a2.767 2.767 0 00.657-2.773z" opacity=".3"></path><path d="M10.587 21h27.826c.2.255.356.551.458.879a2.767 2.767 0 01-.657 2.772l-4.973 5.051 1.174 7.133a2.742 2.742 0 01-1.033 2.646 2.494 2.494 0 01-2.734.205L24.5 36.32l-6.148 3.367c-.383.21-.798.314-1.21.314a2.517 2.517 0 01-1.524-.52 2.742 2.742 0 01-1.032-2.645l1.174-7.133-4.974-5.05a2.767 2.767 0 01-.657-2.773c.102-.328.258-.624.458-.879zm12.619 3.22c-.383.089-.298.457 0 .78.35.378.745.622 1.294.622.648 0 1.02-.3 1.324-.622.304-.322.369-.695 0-.78-.37-.084-.584.436-1.324.436-.76 0-.911-.523-1.294-.435zM21 24a1 1 0 100-2 1 1 0 000 2zm7 0a1 1 0 100-2 1 1 0 000 2z"></path></g></g></svg>