<?xml version="1.0" encoding="utf-8"?>
<!-- Generator: Adobe Illustrator 24.2.3, SVG Export Plug-In . SVG Version: 6.00 Build 0)  -->
<svg version="1.1" id="Layer_1" xmlns="http://www.w3.org/2000/svg" xmlns:xlink="http://www.w3.org/1999/xlink" x="0px" y="0px"
	 viewBox="0 0 2679.68 1889.36" style="enable-background:new 0 0 2679.68 1889.36;" xml:space="preserve">
<style type="text/css">
	.st0{fill:#ED1C24;}
	.st1{fill:#121212;}
	.st2{fill:#FFFFFF;}
	.st3{fill:none;stroke:#ED1C24;stroke-miterlimit:10;stroke-dasharray:12.1818,12.1818;}
	.st4{fill:none;stroke:#ED1C24;stroke-miterlimit:10;stroke-dasharray:11.917,11.917;}
	.st5{fill:none;stroke:#ED1C24;stroke-miterlimit:10;stroke-dasharray:11.9272,11.9272;}
	.st6{fill:none;stroke:#ED1C24;stroke-miterlimit:10;stroke-dasharray:11.7483,11.7483;}
	.st7{fill:none;stroke:#ED1C24;stroke-miterlimit:10;stroke-dasharray:11.82,11.82;}
	.st8{fill:none;stroke:#ED1C24;stroke-miterlimit:10;stroke-dasharray:11.9053,11.9053;}
	.st9{fill:none;stroke:#ED1C24;stroke-miterlimit:10;stroke-dasharray:12.0554,12.0554;}
	.st10{fill:none;stroke:#ED1C24;stroke-miterlimit:10;}
	.st11{fill:none;stroke:#ED1C24;stroke-miterlimit:10;stroke-dasharray:11.8932,11.8932;}
	.st12{fill:none;stroke:#ED1C24;stroke-miterlimit:10;stroke-dasharray:11.8551,11.8551;}
	.st13{fill:none;stroke:#ED1C24;stroke-miterlimit:10;stroke-dasharray:11.9488,11.9488;}
	.st14{fill:none;stroke:#ED1C24;stroke-miterlimit:10;stroke-dasharray:12.1147,12.1147;}
	.st15{fill:none;}
	.st16{fill:none;stroke:#ED1C24;stroke-miterlimit:10;stroke-dasharray:12.1443,12.1443;}
	.st17{fill:none;stroke:#ED1C24;stroke-miterlimit:10;stroke-dasharray:12.1753,12.1753;}
	.st18{fill:none;stroke:#ED1C24;stroke-miterlimit:10;stroke-dasharray:11.9541,11.9541;}
	.st19{fill:none;stroke:#ED1C24;stroke-miterlimit:10;stroke-dasharray:12.0951,12.0951;}
	.st20{fill:none;stroke:#ED1C24;stroke-miterlimit:10;stroke-dasharray:12.0028,12.0028;}
	.st21{fill:none;stroke:#ED1C24;stroke-miterlimit:10;stroke-dasharray:12.005,12.005;}
	.st22{fill:none;stroke:#ED1C24;stroke-miterlimit:10;stroke-dasharray:11.9591,11.9591;}
	.st23{fill:none;stroke:#ED1C24;stroke-miterlimit:10;stroke-dasharray:12.0133,12.0133;}
	.st24{fill:none;stroke:#ED1C24;stroke-miterlimit:10;stroke-dasharray:11.9713,11.9713;}
	.st25{fill:none;stroke:#ED1C24;stroke-miterlimit:10;stroke-dasharray:11.9372,11.9372;}
	.st26{fill:none;stroke:#ED1C24;stroke-miterlimit:10;stroke-dasharray:11.9669,11.9669;}
	.st27{fill:none;stroke:#ED1C24;stroke-miterlimit:10;stroke-dasharray:11.8642,11.8642;}
	.st28{fill:none;stroke:#ED1C24;stroke-miterlimit:10;stroke-dasharray:12.0707,12.0707;}
	.st29{fill:none;stroke:#ED1C24;stroke-miterlimit:10;stroke-dasharray:12.1205,12.1205;}
	.st30{fill:none;stroke:#ED1C24;stroke-miterlimit:10;stroke-dasharray:12.0263,12.0263;}
	.st31{fill:none;stroke:#ED1C24;stroke-miterlimit:10;stroke-dasharray:12.1049,12.1049;}
	.st32{fill:none;stroke:#ED1C24;stroke-miterlimit:10;stroke-dasharray:11.8567,11.8567;}
	.st33{fill:none;stroke:#ED1C24;stroke-miterlimit:10;stroke-dasharray:11.9909,11.9909;}
	.st34{fill:none;stroke:#ED1C24;stroke-miterlimit:10;stroke-dasharray:12.009,12.009;}
	.st35{fill:none;stroke:#ED1C24;stroke-miterlimit:10;stroke-dasharray:12.0043,12.0043;}
	.st36{fill:none;stroke:#ED1C24;stroke-miterlimit:10;stroke-dasharray:12.0374,12.0374;}
	.st37{fill:none;stroke:#ED1C24;stroke-miterlimit:10;stroke-dasharray:11.9484,11.9484;}
</style>
<g>
	<circle class="st0" cx="1150.62" cy="1131.98" r="38.48"/>
	<circle class="st0" cx="1150.62" cy="1225.66" r="38.48"/>
	<circle class="st0" cx="1150.62" cy="1319.34" r="32.64"/>
	<circle class="st0" cx="1246.7" cy="1311.62" r="32.64"/>
	<circle class="st0" cx="1342.67" cy="1319.34" r="32.64"/>
	<circle class="st0" cx="1436.58" cy="1311.62" r="32.64"/>
	<circle class="st0" cx="1533.27" cy="1319.34" r="32.64"/>
	<circle class="st0" cx="1150.62" cy="1413.02" r="32.64"/>
	<circle class="st0" cx="1246.7" cy="1402.21" r="32.64"/>
	<circle class="st0" cx="1342.67" cy="1408.65" r="32.64"/>
	<circle class="st0" cx="1436.58" cy="1402.21" r="32.64"/>
	<circle class="st0" cx="1533.27" cy="1413.02" r="32.64"/>
	<circle class="st0" cx="1150.62" cy="850.93" r="32.64"/>
	<circle class="st0" cx="1246.7" cy="858.65" r="32.64"/>
	<circle class="st0" cx="1342.67" cy="872.81" r="32.64"/>
	<circle class="st0" cx="1436.58" cy="858.65" r="32.64"/>
	<circle class="st0" cx="1533.27" cy="850.93" r="32.64"/>
	<circle class="st0" cx="1150.62" cy="757.24" r="32.64"/>
	<circle class="st0" cx="1051.92" cy="1417.22" r="32.64"/>
	<circle class="st0" cx="1051.92" cy="743.57" r="32.64"/>
	<circle class="st0" cx="1150.62" cy="663.56" r="23.08"/>
	<circle class="st0" cx="1246.7" cy="677.46" r="23.08"/>
	<circle class="st0" cx="1342.67" cy="694.2" r="23.08"/>
	<circle class="st0" cx="1436.58" cy="677.46" r="23.08"/>
	<circle class="st0" cx="1533.27" cy="663.56" r="23.08"/>
	<circle class="st0" cx="1150.62" cy="569.88" r="23.08"/>
	<circle class="st0" cx="1246.7" cy="586.87" r="23.08"/>
	<circle class="st0" cx="1342.67" cy="604.89" r="23.08"/>
	<circle class="st0" cx="1436.58" cy="586.87" r="23.08"/>
	<circle class="st0" cx="1246.7" cy="496.28" r="23.08"/>
	<circle class="st0" cx="1342.67" cy="515.58" r="23.08"/>
	<circle class="st0" cx="1436.58" cy="496.28" r="23.08"/>
	<circle class="st0" cx="1533.27" cy="569.88" r="23.08"/>
	<circle class="st0" cx="1150.62" cy="1506.71" r="23.08"/>
	<circle class="st0" cx="1051.92" cy="1320.98" r="23.08"/>
	<circle class="st0" cx="968.4" cy="1513.45" r="23.08"/>
	<circle class="st0" cx="872.16" cy="1417.21" r="23.08"/>
	<circle class="st0" cx="968.4" cy="1320.98" r="16.32"/>
	<circle class="st0" cx="872.16" cy="1320.98" r="16.32"/>
	<circle class="st0" cx="968.4" cy="839.8" r="16.32"/>
	<circle class="st0" cx="872.16" cy="839.8" r="16.32"/>
	<circle class="st0" cx="1630.02" cy="1610.42" r="16.32"/>
	<circle class="st0" cx="1533.27" cy="1694.07" r="16.32"/>
	<circle class="st0" cx="1150.62" cy="1694.07" r="16.32"/>
	<circle class="st0" cx="1630.02" cy="1514.91" r="16.32"/>
	<circle class="st0" cx="1051.92" cy="1609.69" r="16.32"/>
	<circle class="st0" cx="968.4" cy="1609.69" r="12.45"/>
	<circle class="st0" cx="872.16" cy="1513.45" r="12.45"/>
	<circle class="st0" cx="765.28" cy="1417.21" r="12.45"/>
	<circle class="st0" cx="765.28" cy="1320.98" r="12.45"/>
	<circle class="st0" cx="765.28" cy="1128.51" r="12.45"/>
	<circle class="st0" cx="765.28" cy="1032.27" r="12.45"/>
	<circle class="st0" cx="765.28" cy="936.04" r="12.45"/>
	<circle class="st0" cx="765.28" cy="1224.74" r="27.76"/>
	<circle class="st0" cx="765.28" cy="1513.45" r="8.67"/>
	<circle class="st0" cx="669.48" cy="1319.69" r="8.67"/>
	<circle class="st0" cx="669.48" cy="749.62" r="8.67"/>
	<circle class="st0" cx="572.5" cy="849.02" r="8.67"/>
	<circle class="st0" cx="572.5" cy="942.08" r="8.67"/>
	<circle class="st0" cx="572.5" cy="1035.14" r="8.67"/>
	<circle class="st0" cx="572.5" cy="1128.21" r="13.04"/>
	<circle class="st0" cx="479.18" cy="928.04" r="8.67"/>
	<circle class="st0" cx="479.18" cy="1023.66" r="8.67"/>
	<circle class="st0" cx="385.86" cy="1027.1" r="8.67"/>
	<circle class="st0" cx="479.18" cy="1119.29" r="8.67"/>
	<circle class="st0" cx="572.5" cy="1221.27" r="8.67"/>
	<circle class="st0" cx="669.48" cy="1414.7" r="13.49"/>
	<circle class="st0" cx="385.86" cy="1116.26" r="8.67"/>
	<circle class="st0" cx="479.18" cy="1214.91" r="8.67"/>
	<circle class="st0" cx="572.5" cy="1314.34" r="8.67"/>
	<circle class="st0" cx="669.48" cy="1509.71" r="8.67"/>
	<circle class="st0" cx="479.18" cy="1310.53" r="8.67"/>
	<circle class="st0" cx="572.5" cy="1407.4" r="8.67"/>
	<circle class="st0" cx="872.16" cy="1609.68" r="8.67"/>
	<circle class="st0" cx="765.28" cy="1609.68" r="8.67"/>
	<circle class="st0" cx="968.4" cy="1705.92" r="8.67"/>
	<circle class="st0" cx="1051.92" cy="1705.92" r="8.67"/>
	<circle class="st0" cx="1150.62" cy="1787.76" r="8.67"/>
	<circle class="st0" cx="1246.7" cy="1764.59" r="8.67"/>
	<circle class="st0" cx="1342.67" cy="1765.87" r="8.67"/>
	<circle class="st0" cx="1436.58" cy="1764.59" r="8.67"/>
	<circle class="st0" cx="1246.7" cy="1855.18" r="8.67"/>
	<circle class="st0" cx="1342.67" cy="1855.18" r="8.67"/>
	<circle class="st0" cx="1436.58" cy="1855.18" r="8.67"/>
	<circle class="st0" cx="1533.27" cy="1787.76" r="8.67"/>
	<circle class="st0" cx="1630.02" cy="1705.92" r="8.67"/>
	<circle class="st0" cx="1719.38" cy="1705.92" r="8.67"/>
	<circle class="st0" cx="765.28" cy="839.8" r="8.67"/>
	<circle class="st0" cx="669.48" cy="1129.66" r="12.45"/>
	<circle class="st0" cx="669.48" cy="1034.65" r="12.45"/>
	<circle class="st0" cx="669.48" cy="939.64" r="19.12"/>
	<circle class="st0" cx="669.48" cy="1224.68" r="12.45"/>
	<circle class="st0" cx="669.48" cy="844.63" r="8.67"/>
	<circle class="st0" cx="1913.14" cy="838.21" r="8.67"/>
	<circle class="st0" cx="1913.14" cy="1408.28" r="8.67"/>
	<circle class="st0" cx="2010.11" cy="1308.88" r="8.67"/>
	<circle class="st0" cx="2010.11" cy="1215.82" r="8.67"/>
	<circle class="st0" cx="2010.11" cy="1122.75" r="8.67"/>
	<circle class="st0" cx="2010.11" cy="1029.69" r="13.04"/>
	<circle class="st0" cx="2103.44" cy="1229.86" r="8.67"/>
	<circle class="st0" cx="2103.44" cy="1134.23" r="8.67"/>
	<circle class="st0" cx="2196.76" cy="1130.8" r="8.67"/>
	<circle class="st0" cx="2103.44" cy="1038.61" r="8.67"/>
	<circle class="st0" cx="2010.11" cy="936.62" r="8.67"/>
	<circle class="st0" cx="1913.14" cy="743.2" r="13.49"/>
	<circle class="st0" cx="2196.76" cy="1041.63" r="8.67"/>
	<circle class="st0" cx="2103.44" cy="942.99" r="8.67"/>
	<circle class="st0" cx="2010.11" cy="843.56" r="8.67"/>
	<circle class="st0" cx="1913.14" cy="648.18" r="8.67"/>
	<circle class="st0" cx="2103.44" cy="847.36" r="8.67"/>
	<circle class="st0" cx="2010.11" cy="750.49" r="8.67"/>
	<circle class="st0" cx="1913.14" cy="1028.23" r="12.45"/>
	<circle class="st0" cx="1913.14" cy="1123.24" r="12.45"/>
	<circle class="st0" cx="1913.14" cy="1218.26" r="19.12"/>
	<circle class="st0" cx="1913.14" cy="933.22" r="12.45"/>
	<circle class="st0" cx="1913.14" cy="1313.27" r="8.67"/>
	<circle class="st0" cx="1051.92" cy="1513.45" r="16.32"/>
	<circle class="st0" cx="968.4" cy="1417.22" r="16.32"/>
	<circle class="st0" cx="968.4" cy="647.33" r="23.08"/>
	<circle class="st0" cx="872.16" cy="743.57" r="23.08"/>
	<circle class="st0" cx="968.4" cy="551.09" r="12.45"/>
	<circle class="st0" cx="872.16" cy="647.34" r="12.45"/>
	<circle class="st0" cx="765.28" cy="743.57" r="12.45"/>
	<circle class="st0" cx="765.28" cy="647.34" r="8.67"/>
	<circle class="st0" cx="872.16" cy="551.1" r="8.67"/>
	<circle class="st0" cx="765.28" cy="551.1" r="8.67"/>
	<circle class="st0" cx="968.4" cy="454.86" r="8.67"/>
	<circle class="st0" cx="1051.92" cy="454.86" r="8.67"/>
	<circle class="st0" cx="1150.62" cy="382.51" r="8.67"/>
	<circle class="st0" cx="1246.7" cy="405.68" r="8.67"/>
	<circle class="st0" cx="1342.67" cy="426.28" r="8.67"/>
	<circle class="st0" cx="1436.58" cy="405.68" r="8.67"/>
	<circle class="st0" cx="1246.7" cy="315.09" r="8.67"/>
	<circle class="st0" cx="1342.67" cy="336.97" r="8.67"/>
	<circle class="st0" cx="1342.67" cy="247.66" r="8.67"/>
	<circle class="st0" cx="1436.58" cy="315.09" r="8.67"/>
	<circle class="st0" cx="1533.27" cy="382.51" r="8.67"/>
	<circle class="st0" cx="968.4" cy="743.57" r="16.32"/>
	<circle class="st0" cx="1051.92" cy="647.33" r="16.32"/>
	<circle class="st0" cx="1051.92" cy="551.09" r="16.32"/>
	<circle class="st0" cx="1630.02" cy="655.36" r="16.32"/>
	<circle class="st0" cx="1630.02" cy="559.85" r="16.32"/>
	<circle class="st0" cx="1533.27" cy="476.19" r="16.32"/>
	<circle class="st0" cx="1150.62" cy="476.19" r="16.32"/>
	<circle class="st0" cx="1051.92" cy="839.8" r="23.08"/>
	<circle class="st0" cx="1630.02" cy="846.37" r="23.08"/>
	<circle class="st0" cx="1630.02" cy="1323.9" r="23.08"/>
	<circle class="st0" cx="1246.7" cy="1492.81" r="23.08"/>
	<circle class="st0" cx="1342.67" cy="1497.95" r="23.08"/>
	<circle class="st0" cx="1436.58" cy="1492.81" r="23.08"/>
	<circle class="st0" cx="1533.27" cy="1506.71" r="23.08"/>
	<circle class="st0" cx="1150.62" cy="1600.39" r="23.08"/>
	<circle class="st0" cx="1246.7" cy="1583.4" r="23.08"/>
	<circle class="st0" cx="1342.67" cy="1587.26" r="23.08"/>
	<circle class="st0" cx="1436.58" cy="1583.4" r="23.08"/>
	<circle class="st0" cx="1246.7" cy="1673.99" r="23.08"/>
	<circle class="st0" cx="1342.67" cy="1676.57" r="23.08"/>
	<circle class="st0" cx="1436.58" cy="1673.99" r="23.08"/>
	<circle class="st0" cx="1533.27" cy="1600.39" r="23.08"/>
	<circle class="st0" cx="968.4" cy="936.04" r="23.08"/>
	<circle class="st0" cx="968.4" cy="1032.27" r="23.08"/>
	<circle class="st0" cx="968.4" cy="1128.51" r="23.08"/>
	<circle class="st0" cx="968.4" cy="1224.74" r="23.08"/>
	<circle class="st0" cx="872.16" cy="936.04" r="23.08"/>
	<circle class="st0" cx="872.16" cy="1032.27" r="23.08"/>
	<circle class="st0" cx="872.16" cy="1128.51" r="23.08"/>
	<circle class="st0" cx="872.16" cy="1224.74" r="23.08"/>
	<circle class="st0" cx="1719.38" cy="1417.22" r="23.08"/>
	<circle class="st0" cx="1719.38" cy="1320.98" r="16.32"/>
	<circle class="st0" cx="1719.38" cy="839.81" r="16.32"/>
	<circle class="st0" cx="1719.38" cy="1513.45" r="12.45"/>
	<circle class="st0" cx="1826.47" cy="1417.21" r="12.45"/>
	<circle class="st0" cx="1826.47" cy="1320.98" r="12.45"/>
	<circle class="st0" cx="1826.47" cy="1128.51" r="12.45"/>
	<circle class="st0" cx="1826.47" cy="1032.27" r="12.45"/>
	<circle class="st0" cx="1826.47" cy="936.04" r="12.45"/>
	<circle class="st0" cx="1826.47" cy="1224.74" r="12.45"/>
	<circle class="st0" cx="1826.47" cy="1513.45" r="8.67"/>
	<circle class="st0" cx="1719.38" cy="1609.69" r="8.67"/>
	<circle class="st0" cx="1826.47" cy="1609.68" r="8.67"/>
	<circle class="st0" cx="1826.47" cy="839.8" r="8.67"/>
	<circle class="st0" cx="1719.38" cy="743.57" r="23.08"/>
	<circle class="st0" cx="1719.38" cy="647.34" r="12.45"/>
	<circle class="st0" cx="1826.47" cy="743.57" r="12.45"/>
	<circle class="st0" cx="1826.47" cy="647.34" r="8.67"/>
	<circle class="st0" cx="1719.38" cy="551.1" r="8.67"/>
	<circle class="st0" cx="1630.02" cy="464.34" r="8.67"/>
	<circle class="st0" cx="1826.47" cy="551.1" r="8.67"/>
	<circle class="st0" cx="1719.38" cy="936.04" r="23.08"/>
	<circle class="st0" cx="1719.38" cy="1032.28" r="23.08"/>
	<circle class="st0" cx="1719.38" cy="1128.51" r="23.08"/>
	<circle class="st0" cx="1719.38" cy="1224.75" r="23.08"/>
	<circle class="st0" cx="1051.92" cy="936.04" r="32.64"/>
	<circle class="st0" cx="1051.92" cy="1032.27" r="32.64"/>
	<circle class="st0" cx="1051.92" cy="1128.51" r="32.64"/>
	<circle class="st0" cx="1051.92" cy="1224.74" r="32.64"/>
	<circle class="st0" cx="1630.02" cy="941.87" r="32.64"/>
	<circle class="st0" cx="1630.02" cy="1037.38" r="32.64"/>
	<circle class="st0" cx="1630.02" cy="1132.89" r="32.64"/>
	<circle class="st0" cx="1630.02" cy="1228.39" r="32.64"/>
	<circle class="st0" cx="1246.7" cy="768.06" r="32.64"/>
	<circle class="st0" cx="1342.67" cy="783.5" r="32.64"/>
	<circle class="st0" cx="1436.58" cy="768.06" r="32.64"/>
	<circle class="st0" cx="1533.27" cy="757.24" r="32.64"/>
	<circle class="st0" cx="1630.02" cy="1419.41" r="32.64"/>
	<circle class="st0" cx="1630.02" cy="750.86" r="32.64"/>
	<circle class="st0" cx="1246.7" cy="1130.43" r="38.48"/>
	<circle class="st0" cx="1246.7" cy="1221.02" r="38.48"/>
	<circle class="st0" cx="1342.67" cy="1140.73" r="38.48"/>
	<circle class="st0" cx="1342.67" cy="1230.04" r="38.48"/>
	<circle class="st0" cx="1436.58" cy="1130.43" r="38.48"/>
	<circle class="st0" cx="1436.58" cy="1221.02" r="38.48"/>
	<circle class="st0" cx="1533.27" cy="1131.98" r="38.48"/>
	<circle class="st0" cx="1533.27" cy="1225.66" r="38.48"/>
	<circle class="st0" cx="1150.62" cy="944.61" r="38.48"/>
	<circle class="st0" cx="1150.62" cy="1038.29" r="38.48"/>
	<circle class="st0" cx="1246.7" cy="949.24" r="38.48"/>
	<circle class="st0" cx="1246.7" cy="1039.84" r="38.48"/>
	<circle class="st0" cx="1342.67" cy="962.12" r="38.48"/>
	<circle class="st0" cx="1342.67" cy="1051.42" r="38.48"/>
	<circle class="st0" cx="1436.58" cy="949.24" r="38.48"/>
	<circle class="st0" cx="1436.58" cy="1039.84" r="38.48"/>
	<circle class="st0" cx="1533.27" cy="944.61" r="38.48"/>
	<circle class="st0" cx="1533.27" cy="1038.29" r="38.48"/>
</g>
<g>
	<path class="st1" d="M1778.45,971.16v44.43c0,4.68,3.79,8.48,8.48,8.48h112.65c37.42,0,67.76,30.34,67.76,67.76v0
		c0,37.42-30.34,67.76-67.76,67.76h-112.65c-4.68,0-8.48,3.79-8.48,8.48v44.43c0,4.68,3.79,8.48,8.48,8.48h178.99
		c37.42,0,67.76,30.34,67.76,67.76v0c0,37.42-30.34,67.76-67.76,67.76h-255.23c-37.42,0-67.76-30.34-67.76-67.76v-393.8
		c0-37.42,30.34-67.76,67.76-67.76h255.23c37.42,0,67.76,30.34,67.76,67.76v0c0,37.42-30.34,67.76-67.76,67.76h-178.99
		C1782.25,962.69,1778.45,966.48,1778.45,971.16z"/>
	<path class="st1" d="M2236.72,993.38L2236.72,993.38c0,16.95,13.74,30.69,30.69,30.69h51.95c91.8,0,166.21,74.41,166.21,166.21v0
		c0,91.8-74.41,166.21-166.21,166.21h-153.05c-35.96,0-65.11-29.15-65.11-65.11v-5.31c0-35.96,29.15-65.11,65.11-65.11h153.05
		c16.95,0,30.69-13.74,30.69-30.69v0c0-16.95-13.74-30.69-30.69-30.69h-51.95c-91.8,0-166.21-74.41-166.21-166.21v0
		c0-91.8,74.41-166.21,166.21-166.21h153.05c35.96,0,65.11,29.15,65.11,65.11v5.31c0,35.96-29.15,65.11-65.11,65.11h-153.05
		C2250.46,962.69,2236.72,976.43,2236.72,993.38z"/>
	<path class="st1" d="M1039.92,894.93v393.8c0,37.42-30.34,67.76-67.76,67.76h0c-37.42,0-67.76-30.34-67.76-67.76v-393.8
		c0-37.42,30.34-67.76,67.76-67.76h0C1009.58,827.17,1039.92,857.5,1039.92,894.93z"/>
	<path class="st1" d="M1575.19,892.27v13.43l-22.37,56.99l-24.1,61.38l-53.2,135.52l-24.09,61.38l-37.21,94.79l-0.01,0.01
		c-9.65,24.56-33.35,40.72-59.74,40.72h-26.1c-26.4,0-50.1-16.16-59.75-40.73v0l-37.21-94.79l-24.1-61.38l-53.2-135.52l-24.09-61.38
		l-23.76-60.52v-9.9c0-35.96,29.15-65.1,65.1-65.1h6.51c26.87,0,50.99,16.45,60.81,41.46l36.93,94.06l24.1,61.38l41.71,106.25
		l41.7-106.25l24.1-61.38l36.93-94.06c9.82-25.01,33.95-41.46,60.81-41.46h5.12C1546.04,827.17,1575.19,856.32,1575.19,892.27z"/>
	<path class="st1" d="M837.43,892.33v396.4c0,37.42-30.34,67.76-67.76,67.76h0c-37.42,0-67.76-30.34-67.76-67.76v-89.81l-8.66,22.05
		l-37.21,94.78v0.01l0,0c-9.65,24.57-33.35,40.73-59.75,40.73h-26.1c-26.39,0-50.09-16.15-59.74-40.72l-0.01-0.01l-37.21-94.79
		l-8.66-22.07v89.83c0,37.42-30.34,67.76-67.76,67.76h0c-37.42,0-67.76-30.34-67.76-67.76V892.39c0-36.02,29.2-65.22,65.22-65.22
		h25.48c26.83,0,50.93,16.43,60.74,41.41l36.95,94.11l24.1,61.38l41.71,106.25l41.7-106.25l24.1-61.38l36.93-94.08
		c9.81-25,33.93-41.44,60.79-41.44h25.5C808.26,827.17,837.43,856.34,837.43,892.33z"/>
</g>
</svg>
