<?xml version="1.0" encoding="utf-8"?>
<!-- Generator: Adobe Illustrator 24.2.3, SVG Export Plug-In . SVG Version: 6.00 Build 0)  -->
<svg version="1.1" id="Layer_1" xmlns="http://www.w3.org/2000/svg" xmlns:xlink="http://www.w3.org/1999/xlink" x="0px" y="0px"
	 viewBox="0 0 2679.68 2114.04" xml:space="preserve">
<style type="text/css">
	.st0{fill:#ED1C24;}
	.st1{fill:#121212;}
	.st2{fill:#FFFFFF;}
	.st3{fill:none;stroke:#ED1C24;stroke-miterlimit:10;stroke-dasharray:12.1818,12.1818;}
	.st4{fill:none;stroke:#ED1C24;stroke-miterlimit:10;stroke-dasharray:11.917,11.917;}
	.st5{fill:none;stroke:#ED1C24;stroke-miterlimit:10;stroke-dasharray:11.9272,11.9272;}
	.st6{fill:none;stroke:#ED1C24;stroke-miterlimit:10;stroke-dasharray:11.7483,11.7483;}
	.st7{fill:none;stroke:#ED1C24;stroke-miterlimit:10;stroke-dasharray:11.82,11.82;}
	.st8{fill:none;stroke:#ED1C24;stroke-miterlimit:10;stroke-dasharray:11.9053,11.9053;}
	.st9{fill:none;stroke:#ED1C24;stroke-miterlimit:10;stroke-dasharray:12.0554,12.0554;}
	.st10{fill:none;stroke:#ED1C24;stroke-miterlimit:10;}
	.st11{fill:none;stroke:#ED1C24;stroke-miterlimit:10;stroke-dasharray:11.8932,11.8932;}
	.st12{fill:none;stroke:#ED1C24;stroke-miterlimit:10;stroke-dasharray:11.8551,11.8551;}
	.st13{fill:none;stroke:#ED1C24;stroke-miterlimit:10;stroke-dasharray:11.9488,11.9488;}
	.st14{fill:none;stroke:#ED1C24;stroke-miterlimit:10;stroke-dasharray:12.1147,12.1147;}
	.st15{fill:none;}
	.st16{fill:none;stroke:#ED1C24;stroke-miterlimit:10;stroke-dasharray:12.1443,12.1443;}
	.st17{fill:none;stroke:#ED1C24;stroke-miterlimit:10;stroke-dasharray:12.1753,12.1753;}
	.st18{fill:none;stroke:#ED1C24;stroke-miterlimit:10;stroke-dasharray:11.9541,11.9541;}
	.st19{fill:none;stroke:#ED1C24;stroke-miterlimit:10;stroke-dasharray:12.0951,12.0951;}
	.st20{fill:none;stroke:#ED1C24;stroke-miterlimit:10;stroke-dasharray:12.0028,12.0028;}
	.st21{fill:none;stroke:#ED1C24;stroke-miterlimit:10;stroke-dasharray:12.005,12.005;}
	.st22{fill:none;stroke:#ED1C24;stroke-miterlimit:10;stroke-dasharray:11.9591,11.9591;}
	.st23{fill:none;stroke:#ED1C24;stroke-miterlimit:10;stroke-dasharray:12.0133,12.0133;}
	.st24{fill:none;stroke:#ED1C24;stroke-miterlimit:10;stroke-dasharray:11.9713,11.9713;}
	.st25{fill:none;stroke:#ED1C24;stroke-miterlimit:10;stroke-dasharray:11.9372,11.9372;}
	.st26{fill:none;stroke:#ED1C24;stroke-miterlimit:10;stroke-dasharray:11.9669,11.9669;}
	.st27{fill:none;stroke:#ED1C24;stroke-miterlimit:10;stroke-dasharray:11.8642,11.8642;}
	.st28{fill:none;stroke:#ED1C24;stroke-miterlimit:10;stroke-dasharray:12.0707,12.0707;}
	.st29{fill:none;stroke:#ED1C24;stroke-miterlimit:10;stroke-dasharray:12.1205,12.1205;}
	.st30{fill:none;stroke:#ED1C24;stroke-miterlimit:10;stroke-dasharray:12.0263,12.0263;}
	.st31{fill:none;stroke:#ED1C24;stroke-miterlimit:10;stroke-dasharray:12.1049,12.1049;}
	.st32{fill:none;stroke:#ED1C24;stroke-miterlimit:10;stroke-dasharray:11.8567,11.8567;}
	.st33{fill:none;stroke:#ED1C24;stroke-miterlimit:10;stroke-dasharray:11.9909,11.9909;}
	.st34{fill:none;stroke:#ED1C24;stroke-miterlimit:10;stroke-dasharray:12.009,12.009;}
	.st35{fill:none;stroke:#ED1C24;stroke-miterlimit:10;stroke-dasharray:12.0043,12.0043;}
	.st36{fill:none;stroke:#ED1C24;stroke-miterlimit:10;stroke-dasharray:12.0374,12.0374;}
	.st37{fill:none;stroke:#ED1C24;stroke-miterlimit:10;stroke-dasharray:11.9484,11.9484;}
</style>
<g>
	<circle class="st0" cx="1140.76" cy="1126.87" r="38.48"/>
	<circle class="st0" cx="1140.76" cy="1220.55" r="38.48"/>
	<circle class="st0" cx="1140.76" cy="1314.24" r="32.64"/>
	<circle class="st0" cx="1236.84" cy="1306.51" r="32.64"/>
	<circle class="st0" cx="1332.82" cy="1314.24" r="32.64"/>
	<circle class="st0" cx="1426.72" cy="1306.51" r="32.64"/>
	<circle class="st0" cx="1523.41" cy="1314.24" r="32.64"/>
	<circle class="st0" cx="1140.76" cy="1407.92" r="32.64"/>
	<circle class="st0" cx="1236.84" cy="1397.11" r="32.64"/>
	<circle class="st0" cx="1332.82" cy="1403.54" r="32.64"/>
	<circle class="st0" cx="1426.72" cy="1397.11" r="32.64"/>
	<circle class="st0" cx="1523.41" cy="1407.92" r="32.64"/>
	<circle class="st0" cx="1140.76" cy="845.82" r="32.64"/>
	<circle class="st0" cx="1236.84" cy="853.54" r="32.64"/>
	<circle class="st0" cx="1332.82" cy="867.7" r="32.64"/>
	<circle class="st0" cx="1426.72" cy="853.54" r="32.64"/>
	<circle class="st0" cx="1523.41" cy="845.82" r="32.64"/>
	<circle class="st0" cx="1140.76" cy="752.14" r="32.64"/>
	<circle class="st0" cx="1042.06" cy="1412.11" r="32.64"/>
	<circle class="st0" cx="1042.06" cy="738.46" r="32.64"/>
	<circle class="st0" cx="1140.76" cy="658.45" r="23.08"/>
	<circle class="st0" cx="1236.84" cy="672.36" r="23.08"/>
	<circle class="st0" cx="1332.82" cy="689.09" r="23.08"/>
	<circle class="st0" cx="1426.72" cy="672.36" r="23.08"/>
	<circle class="st0" cx="1523.41" cy="658.45" r="23.08"/>
	<circle class="st0" cx="1140.76" cy="564.77" r="23.08"/>
	<circle class="st0" cx="1236.84" cy="581.76" r="23.08"/>
	<circle class="st0" cx="1332.82" cy="599.78" r="23.08"/>
	<circle class="st0" cx="1426.72" cy="581.76" r="23.08"/>
	<circle class="st0" cx="1236.84" cy="491.17" r="23.08"/>
	<circle class="st0" cx="1332.82" cy="510.48" r="23.08"/>
	<circle class="st0" cx="1426.72" cy="491.17" r="23.08"/>
	<circle class="st0" cx="1523.41" cy="564.77" r="23.08"/>
	<circle class="st0" cx="1140.76" cy="1501.6" r="23.08"/>
	<circle class="st0" cx="1042.06" cy="1315.87" r="23.08"/>
	<circle class="st0" cx="958.54" cy="1508.35" r="23.08"/>
	<circle class="st0" cx="862.3" cy="1412.11" r="23.08"/>
	<circle class="st0" cx="958.54" cy="1315.87" r="16.32"/>
	<circle class="st0" cx="862.3" cy="1315.87" r="16.32"/>
	<circle class="st0" cx="958.54" cy="834.7" r="16.32"/>
	<circle class="st0" cx="862.3" cy="834.7" r="16.32"/>
	<circle class="st0" cx="1620.17" cy="1605.31" r="16.32"/>
	<circle class="st0" cx="1523.41" cy="1688.97" r="16.32"/>
	<circle class="st0" cx="1140.76" cy="1688.97" r="16.32"/>
	<circle class="st0" cx="1620.17" cy="1509.81" r="16.32"/>
	<circle class="st0" cx="1042.06" cy="1604.58" r="16.32"/>
	<circle class="st0" cx="958.54" cy="1604.58" r="12.45"/>
	<circle class="st0" cx="862.3" cy="1508.34" r="12.45"/>
	<circle class="st0" cx="755.42" cy="1412.11" r="12.45"/>
	<circle class="st0" cx="755.42" cy="1315.87" r="12.45"/>
	<circle class="st0" cx="755.42" cy="1123.4" r="12.45"/>
	<circle class="st0" cx="755.42" cy="1027.17" r="12.45"/>
	<circle class="st0" cx="755.42" cy="930.93" r="12.45"/>
	<circle class="st0" cx="755.42" cy="1219.64" r="27.76"/>
	<circle class="st0" cx="755.42" cy="1508.34" r="8.67"/>
	<circle class="st0" cx="659.62" cy="1314.58" r="8.67"/>
	<circle class="st0" cx="659.62" cy="744.51" r="8.67"/>
	<circle class="st0" cx="562.65" cy="843.91" r="8.67"/>
	<circle class="st0" cx="562.65" cy="936.97" r="8.67"/>
	<circle class="st0" cx="562.65" cy="1030.04" r="8.67"/>
	<circle class="st0" cx="562.65" cy="1123.1" r="13.04"/>
	<circle class="st0" cx="469.32" cy="922.93" r="8.67"/>
	<circle class="st0" cx="469.32" cy="1018.56" r="8.67"/>
	<circle class="st0" cx="376" cy="1021.99" r="8.67"/>
	<circle class="st0" cx="469.32" cy="1114.18" r="8.67"/>
	<circle class="st0" cx="562.65" cy="1216.17" r="8.67"/>
	<circle class="st0" cx="659.62" cy="1409.59" r="13.49"/>
	<circle class="st0" cx="376" cy="1111.16" r="8.67"/>
	<circle class="st0" cx="469.32" cy="1209.8" r="8.67"/>
	<circle class="st0" cx="562.65" cy="1309.23" r="8.67"/>
	<circle class="st0" cx="659.62" cy="1504.61" r="8.67"/>
	<circle class="st0" cx="469.32" cy="1305.43" r="8.67"/>
	<circle class="st0" cx="562.65" cy="1402.3" r="8.67"/>
	<circle class="st0" cx="862.3" cy="1604.58" r="8.67"/>
	<circle class="st0" cx="755.42" cy="1604.58" r="8.67"/>
	<circle class="st0" cx="958.54" cy="1700.82" r="8.67"/>
	<circle class="st0" cx="1042.06" cy="1700.82" r="8.67"/>
	<circle class="st0" cx="1140.76" cy="1782.65" r="8.67"/>
	<circle class="st0" cx="1236.84" cy="1759.48" r="8.67"/>
	<circle class="st0" cx="1332.82" cy="1760.77" r="8.67"/>
	<circle class="st0" cx="1426.72" cy="1759.48" r="8.67"/>
	<circle class="st0" cx="1236.84" cy="1850.07" r="8.67"/>
	<circle class="st0" cx="1332.82" cy="1850.07" r="8.67"/>
	<circle class="st0" cx="1426.72" cy="1850.07" r="8.67"/>
	<circle class="st0" cx="1523.41" cy="1782.65" r="8.67"/>
	<circle class="st0" cx="1620.17" cy="1700.82" r="8.67"/>
	<circle class="st0" cx="1709.52" cy="1700.82" r="8.67"/>
	<circle class="st0" cx="755.42" cy="834.7" r="8.67"/>
	<circle class="st0" cx="659.62" cy="1124.56" r="12.45"/>
	<circle class="st0" cx="659.62" cy="1029.55" r="12.45"/>
	<circle class="st0" cx="659.62" cy="934.53" r="19.12"/>
	<circle class="st0" cx="659.62" cy="1219.57" r="12.45"/>
	<circle class="st0" cx="659.62" cy="839.52" r="8.67"/>
	<circle class="st0" cx="1903.28" cy="833.1" r="8.67"/>
	<circle class="st0" cx="1903.28" cy="1403.17" r="8.67"/>
	<circle class="st0" cx="2000.26" cy="1303.78" r="8.67"/>
	<circle class="st0" cx="2000.26" cy="1210.71" r="8.67"/>
	<circle class="st0" cx="2000.26" cy="1117.65" r="8.67"/>
	<circle class="st0" cx="2000.26" cy="1024.58" r="13.04"/>
	<circle class="st0" cx="2093.58" cy="1224.75" r="8.67"/>
	<circle class="st0" cx="2093.58" cy="1129.13" r="8.67"/>
	<circle class="st0" cx="2186.9" cy="1125.69" r="8.67"/>
	<circle class="st0" cx="2093.58" cy="1033.5" r="8.67"/>
	<circle class="st0" cx="2000.26" cy="931.52" r="8.67"/>
	<circle class="st0" cx="1903.28" cy="738.09" r="13.49"/>
	<circle class="st0" cx="2186.9" cy="1036.53" r="8.67"/>
	<circle class="st0" cx="2093.58" cy="937.88" r="8.67"/>
	<circle class="st0" cx="2000.26" cy="838.45" r="8.67"/>
	<circle class="st0" cx="1903.28" cy="643.08" r="8.67"/>
	<circle class="st0" cx="2093.58" cy="842.26" r="8.67"/>
	<circle class="st0" cx="2000.26" cy="745.39" r="8.67"/>
	<circle class="st0" cx="1903.28" cy="1023.13" r="12.45"/>
	<circle class="st0" cx="1903.28" cy="1118.14" r="12.45"/>
	<circle class="st0" cx="1903.28" cy="1213.15" r="19.12"/>
	<circle class="st0" cx="1903.28" cy="928.11" r="12.45"/>
	<circle class="st0" cx="1903.28" cy="1308.16" r="8.67"/>
	<circle class="st0" cx="1042.06" cy="1508.35" r="16.32"/>
	<circle class="st0" cx="958.54" cy="1412.11" r="16.32"/>
	<circle class="st0" cx="958.54" cy="642.22" r="23.08"/>
	<circle class="st0" cx="862.3" cy="738.46" r="23.08"/>
	<circle class="st0" cx="958.54" cy="545.99" r="12.45"/>
	<circle class="st0" cx="862.3" cy="642.23" r="12.45"/>
	<circle class="st0" cx="755.42" cy="738.46" r="12.45"/>
	<circle class="st0" cx="755.42" cy="642.23" r="8.67"/>
	<circle class="st0" cx="862.3" cy="545.99" r="8.67"/>
	<circle class="st0" cx="755.42" cy="545.99" r="8.67"/>
	<circle class="st0" cx="958.54" cy="449.75" r="8.67"/>
	<circle class="st0" cx="1042.06" cy="449.75" r="8.67"/>
	<circle class="st0" cx="1140.76" cy="377.41" r="8.67"/>
	<circle class="st0" cx="1236.84" cy="400.58" r="8.67"/>
	<circle class="st0" cx="1332.82" cy="421.17" r="8.67"/>
	<circle class="st0" cx="1426.72" cy="400.58" r="8.67"/>
	<circle class="st0" cx="1236.84" cy="309.98" r="8.67"/>
	<circle class="st0" cx="1332.82" cy="331.86" r="8.67"/>
	<circle class="st0" cx="1332.82" cy="242.56" r="8.67"/>
	<circle class="st0" cx="1426.72" cy="309.98" r="8.67"/>
	<circle class="st0" cx="1523.41" cy="377.41" r="8.67"/>
	<circle class="st0" cx="958.54" cy="738.46" r="16.32"/>
	<circle class="st0" cx="1042.06" cy="642.22" r="16.32"/>
	<circle class="st0" cx="1042.06" cy="545.99" r="16.32"/>
	<circle class="st0" cx="1620.17" cy="650.25" r="16.32"/>
	<circle class="st0" cx="1620.17" cy="554.74" r="16.32"/>
	<circle class="st0" cx="1523.41" cy="471.09" r="16.32"/>
	<circle class="st0" cx="1140.76" cy="471.09" r="16.32"/>
	<circle class="st0" cx="1042.06" cy="834.7" r="23.08"/>
	<circle class="st0" cx="1620.17" cy="841.26" r="23.08"/>
	<circle class="st0" cx="1620.17" cy="1318.79" r="23.08"/>
	<circle class="st0" cx="1236.84" cy="1487.7" r="23.08"/>
	<circle class="st0" cx="1332.82" cy="1492.85" r="23.08"/>
	<circle class="st0" cx="1426.72" cy="1487.7" r="23.08"/>
	<circle class="st0" cx="1523.41" cy="1501.6" r="23.08"/>
	<circle class="st0" cx="1140.76" cy="1595.28" r="23.08"/>
	<circle class="st0" cx="1236.84" cy="1578.29" r="23.08"/>
	<circle class="st0" cx="1332.82" cy="1582.15" r="23.08"/>
	<circle class="st0" cx="1426.72" cy="1578.29" r="23.08"/>
	<circle class="st0" cx="1236.84" cy="1668.89" r="23.08"/>
	<circle class="st0" cx="1332.82" cy="1671.46" r="23.08"/>
	<circle class="st0" cx="1426.72" cy="1668.89" r="23.08"/>
	<circle class="st0" cx="1523.41" cy="1595.28" r="23.08"/>
	<circle class="st0" cx="958.54" cy="930.93" r="23.08"/>
	<circle class="st0" cx="958.54" cy="1027.17" r="23.08"/>
	<circle class="st0" cx="958.54" cy="1123.4" r="23.08"/>
	<circle class="st0" cx="958.54" cy="1219.64" r="23.08"/>
	<circle class="st0" cx="862.3" cy="930.93" r="23.08"/>
	<circle class="st0" cx="862.3" cy="1027.17" r="23.08"/>
	<circle class="st0" cx="862.3" cy="1123.4" r="23.08"/>
	<circle class="st0" cx="862.3" cy="1219.64" r="23.08"/>
	<circle class="st0" cx="1709.52" cy="1412.11" r="23.08"/>
	<circle class="st0" cx="1709.52" cy="1315.88" r="16.32"/>
	<circle class="st0" cx="1709.52" cy="834.7" r="16.32"/>
	<circle class="st0" cx="1709.52" cy="1508.35" r="12.45"/>
	<circle class="st0" cx="1816.62" cy="1412.11" r="12.45"/>
	<circle class="st0" cx="1816.62" cy="1315.87" r="12.45"/>
	<circle class="st0" cx="1816.62" cy="1123.4" r="12.45"/>
	<circle class="st0" cx="1816.62" cy="1027.17" r="12.45"/>
	<circle class="st0" cx="1816.62" cy="930.93" r="12.45"/>
	<circle class="st0" cx="1816.62" cy="1219.64" r="12.45"/>
	<circle class="st0" cx="1816.62" cy="1508.34" r="8.67"/>
	<circle class="st0" cx="1709.52" cy="1604.58" r="8.67"/>
	<circle class="st0" cx="1816.62" cy="1604.58" r="8.67"/>
	<circle class="st0" cx="1816.62" cy="834.7" r="8.67"/>
	<circle class="st0" cx="1709.52" cy="738.46" r="23.08"/>
	<circle class="st0" cx="1709.52" cy="642.23" r="12.45"/>
	<circle class="st0" cx="1816.62" cy="738.46" r="12.45"/>
	<circle class="st0" cx="1816.62" cy="642.23" r="8.67"/>
	<circle class="st0" cx="1709.52" cy="545.99" r="8.67"/>
	<circle class="st0" cx="1620.17" cy="459.24" r="8.67"/>
	<circle class="st0" cx="1816.62" cy="545.99" r="8.67"/>
	<circle class="st0" cx="1709.52" cy="930.94" r="23.08"/>
	<circle class="st0" cx="1709.52" cy="1027.17" r="23.08"/>
	<circle class="st0" cx="1709.52" cy="1123.41" r="23.08"/>
	<circle class="st0" cx="1709.52" cy="1219.64" r="23.08"/>
	<circle class="st0" cx="1042.06" cy="930.93" r="32.64"/>
	<circle class="st0" cx="1042.06" cy="1027.17" r="32.64"/>
	<circle class="st0" cx="1042.06" cy="1123.4" r="32.64"/>
	<circle class="st0" cx="1042.06" cy="1219.64" r="32.64"/>
	<circle class="st0" cx="1620.17" cy="936.77" r="32.64"/>
	<circle class="st0" cx="1620.17" cy="1032.27" r="32.64"/>
	<circle class="st0" cx="1620.17" cy="1127.78" r="32.64"/>
	<circle class="st0" cx="1620.17" cy="1223.29" r="32.64"/>
	<circle class="st0" cx="1236.84" cy="762.95" r="32.64"/>
	<circle class="st0" cx="1332.82" cy="778.4" r="32.64"/>
	<circle class="st0" cx="1426.72" cy="762.95" r="32.64"/>
	<circle class="st0" cx="1523.41" cy="752.14" r="32.64"/>
	<circle class="st0" cx="1620.17" cy="1414.3" r="32.64"/>
	<circle class="st0" cx="1620.17" cy="745.76" r="32.64"/>
	<circle class="st0" cx="1236.84" cy="1125.32" r="38.48"/>
	<circle class="st0" cx="1236.84" cy="1215.92" r="38.48"/>
	<circle class="st0" cx="1332.82" cy="1135.62" r="38.48"/>
	<circle class="st0" cx="1332.82" cy="1224.93" r="38.48"/>
	<circle class="st0" cx="1426.72" cy="1125.32" r="38.48"/>
	<circle class="st0" cx="1426.72" cy="1215.92" r="38.48"/>
	<circle class="st0" cx="1523.41" cy="1126.87" r="38.48"/>
	<circle class="st0" cx="1523.41" cy="1220.55" r="38.48"/>
	<circle class="st0" cx="1140.76" cy="939.5" r="38.48"/>
	<circle class="st0" cx="1140.76" cy="1033.19" r="38.48"/>
	<circle class="st0" cx="1236.84" cy="944.14" r="38.48"/>
	<circle class="st0" cx="1236.84" cy="1034.73" r="38.48"/>
	<circle class="st0" cx="1332.82" cy="957.01" r="38.48"/>
	<circle class="st0" cx="1332.82" cy="1046.32" r="38.48"/>
	<circle class="st0" cx="1426.72" cy="944.14" r="38.48"/>
	<circle class="st0" cx="1426.72" cy="1034.73" r="38.48"/>
	<circle class="st0" cx="1523.41" cy="939.5" r="38.48"/>
	<circle class="st0" cx="1523.41" cy="1033.19" r="38.48"/>
</g>
<g>
	<path class="st2" d="M1771.19,966.06v44.43c0,4.68,3.79,8.48,8.48,8.48h112.65c37.42,0,67.76,30.34,67.76,67.76v0
		c0,37.42-30.34,67.76-67.76,67.76h-112.65c-4.68,0-8.48,3.79-8.48,8.48v44.43c0,4.68,3.79,8.48,8.48,8.48h178.99
		c37.42,0,67.76,30.34,67.76,67.76v0c0,37.42-30.34,67.76-67.76,67.76h-255.23c-37.42,0-67.76-30.34-67.76-67.76v-393.8
		c0-37.42,30.34-67.76,67.76-67.76h255.23c37.42,0,67.76,30.34,67.76,67.76v0c0,37.42-30.34,67.76-67.76,67.76h-178.99
		C1774.98,957.58,1771.19,961.38,1771.19,966.06z"/>
	<path class="st2" d="M2229.46,988.27L2229.46,988.27c0,16.95,13.74,30.69,30.69,30.69h51.95c91.8,0,166.21,74.41,166.21,166.21v0
		c0,91.8-74.41,166.21-166.21,166.21h-153.05c-35.96,0-65.11-29.15-65.11-65.11v-5.31c0-35.96,29.15-65.11,65.11-65.11h153.05
		c16.95,0,30.69-13.74,30.69-30.69l0,0c0-16.95-13.74-30.69-30.69-30.69h-51.95c-91.8,0-166.21-74.41-166.21-166.21v0
		c0-91.8,74.41-166.21,166.21-166.21h153.05c35.96,0,65.11,29.15,65.11,65.11v5.31c0,35.96-29.15,65.11-65.11,65.11h-153.05
		C2243.2,957.58,2229.46,971.32,2229.46,988.27z"/>
	<path class="st2" d="M1033.66,889.82v393.8c0,37.42-30.34,67.76-67.76,67.76h0c-37.42,0-67.76-30.34-67.76-67.76v-393.8
		c0-37.42,30.34-67.76,67.76-67.76h0C1003.32,822.06,1033.66,852.4,1033.66,889.82z"/>
	<path class="st2" d="M1568.93,887.16v13.43l-22.37,56.99l-24.1,61.38l-53.2,135.52l-24.09,61.38l-37.21,94.79l-0.01,0.01
		c-9.65,24.56-33.35,40.72-59.74,40.72h-26.1c-26.4,0-50.1-16.16-59.75-40.73l0,0l-37.21-94.79l-24.1-61.38l-53.2-135.52
		l-24.09-61.38l-23.76-60.52v-9.9c0-35.96,29.15-65.1,65.1-65.1h6.51c26.87,0,50.99,16.45,60.81,41.46l36.93,94.06l24.1,61.38
		l41.71,106.25l41.7-106.25l24.1-61.38l36.93-94.06c9.82-25.01,33.95-41.46,60.81-41.46h5.12
		C1539.78,822.06,1568.93,851.21,1568.93,887.16z"/>
	<path class="st2" d="M831.17,887.22v396.4c0,37.42-30.34,67.76-67.76,67.76h0c-37.42,0-67.76-30.34-67.76-67.76v-89.81l-8.66,22.05
		l-37.21,94.78v0.01l0,0c-9.65,24.57-33.35,40.73-59.75,40.73h-26.1c-26.39,0-50.09-16.15-59.74-40.72l-0.01-0.01l-37.21-94.79
		l-8.66-22.07v89.83c0,37.42-30.34,67.76-67.76,67.76h0c-37.42,0-67.76-30.34-67.76-67.76V887.28c0-36.02,29.2-65.22,65.22-65.22
		h25.48c26.83,0,50.93,16.43,60.74,41.41l36.94,94.11l24.1,61.38l41.71,106.25l41.7-106.25l24.1-61.38l36.93-94.08
		c9.81-25,33.93-41.44,60.79-41.44h25.5C802,822.06,831.17,851.23,831.17,887.22z"/>
</g>
</svg>
