<svg width="30" height="30" viewBox="0 0 50 50"><g fill="none" fill-rule="evenodd"><circle class="fill-current transition-all" cx="25" cy="25" r="25"></circle><g fill="#FFF" class="achievement-badge-icon"><g fill-rule="nonzero"><path d="M17.442 20.761v-2.705h6.562v-6.801a5.457 5.457 0 00-3.44-1.213c-2.678 0-4.91 1.917-5.354 4.43a4.778 4.778 0 00-.755-.06c-2.593 0-4.704 2.078-4.704 4.632 0 .718.17 1.421.49 2.056A5.545 5.545 0 008 25.565c0 1.865.956 3.605 2.494 4.64-.116.448-.174.909-.174 1.379 0 2.877 2.209 5.255 5.044 5.576.684 2.214 2.788 3.798 5.2 3.798a5.457 5.457 0 003.44-1.213v-6.801h-6.562v-2.705h-1.639v-1.962h1.639V26.48h-1.639v-1.962h1.639v-1.796h-1.639v-1.962h1.639zM42 25.565a5.545 5.545 0 00-2.24-4.465c.319-.635.489-1.338.489-2.056 0-2.554-2.11-4.632-4.704-4.632-.253 0-.506.02-.755.06-.445-2.513-2.676-4.43-5.353-4.43a5.457 5.457 0 00-3.44 1.213v6.801h6.561v2.705h1.639v1.962h-1.639v1.796h1.639v1.962h-1.639v1.796h1.639v1.962h-1.639v2.705h-6.562v6.801a5.457 5.457 0 003.44 1.213c2.412 0 4.516-1.584 5.2-3.798 2.835-.32 5.044-2.699 5.044-5.576 0-.47-.058-.931-.174-1.38C41.044 29.17 42 27.43 42 25.565z"></path></g><path d="M25 31l-.77-.76c-2.86-2.5-4.73-4.185-4.73-6.251 0-1.685 1.32-2.989 3.025-2.989.935 0 1.87.435 2.475 1.142A3.32 3.32 0 0127.475 21c1.705 0 3.025 1.304 3.025 2.989 0 2.065-1.87 3.75-4.73 6.25L25 31z"></path></g></g></svg>