<svg width="30" height="30" viewBox="0 0 50 50"><g fill="none" fill-rule="evenodd"><circle class="fill-current transition-all" cx="25" cy="25" r="25"></circle><g fill="#FFF" class="achievement-badge-icon"><path d="M36.858 37.591c3.066-3.182 6.053-1.576 6.053-1.576-1.96 3.632-6.053 1.576-6.053 1.576zM28.464 40.732a.252.252 0 01-.232-.157.26.26 0 01.132-.339c7.447-3.236 11.786-7.353 12.9-12.238.738-3.242-.131-6.221-.99-8.152-.935-2.097-2.053-3.432-2.065-3.444a.263.263 0 01.027-.364.25.25 0 01.357.028c.048.056 1.176 1.405 2.14 3.567.893 2 1.793 5.098 1.021 8.48-1.15 5.056-5.59 9.292-13.192 12.597a.245.245 0 01-.097.022zM35.585 10c4.266 1.569 2.736 5.976 2.736 5.976C33.479 12.9 35.585 10 35.585 10zM40.32 10.854c3.508 4.177.585 6.829.585 6.829-2.883-3.737-.584-6.83-.584-6.83zM44.255 17.683c1.444 4.58-1.631 5.122-1.631 5.122-1.94-4.063 1.631-5.122 1.631-5.122zM42.985 27.927c3.353-.413 2.393-4.268 2.393-4.268-3.121.763-2.393 4.268-2.393 4.268z"></path><path d="M40.317 33.902c.538-4.718 4.32-4.255 4.32-4.255.151 3.076-4.32 4.255-4.32 4.255zM37.723 40.635c-3.625 2.56-5.188-.864-5.188-.864 2.115-2.087 5.188.864 5.188.864z"></path><path d="M35.13 42.383c-2.33 2.496-6.054-.935-6.054-.935 1.004-2.044 6.053.935 6.053.935zM27.362 41.585s2.694 1.022 2.575 3.415c0 0-2.818-1.145-2.575-3.415zM7.459 36.014s2.987-1.604 6.053 1.577c.002 0-4.09 2.056-6.053-1.577zM21.041 40.732a.252.252 0 00.232-.157.26.26 0 00-.132-.339C13.694 37 9.355 32.883 8.242 27.998c-.738-3.242.13-6.221.99-8.152.934-2.097 2.053-3.432 2.064-3.444a.263.263 0 00-.027-.364.25.25 0 00-.357.028c-.048.056-1.175 1.405-2.14 3.567-.892 2-1.792 5.098-1.02 8.48 1.15 5.056 5.59 9.292 13.191 12.597.03.014.065.022.098.022zM12.05 15.976s-1.53-4.41 2.735-5.976c0 0 2.106 2.9-2.736 5.976zM8.6 17.683s-2.922-2.652.585-6.83c0 0 2.298 3.093-.584 6.83zM6.882 22.805s-3.075-.543-1.632-5.122c0 0 3.571 1.06 1.632 5.122zM4.128 23.659s-.962 3.855 2.392 4.268c0 0 .728-3.505-2.392-4.268z"></path><path d="M4.868 29.646s3.783-.46 4.32 4.256c0 .002-4.47-1.177-4.32-4.256zM16.97 39.77s-1.565 3.426-5.188.865c0 .002 3.073-2.951 5.188-.865z"></path><path d="M20.43 41.45s-3.725 3.428-6.054.933c0-.002 5.05-2.979 6.053-.934zM19.568 45c-.119-2.393 2.576-3.415 2.576-3.415.242 2.27-2.576 3.415-2.576 3.415z"></path><g fill-rule="nonzero"><path d="M33.17 33.346a3.401 3.401 0 01-.96-2.364v-2.793a2.297 2.297 0 001.126-1.977c0-1.267-1.01-2.297-2.252-2.297-1.242 0-2.252 1.03-2.252 2.297v.574a.569.569 0 01-.563.574h-6.756a.569.569 0 01-.563-.574v-.574c0-1.267-1.01-2.297-2.252-2.297-1.241 0-2.251 1.03-2.251 2.297 0 .846.456 1.579 1.126 1.977v2.793c0 .88-.35 1.741-.961 2.364-.354.36-.104.98.398.98h3.377a.568.568 0 00.563-.574v-.574h7.882v.574c0 .317.252.574.563.574h3.378c.501 0 .75-.62.398-.98zm-4.338-1.317H20.95v-.574c0-.316.253-.574.563-.574h6.756c.31 0 .563.258.563.574v.574z"></path><path d="M30.52 17.026c-.732 0-1.351.482-1.584 1.148h-.497l-1.916-1.302c.034-.135.057-.274.057-.42 0-.95-.758-1.722-1.689-1.722s-1.689.772-1.689 1.722c0 .146.023.285.057.42l-1.916 1.302h-.496a1.689 1.689 0 00-1.586-1.148c-.93 0-1.688.773-1.688 1.722 0 .848.603 1.55 1.394 1.693l.392 2.394c1.547.314 2.717 1.708 2.717 3.377h5.63c0-1.67 1.17-3.063 2.717-3.377l.392-2.394a1.713 1.713 0 001.395-1.693c0-.95-.758-1.722-1.69-1.722zm-11.259 2.297a.569.569 0 01-.563-.575c0-.316.253-.574.563-.574.311 0 .563.258.563.574a.569.569 0 01-.563.575zm5.63-3.445c.31 0 .563.257.563.574a.569.569 0 01-.563.574.569.569 0 01-.563-.574c0-.317.252-.574.563-.574zm5.63 3.445a.569.569 0 01-.563-.575c0-.316.252-.574.563-.574.31 0 .563.258.563.574a.569.569 0 01-.563.575z"></path></g></g></g>
                                </svg>