<svg width="30" height="30" viewBox="0 0 50 50"><g transform="translate(-.978 -.99)" fill="none" fill-rule="evenodd"><circle class="fill-current transition-all" cx="25.978" cy="25.991" r="25"></circle><path fill="#FFF" fill-rule="nonzero" class="achievement-badge-icon" d="M17.988 19.316h2.456v20.396h-2.456zM32.513 19.316h2.456v20.396h-2.456zM25.25 19.316h2.456v9.302H25.25z"></path><path d="M38.612 23.279H14.344a.327.327 0 00-.325.33v1.262c0 .182.145.33.325.33h24.268c.18 0 .325-.148.325-.33V23.61a.328.328 0 00-.325-.33zM26.478 19.19c-3.543 0-7.086-.608-10.629-1.825v3.143c0 .42.335.76.749.76h19.76c.414 0 .749-.34.749-.76v-3.143c-3.543 1.217-7.086 1.826-10.629 1.826z" fill="#FFF" fill-rule="nonzero" class="achievement-badge-icon"></path><path d="M38.433 12.539c-1.53.914-4.954 2.239-11.955 2.239s-10.426-1.325-11.955-2.239c-.284-.17-.613.14-.47.442l.904 1.896c.537 1.129 1.935 1.52 2.898 1.846.962.325 4.311 1 8.623 1 4.312 0 8.623-1 8.623-1s2.36-.717 2.898-1.846l.903-1.896c.144-.302-.184-.612-.47-.442z" fill="#FFF" fill-rule="nonzero" class="achievement-badge-icon"></path></g></svg>