<svg width="30" height="30" viewBox="0 0 50 50"><g fill="none" fill-rule="evenodd"><circle class="fill-current transition-all" cx="25" cy="25" r="25"></circle><g transform="translate(11 11)" fill="#FFF" class="achievement-badge-icon"><path d="M28.871 10.879c-.308-.987-1.11-1.692-2.096-1.841l-6.873-1.04-3.074-6.49C16.388.578 15.495 0 14.5 0c-.995 0-1.887.578-2.328 1.508l-3.074 6.49-6.873 1.04c-.985.149-1.788.854-2.096 1.84a2.767 2.767 0 00.657 2.773l4.974 5.051-1.174 7.133a2.742 2.742 0 001.032 2.646c.455.344.988.519 1.524.519.412 0 .827-.104 1.21-.314L14.5 25.32l6.148 3.367a2.494 2.494 0 002.734-.205 2.742 2.742 0 001.033-2.646l-1.174-7.133 4.973-5.05a2.767 2.767 0 00.657-2.773z" fill-rule="nonzero" opacity=".3"></path><path d="M13.256 13.01c.383-.088.534.435 1.294.435.74 0 .955-.52 1.324-.435.37.085.304.457 0 .78-.304.321-.676.622-1.324.622-.548 0-.945-.244-1.294-.623-.298-.322-.383-.691 0-.779z"></path><path d="M23.454 20l.96 5.835a2.742 2.742 0 01-1.032 2.646 2.494 2.494 0 01-2.734.205L14.5 25.32l-6.148 3.367c-.383.21-.798.314-1.21.314a2.517 2.517 0 01-1.524-.52 2.742 2.742 0 01-1.032-2.645L5.546 20h17.908z" fill-rule="nonzero"></path><circle cx="11" cy="12" r="1"></circle><circle cx="18" cy="12" r="1"></circle></g></g></svg>