<svg width="30" height="30" viewBox="0 0 50 50"><g fill="none" fill-rule="evenodd"><circle class="fill-current transition-all" cx="25" cy="25" r="25"></circle><path class="achievement-badge-icon" d="M37 21.436v2.017a.805.805 0 00-.043.139 7.865 7.865 0 01-.648 2.319 15.834 15.834 0 01-2.909 4.298c-2.43 2.656-5.229 4.812-8.207 6.727a.284.284 0 01-.358 0 43.56 43.56 0 01-6.72-5.197 21.742 21.742 0 01-3.846-4.732 8.913 8.913 0 01-1.045-6.576c1.09-5.09 7.123-7.17 10.881-3.758.322.29.605.627.927.96.02-.035.04-.068.064-.1 1.68-1.974 3.756-2.856 6.24-2.418 2.724.478 4.51 2.188 5.378 4.938.12.455.215.918.286 1.383z" fill="#FFF"></path></g></svg>