<svg width="30" height="30" viewBox="0 0 50 50"><g fill="none" fill-rule="evenodd"><circle class="fill-current transition-all" cx="25" cy="25" r="25"></circle><g fill="#FFF" class="achievement-badge-icon"><path d="M36.858 37.591c3.066-3.182 6.053-1.576 6.053-1.576-1.96 3.632-6.053 1.576-6.053 1.576zM28.464 40.732a.252.252 0 01-.232-.157.26.26 0 01.132-.339c7.447-3.236 11.786-7.353 12.9-12.238.738-3.242-.131-6.221-.99-8.152-.935-2.097-2.053-3.432-2.065-3.444a.263.263 0 01.027-.364.25.25 0 01.357.028c.048.056 1.176 1.405 2.14 3.567.893 2 1.793 5.098 1.021 8.48-1.15 5.056-5.59 9.292-13.192 12.597a.245.245 0 01-.097.022zM35.585 10c4.266 1.569 2.736 5.976 2.736 5.976C33.479 12.9 35.585 10 35.585 10zM40.32 10.854c3.508 4.177.585 6.829.585 6.829-2.883-3.737-.584-6.83-.584-6.83zM44.255 17.683c1.444 4.58-1.631 5.122-1.631 5.122-1.94-4.063 1.631-5.122 1.631-5.122zM42.985 27.927c3.353-.413 2.393-4.268 2.393-4.268-3.121.763-2.393 4.268-2.393 4.268z"></path><path d="M40.317 33.902c.538-4.718 4.32-4.255 4.32-4.255.151 3.076-4.32 4.255-4.32 4.255zM37.723 40.635c-3.625 2.56-5.188-.864-5.188-.864 2.115-2.087 5.188.864 5.188.864z"></path><path d="M35.13 42.383c-2.33 2.496-6.054-.935-6.054-.935 1.004-2.044 6.053.935 6.053.935zM27.362 41.585s2.694 1.022 2.575 3.415c0 0-2.818-1.145-2.575-3.415zM7.459 36.014s2.987-1.604 6.053 1.577c.002 0-4.09 2.056-6.053-1.577zM21.041 40.732a.252.252 0 00.232-.157.26.26 0 00-.132-.339C13.694 37 9.355 32.883 8.242 27.998c-.738-3.242.13-6.221.99-8.152.934-2.097 2.053-3.432 2.064-3.444a.263.263 0 00-.027-.364.25.25 0 00-.357.028c-.048.056-1.175 1.405-2.14 3.567-.892 2-1.792 5.098-1.02 8.48 1.15 5.056 5.59 9.292 13.191 12.597.03.014.065.022.098.022zM12.05 15.976s-1.53-4.41 2.735-5.976c0 0 2.106 2.9-2.736 5.976zM8.6 17.683s-2.922-2.652.585-6.83c0 0 2.298 3.093-.584 6.83zM6.882 22.805s-3.075-.543-1.632-5.122c0 0 3.571 1.06 1.632 5.122zM4.128 23.659s-.962 3.855 2.392 4.268c0 0 .728-3.505-2.392-4.268z"></path><path d="M4.868 29.646s3.783-.46 4.32 4.256c0 .002-4.47-1.177-4.32-4.256zM16.97 39.77s-1.565 3.426-5.188.865c0 .002 3.073-2.951 5.188-.865z"></path><path d="M20.43 41.45s-3.725 3.428-6.054.933c0-.002 5.05-2.979 6.053-.934zM19.568 45c-.119-2.393 2.576-3.415 2.576-3.415.242 2.27-2.576 3.415-2.576 3.415z"></path><g fill-rule="nonzero"><path d="M25.056 25.973l3.015 2.272 1.15-9.992-9.288 3.86.924.696a1.287 1.287 0 01-1.548 2.055l-2.63-1.981a1.318 1.318 0 01-.533-.609 1.278 1.278 0 01-.086-.737 1.281 1.281 0 01.874-1.002l13.293-5.523c.45-.188.946-.107 1.31.168.365.273.578.728.522 1.212l-1.658 14.411a1.284 1.284 0 01-1.442 1.127 1.318 1.318 0 01-.731-.345l-4.721-3.557-1.384 1.836a1.31 1.31 0 01-2.091-1.576l4.316-5.728a1.31 1.31 0 112.091 1.576l-1.383 1.837zm-5.043 6.691l-.649.861a1.31 1.31 0 01-2.091-1.576l.649-.86a1.31 1.31 0 112.091 1.575z"></path></g></g></g></svg>