<svg width="30" height="30" viewBox="0 0 50 50"><g fill="none" fill-rule="evenodd"><circle class="fill-current transition-all" cx="25" cy="25" r="25"></circle><g fill="#FFF" fill-rule="nonzero" class="achievement-badge-icon"><path d="M13.573 32.96a1.95 1.95 0 01.553-1.38c.362-.37.847-.573 1.36-.573h21.163v3.87H15.523c-1.065 0-1.94-.86-1.95-1.916z"></path><path d="M37.646 37.984h-22.11a5.049 5.049 0 01-5.036-5.027c-.007-2.786 2.233-5.058 4.985-5.058h22.161c.472 0 .854.387.854.863v.346a.859.859 0 01-.854.863h-22.16c-.94 0-1.78.449-2.316 1.146a2.97 2.97 0 000 3.64 2.98 2.98 0 002.353 1.156h22.123c.472 0 .854.386.854.863v.345a.859.859 0 01-.854.863zM25.392 14.83c.308-.49.795-1.19 1.41-1.862.52-.57 1.54-1.303 1.54-1.303.154-.11.138-.264-.037-.341l-1.232-.549a.465.465 0 00-.527.126s-.912 1.245-1.985 3.897c-3.318-1.43-6.472.573-6.472 4.054 0 3.636 2.938 9.16 6.91 7.493 4.184 1.724 6.912-3.856 6.912-7.493 0-3.511-2.835-5.57-6.519-4.023z"></path><path d="M24.649 13.652a.418.418 0 00.377-.36s.123-1.422-.918-2.414c-1.044-.992-2.534-.874-2.534-.874a.418.418 0 00-.377.36s-.125 1.422.917 2.415c1.041.991 2.535.873 2.535.873z"></path></g></g></svg>