<svg xmlns="http://www.w3.org/2000/svg" width="44" height="30"><g fill="none" fill-rule="evenodd"><path d="M14 0h29.16v29.156H14z"/><path fill="#78909C" d="M38.887 15.424l-15.304 8.742h-.002a.995.995 0 01-.988 0 .977.977 0 01-.493-.846V5.836c0-.349.189-.671.493-.846a1 1 0 01.988 0l15.304 8.742h.002a.978.978 0 01.493.846c0 .35-.189.672-.493.846z"/><g fill="#78909C" transform="translate(0 5)"><rect width="19" height="5" rx="2.5"/><rect width="13" height="5" x="6" y="7" rx="2.5"/><rect width="8" height="5" x="11" y="14" rx="2.5"/></g></g></svg>