<svg width="30" height="30" viewBox="0 0 90 90"><defs><linearGradient id="u01yeuduha" x1=".733%" x2="99.267%" y1="50.733%" y2="50.733%"><stop offset="0%" stop-color="#F19A1A"></stop><stop offset="100%" stop-color="#FFC73C"></stop></linearGradient></defs><g fill="none" fill-rule="evenodd"><g><g transform="translate(-309 -201) translate(309 201)"><circle cx="45" cy="45" r="45" class="fill-current"></circle><g fill="#FFF" class="achievement-badge-icon"><g><path fill-rule="nonzero" d="M51.165 0c3.787 0 6.857 3.441 6.857 7.687 0 4.245-3.07 7.686-6.857 7.686h-.858c-1.418 0-2.571-1.293-2.571-2.882 0-1.59 1.153-2.883 2.571-2.883.947 0 1.715-.86 1.715-1.921 0-1.062-.768-1.922-1.715-1.922-3.308 0-6 3.017-6 6.726 0 1.031.208 2.008.58 2.882h-10.12V9.845h-12v5.528h-9.632c.33-.777.532-1.635.573-2.54l.008-.342c0-3.709-2.692-6.726-6.001-6.726-.947 0-1.714.86-1.714 1.922 0 1.061.767 1.921 1.714 1.921 1.418 0 2.572 1.293 2.572 2.883s-1.154 2.882-2.572 2.882h-.857C3.07 15.373 0 11.932 0 7.687 0 3.44 3.07 0 6.858 0z" transform="translate(15.918 19.592)"></path><g><path d="M2.393 6H9.716999999999999V32.284H2.393zM13.986 0L21.311 0 21.311 37.75 13.986 37.75zM25.583 6H32.907V32.284H25.583z" transform="translate(15.918 19.592) translate(11.118 12.845)"></path></g></g><path d="M50.02 47.939c.677 0 1.225.548 1.225 1.224v7.644c0 .676-.548 1.224-1.225 1.224H8.388c-.677 0-1.225-.548-1.225-1.224v-7.644c0-.676.548-1.224 1.225-1.224l14.378-.001.001 5.638h12v-5.638H50.02z" transform="translate(15.918 19.592)"></path></g></g></g></g></svg>