<svg width="30" height="30" viewBox="0 0 50 50"><g fill="none" fill-rule="evenodd"><circle class="fill-current transition-all" cx="25" cy="25" r="25"></circle><g fill="#FFF" fill-rule="nonzero" class="achievement-badge-icon"><path d="M20.517 16.519l3.138 1.757-1.757-3.138L23.655 12l-3.138 1.757L17.38 12l1.758 3.138-1.758 3.138zM34.862 28.999l-3.138-1.758 1.757 3.138-1.757 3.138 3.138-1.757L38 33.517l-1.757-3.138L38 27.241zM38 12l-3.138 1.757L31.724 12l1.757 3.138-1.757 3.138 3.138-1.757L38 18.276l-1.757-3.138zM28.519 18.646a1.192 1.192 0 00-1.726 0L12.37 33.069a1.192 1.192 0 000 1.726l2.835 2.835a1.192 1.192 0 001.726 0l14.423-14.423a1.192 1.192 0 000-1.726l-2.835-2.835zm-1.356 6.78l-2.589-2.589 2.959-2.959 2.589 2.59-2.96 2.958z"></path></g></g></svg>