<?xml version="1.0" encoding="iso-8859-1"?>
<!-- Generator: Adobe Illustrator 18.0.0, SVG Export Plug-In . SVG Version: 6.00 Build 0)  -->
<!DOCTYPE svg PUBLIC "-//W3C//DTD SVG 1.1//EN" "http://www.w3.org/Graphics/SVG/1.1/DTD/svg11.dtd">
<svg version="1.1" id="Capa_1" xmlns="http://www.w3.org/2000/svg" xmlns:xlink="http://www.w3.org/1999/xlink" x="0px" y="0px"
	 viewBox="0 0 59.27 59.27" style="enable-background:new 0 0 59.27 59.27;" xml:space="preserve">
<g>
	<g>
		<g>
			<rect x="1" y="3.644" style="fill:#451010;" width="56" height="44"/>
			<path style="fill:#B22727;" d="M58,48.644H0v-46h58V48.644z M2,46.644h54v-42H2V46.644z"/>
		</g>
		<polygon style="fill:#FFFFFF;" points="25,32.644 25,25.598 25,18.644 36,25.644 		"/>
		<g>
			<rect x="1" y="3.644" style="fill:#451010;" width="10" height="11"/>
			<path style="fill:#B22727;" d="M12,15.644H0v-13h12V15.644z M2,13.644h8v-9H2V13.644z"/>
		</g>
		<g>
			<rect x="1" y="14.644" style="fill:#451010;" width="10" height="11"/>
			<path style="fill:#B22727;" d="M12,26.644H0v-13h12V26.644z M2,24.644h8v-9H2V24.644z"/>
		</g>
		<g>
			<rect x="1" y="25.644" style="fill:#451010;" width="10" height="11"/>
			<path style="fill:#B22727;" d="M12,37.644H0v-13h12V37.644z M2,35.644h8v-9H2V35.644z"/>
		</g>
		<g>
			<rect x="1" y="36.644" style="fill:#451010;" width="10" height="11"/>
			<path style="fill:#B22727;" d="M12,48.644H0v-13h12V48.644z M2,46.644h8v-9H2V46.644z"/>
		</g>
		<g>
			<rect x="47" y="3.644" style="fill:#451010;" width="10" height="11"/>
			<path style="fill:#B22727;" d="M58,15.644H46v-13h12V15.644z M48,13.644h8v-9h-8V13.644z"/>
		</g>
		<g>
			<rect x="47" y="14.644" style="fill:#451010;" width="10" height="11"/>
			<path style="fill:#B22727;" d="M58,26.644H46v-13h12V26.644z M48,24.644h8v-9h-8V24.644z"/>
		</g>
		<g>
			<rect x="47" y="25.644" style="fill:#451010;" width="10" height="11"/>
			<path style="fill:#B22727;" d="M58,37.644H46v-13h12V37.644z M48,35.644h8v-9h-8V35.644z"/>
		</g>
		<g>
			<rect x="47" y="36.644" style="fill:#451010;" width="10" height="11"/>
			<path style="fill:#B22727;" d="M58,48.644H46v-13h12V48.644z M48,46.644h8v-9h-8V46.644z"/>
		</g>
	</g>
</g>
</svg>
